<svg xmlns="http://www.w3.org/2000/svg" viewBox="0 0 36 36">
  <circle cx="18" cy="18" r="18" fill="#F7931A"/>
  <path d="M22.4 16.4c.3-1.9-1.2-3-3.2-3.6l.6-2.6-1.6-.4-.6 2.5-.9-.2.6-2.5-1.6-.4-.7 2.6-.7-.2-2.2-.5-.4 1.7s1.1.3 1.1.3c.6.1.7.5.7.9l-1.7 7c-.2.4-.5.7-1 .5 0 0-1.1-.3-1.1-.3l-.7 1.8 2.1.5.8.2-.7 2.6 1.6.4.7-2.6 1 .2-.7 2.6 1.6.4.7-2.7c2.7.5 4.7.3 5.5-2 .7-1.9-.1-3-1.4-3.7 1-.2 1.8-.9 2-2.6zm-3.8 5.3c-.5 2-3.7.9-4.7.7l.8-3.2c1 .2 4.4.7 3.9 2.5zm.4-5.3c-.4 1.8-3.1.9-4 .7l.7-2.9c.9.2 3.7.5 3.3 2.2z" fill="white"/>
</svg>
