<svg width="362" height="362" viewBox="0 0 362 362" fill="none" xmlns="http://www.w3.org/2000/svg">
<g filter="url(#filter0_i_1743_7814)">
<circle cx="181" cy="181" r="181" fill="#0C0B0D" fill-opacity="0.24"/>
</g>
<g filter="url(#filter1_i_1743_7814)">
<circle cx="181" cy="181" r="114.603" fill="#0C0B0D" fill-opacity="0.27"/>
</g>
<path d="M116.801 84.7369C122.687 82.8219 133.066 83.1205 139.191 84.3707C153.275 86.5122 165.692 97.2562 170.638 110.447C170.918 111.193 171.185 111.865 171.378 112.641C172.149 114.518 173.324 118.119 173.518 120.107C175.317 124.734 176.085 140.054 174.746 144.722C174.087 149.932 172.981 154.738 170.92 159.608C169.656 163.45 166.922 167.663 164.47 170.784C155.048 182.775 140.706 186.376 126.083 185.573C125.466 185.539 124.802 185.581 124.187 185.478C112.3 185.79 102.553 184.534 92.6394 177.164C83.6329 170.468 77.492 158.206 75.9466 147.179C74.493 141.451 74.6286 127.177 76.1653 121.509C76.5007 117.469 80.1833 107.219 82.8008 104.145C83.2298 103.234 84.4854 101.456 85.1023 100.634C91.3332 92.3307 101.321 87.1112 111.524 85.6842C113.27 85.3354 115.037 84.9572 116.801 84.7369ZM112.546 120.053C110.609 128.353 110.72 133.416 111.272 141.795C111.921 145.803 112.533 148.506 114.109 152.351C116.415 156.696 120.277 162.864 125.792 163.394C129.941 161.577 131.538 160.154 134.165 156.601C135.781 153.993 136.495 152.02 137.553 149.173C139.183 142.129 139.734 135.889 138.639 128.703C138.32 127.361 138.125 125.557 137.782 124.034C136.74 119.416 134.867 114.753 131.568 111.27C130.91 110.575 128.941 109.13 128.074 108.434C126.399 107.647 124.697 106.917 122.973 106.247C116.525 108.713 114.959 114.466 112.546 120.053Z" fill="#676666"/>
<path d="M116.801 84.7369C122.687 82.8219 133.066 83.1205 139.191 84.3707C136.812 85.1131 136.699 84.9684 134.621 85.4361L136.404 85.9837L136.495 86.1602C135.871 86.3088 133.306 86.1175 132.319 86.1501C131.566 86.1661 130.766 86.1481 130.009 86.1433C129.025 86.1908 127.182 86.2271 126.28 86.3983L122.866 86.5403C120.954 86.8749 118.532 87.2847 116.772 88.1393C94.1125 99.1894 88.3426 122.337 92.1468 145.605C96.2302 170.58 116.282 185.441 141.334 180.984C152.741 178.954 164.129 171.124 168.672 160.168C168.77 159.807 169.873 157.237 170.119 156.579C171.578 152.676 172.78 149.272 173.485 145.145C174.101 145.034 174.189 144.897 174.638 144.446L174.746 144.722C174.087 149.932 172.981 154.738 170.92 159.608C169.656 163.45 166.922 167.663 164.47 170.784C155.048 182.775 140.706 186.376 126.083 185.573C125.466 185.539 124.802 185.581 124.187 185.478C112.3 185.79 102.553 184.534 92.6394 177.164C83.6329 170.468 77.492 158.206 75.9466 147.179C74.493 141.451 74.6286 127.177 76.1653 121.509C76.5007 117.469 80.1833 107.219 82.8008 104.145C83.2298 103.234 84.4854 101.456 85.1023 100.634C91.3332 92.3307 101.321 87.1112 111.524 85.6842C113.27 85.3354 115.037 84.9572 116.801 84.7369Z" fill="#292929"/>
<path d="M75.9464 147.178C76.4645 145.83 75.7589 145.214 75.7647 143.577C76.9718 142.558 82.9211 142.662 84.731 142.697C85.3728 143.742 85.6807 144.198 86.4781 145.124L86.9006 145.074L86.9341 145.19C87.5614 147.431 87.6847 150.974 88.2995 152.833C90.1631 158.47 92.6004 166.478 96.6183 170.854C102.266 177.005 109.957 181.654 117.936 183.907C119.223 184.27 123.486 184.716 124.172 185.325L124.187 185.477C112.299 185.79 102.553 184.534 92.6392 177.164C83.6326 170.468 77.4918 158.205 75.9464 147.178Z" fill="#454445"/>
<path d="M82.8009 104.144C83.23 103.234 84.4856 101.456 85.1025 100.634C91.3334 92.3305 101.321 87.111 111.525 85.6841L111.447 86.2039L108.455 88.1953L108.909 88.5686C105.515 90.4331 98.1668 95.0847 97.7365 99.2592C95.9793 101.5 94.7527 103.315 93.3895 105.846C92.9996 106.569 92.1066 108.489 91.7466 109.038C91.7194 108.675 91.8635 107.994 91.9189 107.588L91.4297 107.57L90.7682 108.02L90.3721 107.901C89.6679 109.171 88.3384 112.513 88.0417 113.926C87.6107 115.179 87.1115 116.428 86.974 117.741L86.5382 117.353C85.6906 117.507 85.4327 118.382 84.4318 118.743C82.8305 119.321 78.029 119.743 76.9383 120.565C76.7544 120.862 76.5767 121.162 76.4054 121.466L76.1655 121.508C76.5008 117.469 80.1835 107.219 82.8009 104.144Z" fill="#525151"/>
<path d="M82.8008 104.144C83.2298 103.234 84.4854 101.456 85.1023 100.634C91.3333 92.3305 101.321 87.111 111.524 85.6841L111.447 86.2039L108.455 88.1953C106.079 89.4764 104.927 90.1286 102.809 91.5944C100.886 92.9247 95.2123 98.987 94.1979 99.3416L94.2823 99.1964C92.0738 100.52 89.4959 102.099 87.1275 103.059C84.9483 103.942 84.7577 101.96 83.2352 104.048L82.8008 104.144Z" fill="#676666"/>
<path d="M76.1653 121.509L76.4053 121.466C76.5765 121.162 76.7542 120.862 76.9381 120.566C78.0288 119.744 82.8303 119.321 84.4316 118.744C85.4326 118.383 85.6904 117.508 86.538 117.353L86.9739 117.742C85.1665 123.898 84.5712 134.675 85.6817 141.041C86.143 141.633 85.9038 141.465 86.5723 141.715L86.9008 145.075L86.4784 145.125C85.6809 144.198 85.373 143.742 84.7313 142.697C82.9214 142.663 76.972 142.558 75.7649 143.578C75.7591 145.214 76.4648 145.83 75.9466 147.179C74.493 141.452 74.6286 127.178 76.1653 121.509Z" fill="#7C7C7C"/>
<path d="M116.801 84.7369C122.687 82.8219 133.066 83.1205 139.191 84.3707C136.812 85.1131 136.699 84.9684 134.621 85.4361L136.404 85.9837L136.495 86.1602C135.871 86.3088 133.306 86.1175 132.319 86.1501C131.566 86.1661 130.766 86.1481 130.009 86.1433C129.056 85.4306 125.132 85.6493 123.724 85.6616C119.417 86.0661 114.184 87.7848 110.315 89.6875C108.91 90.791 105.731 94.2105 104.579 94.6931C103.533 93.8227 102.796 94.7805 101.724 95.4843C101.092 96.3659 98.6755 98.314 97.7363 99.2593C98.1666 95.0848 105.515 90.4333 108.908 88.5687L108.455 88.1955L111.447 86.204L111.524 85.6842C113.27 85.3354 115.037 84.9572 116.801 84.7369Z" fill="#8C8C8D"/>
<path d="M101.724 95.4838L101.785 94.9259C103.202 92.5475 107.788 90.5526 110.315 89.687C108.91 90.7905 105.731 94.2101 104.579 94.6926C103.533 93.8222 102.796 94.7801 101.724 95.4838Z" fill="#575656"/>
<path d="M111.524 85.6837C113.27 85.3349 115.037 84.9566 116.801 84.7363C114.449 85.8206 111.066 87.6911 108.908 88.5682L108.455 88.1949L111.447 86.2035L111.524 85.6837Z" fill="#575656"/>
<path d="M123.724 85.6609C125.177 85.4422 131.252 85.2564 132.443 85.8257L132.438 86.0627L132.319 86.1494C131.566 86.1654 130.766 86.1474 130.009 86.1426C129.056 85.4299 125.132 85.6486 123.724 85.6609Z" fill="#575656"/>
<path d="M101.724 95.4843C102.796 94.7805 103.532 93.8227 104.579 94.6931C98.2607 100.462 93.5918 109.038 91.6007 117.265C91.3222 118.416 90.6415 120.78 90.5005 121.911L90.3208 122.077C90.022 122.447 89.5481 123.209 89.2671 123.634L89.2495 122.39C88.9564 122.497 88.7443 122.563 88.4487 122.648L88.3291 121.459C88.8678 119.073 88.9053 117.677 89.7303 115.034C90.2464 113.38 91.4252 110.404 91.7462 109.038C92.1061 108.49 92.9992 106.569 93.389 105.846C94.7523 103.315 95.9788 101.5 97.7361 99.2593C98.6752 98.314 101.092 96.3659 101.724 95.4843Z" fill="#C4C4C4"/>
<path d="M88.0415 113.926L88.7231 114.848C86.3243 122.644 85.76 133.606 86.5722 141.714C85.9038 141.465 86.1429 141.632 85.6817 141.041C84.5712 134.674 85.1664 123.897 86.9738 117.741C87.1112 116.428 87.6105 115.179 88.0415 113.926Z" fill="#A7A7A8"/>
<path d="M88.3292 121.459L88.4489 122.647C88.7445 122.562 88.9565 122.497 89.2496 122.39L89.2672 123.634C89.5482 123.208 90.0221 122.447 90.3209 122.077L90.5006 121.911C90.4298 123.053 89.4533 136.88 89.6391 136.626C89.5806 136.014 89.6101 134.115 89.4056 133.802L88.371 133.796C88.1747 134.272 88.1733 134.397 88.1019 134.913C87.2997 134.025 87.4086 127.729 87.7168 126.311C87.833 124.74 88.1069 123.033 88.3292 121.459Z" fill="#575656"/>
<path d="M88.3297 121.459L88.4493 122.647C88.745 122.562 88.957 122.497 89.2501 122.39L89.2677 123.634C89.5487 123.208 90.0226 122.447 90.3214 122.077C90.0749 123.406 88.9979 127.167 88.3573 128.323L88.0321 128.43C87.6495 127.794 87.7259 127.068 87.7173 126.311C87.8335 124.74 88.1074 123.033 88.3297 121.459Z" fill="#7C7C7C"/>
<path d="M173.485 145.145C174.101 145.034 174.189 144.898 174.638 144.446L174.747 144.722C174.087 149.932 172.981 154.738 170.921 159.609C170.87 159.415 170.809 159.184 170.738 158.915C171.584 157.202 172.39 153.638 173.073 152.054L172.829 151.592L172.33 151.615C171.82 153.2 169.819 159.407 168.672 160.169C168.77 159.807 169.874 157.237 170.119 156.579C171.578 152.676 172.781 149.272 173.485 145.145Z" fill="#575656"/>
<path d="M88.0415 113.927C88.3383 112.514 89.6677 109.172 90.372 107.901L90.768 108.02L91.4296 107.57C90.4772 109.657 89.2874 112.612 88.7231 114.848L88.0415 113.927Z" fill="#7C7C7C"/>
<path d="M101.498 171.498C102.336 171.78 105.925 174.92 107.026 175.582C109.544 177.097 111.967 178.341 114.691 179.454C120.896 182.025 127.592 183.193 134.301 182.874C137.408 182.729 139.518 182.216 142.672 182.72C141.178 183.711 132.167 184.034 130.184 183.947C122.858 183.878 115.278 182.754 108.976 178.797C107.349 177.775 102.547 174.47 101.711 172.846C102.546 173.058 102.769 174.056 103.431 174.453C105.121 175.468 106.627 176.795 108.206 178.001C108.957 177.931 108.72 178.057 109.171 177.598C108.902 176.766 107.277 176.05 106.47 175.499C104.675 174.275 103.006 173.072 101.498 171.498Z" fill="#575656"/>
<path d="M139.191 84.3706C153.275 86.5121 165.692 97.2561 170.638 110.447C170.918 111.193 171.185 111.865 171.378 112.641L170.805 113.583C170.496 112.63 169.827 110.816 169.042 110.183C167.822 107.299 164.848 102.521 162.904 100.071C156.661 92.2043 146.648 87.1599 136.658 86.4632C133.332 86.2313 129.429 86.7481 126.28 86.3981C127.182 86.2269 129.025 86.1906 130.009 86.1432C130.766 86.148 131.566 86.166 132.319 86.15C133.306 86.1174 135.871 86.3087 136.495 86.1601L136.404 85.9836L134.621 85.436C136.699 84.9682 136.812 85.113 139.191 84.3706Z" fill="#59595A"/>
<path d="M122.866 86.5404L126.281 86.3984C129.429 86.7484 133.332 86.2316 136.658 86.4635C146.649 87.1602 156.661 92.2046 162.904 100.072C164.849 102.522 167.823 107.299 169.042 110.183C168.87 110.691 168.866 110.825 168.498 111.19C162.572 96.0134 148.174 87.3951 132.25 86.8372C129.385 86.7367 124.771 87.7553 122.866 86.5404Z" fill="#BAB9B9"/>
<path d="M173.519 120.106C175.317 124.734 176.085 140.054 174.746 144.722L174.638 144.446C174.713 140.761 174.802 139.114 174.283 135.454C175.164 128.843 174.145 126.128 173.519 120.106Z" fill="#161616"/>
<path d="M169.042 110.183C169.827 110.815 170.496 112.63 170.805 113.583C171.212 114.305 171.76 115.45 171.344 116.263L170.931 116.252C169.774 115.279 168.424 112.603 168.498 111.19C168.866 110.825 168.87 110.691 169.042 110.183Z" fill="#7C7C7C"/>
<path d="M174.283 135.454C174.802 139.114 174.713 140.76 174.638 144.446C174.189 144.897 174.101 145.033 173.485 145.144C173.481 143.432 174.143 137.882 174.283 135.454Z" fill="#7C7C7C"/>
<path d="M112.546 120.053L112.568 119.949C112.917 118.172 112.081 117.881 112.296 116.923C114.837 105.611 125.026 98.4807 136.531 100.866C142.45 102.093 146.971 105.251 150.257 110.252C152.291 113.34 154.767 119.446 155.058 123.054C155.931 126.446 156.206 132.694 155.991 136.345C156.214 146.959 152.716 161.967 141.16 165.488L141.242 165.89C139.228 168.784 129.217 168.085 126.069 167.018C119.412 164.762 115.881 160.9 112.704 154.839C113.452 154.61 113.148 154.608 113.864 154.802C114.157 155.263 114.429 155.663 114.743 156.11L114.109 152.351C116.415 156.696 120.277 162.864 125.792 163.394C129.941 161.577 131.538 160.154 134.165 156.601C135.781 153.993 136.495 152.02 137.553 149.173C139.183 142.129 139.734 135.889 138.639 128.703C138.32 127.361 138.125 125.557 137.782 124.034C136.74 119.416 134.867 114.753 131.568 111.27C130.91 110.575 128.941 109.13 128.074 108.434C126.399 107.647 124.698 106.918 122.973 106.247C116.525 108.713 114.959 114.466 112.546 120.053Z" fill="#303030"/>
<path d="M155.991 136.345C156.214 146.959 152.716 161.967 141.16 165.488L141.241 165.89C139.228 168.783 129.217 168.085 126.069 167.018C119.412 164.761 115.881 160.9 112.704 154.838C113.452 154.61 113.148 154.608 113.864 154.802C114.157 155.263 114.429 155.663 114.743 156.11L114.109 152.351C116.414 156.696 120.277 162.864 125.792 163.394C129.941 161.577 131.538 160.154 134.164 156.601C135.781 153.993 136.495 152.02 137.553 149.173L137.565 149.354C137.613 150.116 137.59 150.324 137.457 151.069L137.651 151.028C138.645 150.82 146.786 150.188 147.989 150.181L148.057 149.696C148.539 150.364 148.453 150.407 149.121 150.583C148.662 152.557 148.244 153.652 146.876 155.256L147.127 155.881C147.621 155.809 147.74 155.675 148.165 155.383C149.619 152.781 150.26 150.38 151.304 147.626C151.889 146.89 151.744 146.812 152.465 146.67C153.107 147.475 152.479 149.535 152.509 150.638C153.785 148.036 154.743 140.72 154.989 137.667C155.295 136.918 155.354 136.846 155.991 136.345Z" fill="#242425"/>
<path d="M137.553 149.172L137.565 149.354C137.613 150.116 137.59 150.324 137.456 151.069L137.65 151.027C138.645 150.82 146.786 150.187 147.988 150.181L148.056 149.696C148.538 150.364 148.452 150.406 149.12 150.582C148.662 152.557 148.244 153.651 146.875 155.255C146.345 155.599 143.508 159.415 142.668 160C140.459 158.693 136.092 158.691 134.241 157.498L134.164 156.601C135.781 153.992 136.495 152.019 137.553 149.172Z" fill="#575656"/>
<path d="M114.109 152.351C116.414 156.696 120.277 162.864 125.792 163.393C127.757 164.288 130.062 164.141 132.199 164.272C132.849 164.43 133.881 164.611 134.384 164.982L134.7 165.015L134.913 165.501C135.569 165.702 136.057 165.667 136.733 165.665C136.299 165.774 135.378 165.929 135.112 166.18C135.884 166.385 136.794 166.329 137.604 166.32C138.882 166.14 139.923 165.829 141.16 165.488L141.241 165.89C139.228 168.783 129.217 168.085 126.069 167.018C119.412 164.761 115.881 160.9 112.704 154.838C113.452 154.61 113.148 154.608 113.864 154.802C114.157 155.263 114.429 155.663 114.743 156.109L114.109 152.351Z" fill="#C7C5C3"/>
<path d="M114.109 152.351C116.414 156.696 120.277 162.864 125.792 163.393C127.757 164.288 130.062 164.141 132.199 164.272C132.848 164.43 133.881 164.611 134.384 164.982C131.639 165.293 131.298 166.033 129.325 166.416C123.664 165.335 116.887 161.802 114.743 156.109L114.109 152.351Z" fill="#303030"/>
<path d="M134.385 164.982L134.701 165.016L134.913 165.501C135.57 165.702 136.057 165.667 136.733 165.665C136.299 165.775 135.379 165.929 135.112 166.18C135.884 166.385 136.795 166.329 137.605 166.32C134.821 167.064 132.138 166.729 129.325 166.417C131.299 166.033 131.639 165.293 134.385 164.982Z" fill="#575656"/>
<path d="M134.164 156.601L134.241 157.498C136.093 158.691 140.459 158.693 142.669 160C140.193 163.08 136.001 164.109 132.199 164.272C130.062 164.141 127.757 164.288 125.792 163.393C129.941 161.577 131.538 160.154 134.164 156.601Z" fill="#6B6A6B"/>
<path d="M142.669 160C143.509 159.415 146.345 155.599 146.876 155.255L147.128 155.88C147.621 155.809 147.74 155.675 148.165 155.383L146.707 158.091C146.295 158.653 145.637 159.612 145.206 160.108C144.005 160.867 142.744 161.628 141.61 162.475L142.103 163.754C140.524 164.368 138.32 165.294 136.733 165.664C136.057 165.667 135.569 165.702 134.913 165.501L134.701 165.015L134.384 164.982C133.881 164.611 132.849 164.43 132.199 164.272C136.001 164.109 140.194 163.08 142.669 160Z" fill="#161516"/>
<path d="M141.61 162.476L142.103 163.754C140.524 164.368 138.32 165.295 136.733 165.665C136.057 165.667 135.569 165.702 134.913 165.501L134.701 165.015C136.794 164.934 139.802 163.447 141.61 162.476Z" fill="#7C7C7C"/>
<path d="M151.304 147.626C151.889 146.89 151.744 146.813 152.465 146.67C153.108 147.476 152.48 149.535 152.509 150.638C151.815 153.446 150.322 156.633 148.591 158.951C147.726 158.77 147.28 158.755 146.707 158.092L148.165 155.384C149.619 152.781 150.26 150.381 151.304 147.626Z" fill="#BBBABB"/>
<path d="M141.61 162.475C142.744 161.628 144.005 160.867 145.205 160.108C145.493 160.896 145.533 161.168 146.207 161.668C145.204 162.602 143.526 163.782 142.102 163.754L141.61 162.475Z" fill="#7C7C7C"/>
<path d="M146.706 158.091C147.28 158.755 147.726 158.769 148.591 158.95C147.725 160.044 147.203 160.672 146.208 161.668C145.533 161.168 145.493 160.896 145.206 160.108C145.637 159.612 146.295 158.652 146.706 158.091Z" fill="#BAB9B9"/>
<path d="M138.639 128.703C138.834 128.112 138.823 127.567 138.856 126.943C139.943 125.715 147.102 124.948 149.894 123.047C151.504 133.89 152.098 139.448 149.121 150.583C148.453 150.407 148.539 150.364 148.057 149.696L147.989 150.181C146.786 150.188 138.645 150.82 137.651 151.028L137.457 151.07C137.59 150.324 137.613 150.116 137.565 149.354L137.553 149.173C139.183 142.129 139.735 135.889 138.639 128.703Z" fill="#7C7C7C"/>
<path d="M122.973 106.246C126.488 104.181 132.34 104.312 136.137 105.274C136.943 105.188 138.779 105.959 139.486 106.371C145.104 109.646 148.752 117.129 149.894 123.047C147.102 124.947 139.943 125.715 138.856 126.943C138.823 127.566 138.834 128.111 138.639 128.703C138.32 127.361 138.125 125.557 137.782 124.034C136.74 119.416 134.867 114.753 131.568 111.27C130.91 110.574 128.941 109.13 128.074 108.434C126.399 107.647 124.698 106.917 122.973 106.246Z" fill="#3B3B3B"/>
<path d="M122.973 106.246C126.488 104.181 132.34 104.312 136.137 105.274L136.211 105.541C134.304 105.175 133.165 104.577 131.31 105.927L131.303 106.194C132.138 106.357 132.86 106.513 133.684 106.725C132.833 107.39 128.228 106.882 127.409 107.283C127.474 108.16 128.002 107.665 128.074 108.434C126.399 107.647 124.698 106.917 122.973 106.246Z" fill="#575656"/>
<path d="M155.057 123.054C155.931 126.446 156.206 132.694 155.991 136.345C155.354 136.846 155.294 136.918 154.989 137.667C154.743 140.72 153.785 148.036 152.509 150.638C152.479 149.535 153.107 147.476 152.465 146.67C151.744 146.813 151.889 146.89 151.304 147.626C152.483 142.429 152.956 136.982 152.825 131.641C152.778 129.734 152.238 127.732 152.284 125.811C152.852 128.273 153.161 131.105 153.498 133.632C153.99 133.607 153.849 133.599 154.319 133.209C155.015 131.528 154.388 128.392 154.411 126.275C154.279 126.132 154.306 126.053 154.247 125.808L154.592 125.267L154.692 125.312C155.25 124.534 155.123 124.032 155.057 123.054Z" fill="#6F6F6F"/>
<path d="M155.057 123.054C155.931 126.446 156.206 132.694 155.991 136.345C155.354 136.846 155.294 136.918 154.989 137.667C155.164 135.147 155.231 128.426 154.411 126.275C154.279 126.132 154.306 126.053 154.247 125.808L154.592 125.267L154.692 125.312C155.25 124.534 155.123 124.032 155.057 123.054Z" fill="#111312"/>
<path d="M112.704 154.838C110.888 152.118 108.441 142.474 108.981 139.649C109.496 140.237 109.168 145.253 110.419 146.736L110.813 146.763C111.888 145.441 110.392 141.84 110.659 140.187L111.272 141.794C111.921 145.802 112.533 148.505 114.109 152.351L114.743 156.109C114.429 155.663 114.157 155.262 113.864 154.801C113.148 154.607 113.452 154.609 112.704 154.838Z" fill="#7C7C7C"/>
<path d="M234.49 176.701C237.825 176.421 241.021 176.673 244.235 176.599C255.503 176.34 265.434 178.023 274.262 185.487C275.511 186.543 279.587 190.388 280.048 191.849C281.609 193.576 283.217 196.6 284.232 198.715C289.776 210.264 291.474 229.225 287.712 241.477C283.292 260.19 269.225 274.834 249.303 275.656C247.111 275.745 244.89 275.684 242.696 275.633C240.234 275.494 237.436 275.015 235.019 274.528C223.512 272.953 215.648 272.65 206.795 263.614C206.783 263.605 206.771 263.597 206.759 263.588C197.59 254.739 194.432 241.262 193.696 229.232C193.37 221.637 194.811 208.17 198.315 201.46C199.699 197.123 204.295 190.195 207.87 187.247C210.15 186.695 216.812 187.804 220.551 186.274L220.718 186.36C220.136 186.91 219.46 187.392 219.33 188.147C223.394 184.214 228.267 181.216 233.609 179.362L233.876 179.973C235.569 179.373 237.255 178.913 238.981 178.426L240.376 178.007C241.068 178.059 241.111 177.794 241.801 177.22C241.791 177.21 235.889 176.981 234.49 176.701ZM239.549 199.333C229.398 207.358 228.931 217.777 229.243 229.908C229.835 236.116 230.218 241.188 233.492 246.713C235.153 249.471 236.472 250.582 238.945 252.637L239.916 252.906C240.672 252.545 241.436 252.32 242.163 251.975C254.129 246.288 254.523 232.394 254.407 221.012C253.761 212.763 252.465 206.696 246.757 200.543C245.669 199.587 244.156 198.636 242.926 197.814C241.484 198.326 240.894 198.603 239.549 199.333Z" fill="#6A6A6A"/>
<path d="M233.609 179.362L233.876 179.973C230.313 181.414 228.196 182.606 224.963 184.708C225.084 185.212 225.068 185.315 225.425 185.656C223.973 187.183 223.448 189.368 221.936 190.31L221.036 191.351C215.977 197.384 213.658 202.416 211.374 209.917C210.369 214.452 210.314 217.438 209.887 222.014C209.865 224.19 209.953 233.922 210.66 235.494L210.892 235.701L210.656 234.812C211.362 235.229 211.377 235.408 211.526 236.196L211.711 236.153L211.813 235.982L212.034 236.378C212.058 236.404 212.082 236.43 212.104 236.457C212.337 236.733 212.405 236.915 212.486 237.265C213.004 239.507 225.301 249.637 227.698 251.796C229.912 253.79 232.115 255.894 234.206 258.014C235.696 259.525 236.946 261.299 238.293 262.938C240.549 265.68 243.229 268.551 246.01 270.766C246.866 271.449 248.414 271.622 249.48 271.873C248.478 271.91 248.177 271.755 247.443 272.214L247.635 272.253C249.101 272.122 250.644 272.178 252.28 272.017C257.66 271.448 262.874 269.82 267.622 267.227C278.629 261.274 283.317 251.008 286.705 239.683C286.989 240.312 287.355 240.885 287.712 241.476C283.292 260.189 269.225 274.834 249.303 275.656C247.111 275.745 244.89 275.683 242.696 275.633C240.234 275.494 237.436 275.015 235.019 274.528C223.512 272.953 215.648 272.65 206.795 263.614C206.783 263.605 206.771 263.596 206.759 263.588C197.59 254.739 194.432 241.262 193.696 229.232C193.37 221.637 194.811 208.17 198.315 201.46C199.699 197.123 204.295 190.195 207.87 187.246C210.15 186.695 216.812 187.804 220.551 186.274L220.718 186.36C220.136 186.91 219.46 187.392 219.33 188.147C223.394 184.214 228.267 181.216 233.609 179.362Z" fill="#1F1F1F"/>
<path d="M193.696 229.233C194.376 230.594 194.142 232.536 194.737 233.483C195.796 233.463 196.844 233.225 197.639 233.229C200.309 233.244 203.765 233.536 206.393 234.129L206.463 234.095L206.498 234.212C208.413 240.95 208.335 249.441 212.022 255.42C213.252 257.433 214.65 259.339 216.201 261.116C216.631 261.615 219.115 264.398 219.328 264.767C222.995 268.395 225.979 270.223 230.664 272.452C231.414 272.809 234.502 274.206 235.019 274.529C223.512 272.954 215.648 272.65 206.795 263.615C206.783 263.606 206.771 263.597 206.759 263.589C197.59 254.74 194.432 241.262 193.696 229.233Z" fill="#303030"/>
<path d="M206.795 263.614L207.182 263.466C207.601 263.829 212.293 267.794 212.408 267.777C213.928 267.546 221.78 268.784 222.646 268.499L222.7 268.222C221.84 267.576 219.376 265.921 219.232 264.93L219.328 264.766C222.995 268.395 225.979 270.223 230.664 272.452C231.414 272.809 234.502 274.206 235.019 274.529C223.512 272.954 215.648 272.65 206.795 263.614Z" fill="#5F5E5F"/>
<path d="M200.262 198.105C201.325 198.544 204.973 199.84 205.253 200.489C205.099 201.209 204.448 203.39 204.486 203.755C204.451 204.725 204.038 205.839 203.741 206.784C204.905 211.826 205.967 213.922 205.998 219.158C205.759 224.496 206.022 228.729 206.463 234.094L206.393 234.128C203.765 233.535 200.309 233.243 197.639 233.229C196.844 233.224 195.796 233.463 194.737 233.482C194.142 232.536 194.376 230.593 193.696 229.232C193.37 221.637 194.811 208.17 198.315 201.46C199.159 200.684 199.73 199.183 200.262 198.105Z" fill="#696969"/>
<path d="M212.034 236.378C212.058 236.404 212.082 236.43 212.104 236.457C212.337 236.733 212.405 236.915 212.485 237.265C213.004 239.507 225.301 249.637 227.698 251.796C229.912 253.79 232.115 255.894 234.206 258.014C235.696 259.525 236.946 261.299 238.293 262.938C240.548 265.68 243.229 268.551 246.01 270.766C246.866 271.449 248.414 271.622 249.48 271.873C248.478 271.91 248.177 271.755 247.443 272.214C240.446 272.616 231.44 268.673 226.08 264.076C219.65 257.96 216.116 252.712 213.532 244.033C212.871 241.811 212.154 238.687 212.034 236.378Z" fill="#575656"/>
<path d="M286.705 239.684C286.989 240.313 287.355 240.886 287.712 241.477C283.291 260.19 269.224 274.835 249.302 275.657C247.11 275.746 244.89 275.684 242.696 275.634L242.449 275.31C243.048 275.145 249.042 275.335 250.665 275.177C250.022 275.118 249.203 274.926 248.608 274.951C235.404 275.522 222.201 268.91 215.381 257.461C214.656 256.242 211.963 250.791 212.036 249.449C215.697 256.207 219.747 261.88 226.291 266.179C225.984 265.514 225.424 265.1 224.94 264.523C225.39 264.052 225.34 264.184 226.08 264.077C231.44 268.674 240.446 272.616 247.442 272.215L247.634 272.253C249.1 272.123 250.644 272.179 252.28 272.017C257.66 271.449 262.874 269.821 267.622 267.227C278.629 261.274 283.317 251.009 286.705 239.684Z" fill="#3C3B3B"/>
<path d="M226.08 264.077C231.44 268.674 240.446 272.616 247.443 272.215L247.635 272.253C248.315 273.737 249.551 272.368 250.771 272.997C249.59 273.173 246.93 273.085 245.686 273.037C238.038 272.743 232.775 269.932 226.292 266.179C225.985 265.513 225.425 265.1 224.94 264.522C225.39 264.052 225.34 264.184 226.08 264.077Z" fill="#161616"/>
<path d="M207.87 187.247C210.15 186.696 216.812 187.805 220.551 186.274L220.718 186.361C220.136 186.91 219.46 187.393 219.33 188.148C215.705 192.265 214.04 190.734 210.367 194.12C209.038 195.346 208.192 198.384 206.826 200.27C206.607 200.891 206.458 201.387 206.099 201.949C206.065 205.07 206.033 205.999 206.705 208.985L206.743 208.706C207.112 211.461 206.634 216.533 205.998 219.159C205.967 213.922 204.905 211.827 203.741 206.784C204.038 205.84 204.451 204.726 204.486 203.756C204.448 203.39 205.1 201.209 205.253 200.49C204.974 199.841 201.325 198.544 200.262 198.106C199.731 199.184 199.159 200.684 198.315 201.46C199.699 197.123 204.295 190.196 207.87 187.247Z" fill="#303030"/>
<path d="M207.742 219.202L207.95 219.243C208.165 217.978 208.37 216.756 208.637 215.499L209.085 215.187C209.348 215.287 209.79 215.395 209.813 215.705C209.952 217.575 209.686 220.182 209.887 222.013C209.865 224.19 209.952 233.922 210.659 235.494L210.892 235.701L210.656 234.812C211.362 235.229 211.377 235.408 211.526 236.196L211.711 236.152L211.812 235.982L212.034 236.378C212.153 238.687 212.871 241.81 213.532 244.032C216.115 252.712 219.65 257.959 226.08 264.076C225.34 264.184 225.39 264.051 224.94 264.522C225.424 265.099 225.984 265.513 226.291 266.179C219.748 261.879 215.697 256.206 212.036 249.448L212.016 249.212C211.879 249.127 211.72 249.034 211.64 248.887C208.147 242.453 206.468 225.886 207.742 219.202Z" fill="#2C2C2C"/>
<path d="M218.141 191.873C219.133 191.151 220.795 189.786 221.936 190.31L221.036 191.351C215.977 197.384 213.658 202.417 211.374 209.918C211.036 209.914 211.032 209.862 210.714 209.697C209.755 208.25 210.914 206.865 210.722 205.058C212.894 199.265 214.509 196.665 218.141 191.873Z" fill="#B8B8B8"/>
<path d="M210.722 205.058C210.914 206.865 209.755 208.25 210.714 209.697C211.033 209.862 211.036 209.914 211.374 209.918C210.37 214.453 210.315 217.439 209.887 222.014C209.687 220.183 209.952 217.576 209.813 215.706C209.79 215.396 209.348 215.288 209.085 215.188L208.638 215.501C208.37 216.757 208.165 217.979 207.95 219.244L207.742 219.203C207.905 215.213 209.376 208.778 210.722 205.058Z" fill="#898888"/>
<path d="M218.14 191.873C219.845 188.751 222.213 186.861 224.963 184.708C225.084 185.212 225.068 185.315 225.425 185.656C223.973 187.183 223.448 189.368 221.936 190.31C220.794 189.786 219.133 191.151 218.14 191.873Z" fill="#7C7C7C"/>
<path d="M234.489 176.701C237.825 176.421 241.02 176.673 244.235 176.599C255.503 176.34 265.434 178.023 274.262 185.487C275.511 186.543 279.587 190.388 280.048 191.849C278.383 191.386 274.085 184.014 270.482 184.1L270.411 184.381C270.885 185.165 271.87 185.166 272.345 185.592C273.488 186.619 277.989 190.946 278.221 192.115L277.828 191.984C276.838 192.064 274.946 189.907 274.121 189.146L274.568 188.324C265.514 179.067 254.25 178.598 242.206 179.746C242.611 179.469 242.468 179.645 242.664 179.211L241.855 178.93C240.881 178.091 240.19 178.307 238.98 178.426L240.375 178.007C241.067 178.059 241.111 177.794 241.801 177.22C241.791 177.21 235.888 176.981 234.489 176.701Z" fill="#575758"/>
<path d="M274.121 189.146L274.569 188.324C275.646 189.453 276.937 190.733 277.829 191.984C276.838 192.064 274.947 189.907 274.121 189.146Z" fill="#BAB9B9"/>
<path d="M221.036 191.351C221.385 191.729 221.571 192.077 221.991 192.149C212.936 204.333 209.18 219.655 211.573 234.645C211.641 235.093 211.721 235.539 211.813 235.982L211.711 236.153L211.526 236.196C211.377 235.408 211.362 235.229 210.656 234.812L210.892 235.701L210.66 235.494C209.953 233.922 209.865 224.19 209.887 222.014C210.314 217.438 210.369 214.452 211.374 209.917C213.658 202.416 215.977 197.384 221.036 191.351Z" fill="#212122"/>
<path d="M238.981 178.427C240.19 178.307 240.881 178.091 241.856 178.93L242.665 179.212C242.468 179.646 242.612 179.47 242.206 179.747C239.762 180.077 237.809 180.794 235.5 181.652L235.932 182.417L235.37 182.633L235.281 183.046C234.219 183.774 230.595 185.53 229.378 185.989L228.779 185.826C227.301 186.445 223.105 190.764 221.991 192.15C221.571 192.077 221.385 191.73 221.036 191.351L221.936 190.311C223.448 189.369 223.974 187.184 225.426 185.656C225.069 185.316 225.084 185.212 224.963 184.709C228.196 182.606 230.313 181.415 233.877 179.974C235.569 179.374 237.256 178.913 238.981 178.427Z" fill="#4C4A4B"/>
<path d="M238.98 178.427C240.19 178.307 240.881 178.091 241.855 178.93C236.355 180.294 230.009 182.206 225.425 185.656C225.068 185.316 225.084 185.212 224.963 184.709C228.196 182.606 230.313 181.415 233.876 179.974C235.568 179.374 237.255 178.913 238.98 178.427Z" fill="#979797"/>
<path d="M228.778 185.825C231.02 183.955 232.842 182.812 235.5 181.652L235.931 182.417L235.37 182.633L235.281 183.045C234.219 183.774 230.594 185.53 229.378 185.989L228.778 185.825Z" fill="#BAB9B9"/>
<path d="M242.206 179.746C254.25 178.598 265.514 179.066 274.569 188.324L274.121 189.146C271.634 186.946 269.902 185.37 266.838 183.954C256.924 179.373 245.433 179.464 235.281 183.045L235.37 182.632L235.931 182.416L235.499 181.651C237.809 180.793 239.761 180.076 242.206 179.746Z" fill="#D3D1D1"/>
<path d="M239.549 199.333C241.034 195.887 247.185 195.571 250.427 195.83C256.632 196.325 263.113 200.897 265.548 206.679L265.758 206.603C266.4 203.944 262.262 198.676 260.196 197.132L261.08 196.454C275.577 206.461 275.039 235.264 266.695 249.151C265.257 251.546 262.483 252.389 260.49 254.04L258.762 254.946L258.406 254.308C258.961 252.606 262.614 251.947 263.412 250.323C263.075 249.349 263.268 248.976 263.578 247.972C262.63 249.284 261.401 250.231 260.17 251.285C257.746 253.39 256.619 254.102 253.616 255.311C252.366 256.333 251.982 256.313 250.424 256.685L250.281 256.747C245.916 256.755 244.523 256.719 240.509 255.219C239.819 254.351 239.458 253.606 238.945 252.637L239.916 252.906C240.672 252.545 241.436 252.32 242.163 251.975C254.129 246.287 254.523 232.394 254.407 221.012C253.761 212.763 252.465 206.696 246.757 200.543C245.668 199.587 244.156 198.636 242.926 197.813C241.484 198.325 240.894 198.602 239.549 199.333Z" fill="#575656"/>
<path d="M239.549 199.333C241.034 195.887 247.185 195.571 250.427 195.83C256.632 196.325 263.113 200.897 265.547 206.679L265.758 206.603C266.4 203.944 262.261 198.676 260.196 197.132L261.08 196.454C275.576 206.461 275.039 235.264 266.695 249.151C265.256 251.546 262.483 252.389 260.49 254.04L258.762 254.946L258.406 254.308C258.96 252.606 262.614 251.947 263.412 250.323C263.075 249.349 263.268 248.976 263.578 247.972C262.63 249.284 261.401 250.231 260.169 251.285C259.573 250.553 261.74 249.435 261.755 247.99C262.179 246.561 264.485 243.745 265.157 242.234C265.731 240.945 265.977 239.683 266.241 238.303C267.091 234.871 267.56 231.355 267.642 227.82C268.048 225.683 267.635 221.462 267.343 219.302C266.816 218.699 266.804 218.423 266.69 217.656C266.584 217.555 266.479 217.455 266.373 217.355C263.319 217.437 257.586 216.854 254.79 216.932L254.627 216.937C254.344 218.455 255.102 219.248 254.406 221.012C253.761 212.763 252.465 206.696 246.756 200.543C245.668 199.587 244.156 198.636 242.926 197.813C241.484 198.325 240.894 198.602 239.549 199.333Z" fill="#292929"/>
<path d="M246.756 200.543C246.66 200.231 246.626 200.084 246.568 199.763C248.302 199.66 251.156 199.351 252.894 198.967C253.225 198.646 253.502 198.377 253.728 198.159C254.599 197.986 254.731 198.204 255.704 198.532L256.02 198.372C258.062 199.234 259.571 200.315 260.798 202.186C263.711 206.632 267.205 213.944 267.343 219.302C266.816 218.699 266.804 218.423 266.69 217.656C266.584 217.556 266.479 217.455 266.373 217.355C263.319 217.437 257.586 216.855 254.79 216.933L254.627 216.937C254.344 218.455 255.102 219.248 254.406 221.013C253.761 212.764 252.465 206.697 246.756 200.543Z" fill="#2B2B2B"/>
<path d="M239.549 199.333C241.034 195.887 247.185 195.571 250.427 195.83C256.632 196.325 263.113 200.897 265.547 206.679L265.594 206.86C266.138 208.887 267.572 211.159 268.077 213.2C268.627 215.422 268.945 217.678 269.115 219.957C269.18 220.828 269.135 223.001 269.249 223.698C269.321 226.318 269.418 228.577 269.009 231.189C268.67 233.36 267.918 235.786 267.602 237.876C266.623 241.83 265.588 244.388 263.578 247.972C262.63 249.284 261.401 250.231 260.169 251.285C259.573 250.553 261.74 249.435 261.755 247.99C262.179 246.561 264.485 243.745 265.157 242.234C265.731 240.945 265.977 239.683 266.241 238.303C267.091 234.871 267.56 231.355 267.642 227.82C268.048 225.683 267.635 221.462 267.343 219.302C267.205 213.943 263.711 206.631 260.798 202.186C259.571 200.315 258.062 199.234 256.02 198.371L255.704 198.531C254.731 198.204 254.599 197.985 253.727 198.159C253.502 198.377 253.225 198.646 252.894 198.966C251.156 199.351 248.302 199.659 246.568 199.762C246.626 200.084 246.66 200.231 246.756 200.543C245.668 199.587 244.156 198.636 242.926 197.813C241.484 198.325 240.894 198.602 239.549 199.333Z" fill="#161616"/>
<path d="M242.926 197.814C245.6 196.211 253.275 196.898 256.02 198.372L255.704 198.532C254.731 198.204 254.599 197.986 253.728 198.159C253.502 198.377 253.225 198.646 252.894 198.966C251.156 199.351 248.302 199.66 246.568 199.763C246.626 200.084 246.66 200.231 246.756 200.543C245.668 199.588 244.156 198.637 242.926 197.814Z" fill="#575656"/>
<path d="M267.603 237.877C270.394 239.458 267.898 239.859 268.252 242.79C267.291 245.665 265.628 248.255 263.412 250.323C263.075 249.349 263.268 248.977 263.579 247.973C265.589 244.388 266.623 241.83 267.603 237.877Z" fill="#A4A2A3"/>
<path d="M269.249 223.698C269.504 225.212 269.663 231.219 269.915 231.854C271.409 229.933 270.458 222.626 270.927 221.739C271.594 226.964 270.435 238.013 268.252 242.79C267.898 239.859 270.394 239.457 267.603 237.876C267.918 235.786 268.67 233.36 269.009 231.189C269.418 228.577 269.321 226.318 269.249 223.698Z" fill="#767676"/>
<path d="M238.945 252.637L239.916 252.907C242.312 255.036 246.804 254.823 249.874 254.653C250.083 254.64 250.293 254.623 250.501 254.602C251.538 254.859 252.591 255.256 253.616 255.311C252.366 256.333 251.982 256.313 250.424 256.685L250.281 256.747C245.916 256.756 244.523 256.719 240.509 255.22C239.819 254.352 239.458 253.606 238.945 252.637Z" fill="#303030"/>
<path d="M250.501 254.601C257.005 253.978 257.559 252.344 261.755 247.991C261.74 249.436 259.574 250.554 260.17 251.285C257.746 253.391 256.62 254.102 253.616 255.311C252.591 255.256 251.538 254.859 250.501 254.601Z" fill="#161616"/>
<path d="M266.241 238.304C265.698 238.11 265.886 238.257 265.575 237.738C266.027 236.519 265.689 235.811 265.987 234.717C266.55 232.653 267.277 231.749 267.244 229.477C267.234 228.767 267.101 225.905 267.383 225.478L267.702 225.798C267.509 226.571 267.584 227.03 267.642 227.82C267.561 231.355 267.091 234.871 266.241 238.304Z" fill="#7C7C7C"/>
<path d="M243.869 194.469C250.113 192.83 255.473 193.216 261.08 196.454L260.196 197.132C262.262 198.676 266.4 203.945 265.758 206.603L265.548 206.679C263.113 200.898 256.632 196.326 250.427 195.83C247.185 195.571 241.034 195.887 239.549 199.333C229.398 207.358 228.931 217.777 229.243 229.908C228.669 228.166 228.143 219.998 228.246 217.919C228.672 209.327 234.484 196.419 243.869 194.469Z" fill="#3A3939"/>
<path d="M243.868 194.469C250.112 192.83 255.473 193.216 261.079 196.454L260.196 197.132C256.875 194.787 251.717 194.488 247.782 194.804C246.36 194.918 245.042 195.288 243.868 194.469Z" fill="#161616"/>
<path d="M233.492 246.713C235.153 249.472 236.472 250.583 238.945 252.637C239.458 253.606 239.82 254.352 240.509 255.22C244.524 256.719 245.916 256.756 250.281 256.747L250.424 256.685C253.41 256.908 256.072 256.132 258.762 254.946L260.49 254.041L261.125 254.407C261.112 254.818 261.172 254.929 260.799 255.209C257.33 257.813 249.382 259.599 245.241 258.205C241.323 258.094 233.239 252.432 232.415 248.733L232.693 248.698L233.472 249.339L233.492 246.713Z" fill="#BAB9B9"/>
<path d="M260.49 254.041L261.124 254.407C261.112 254.818 261.172 254.928 260.798 255.209C257.329 257.812 249.382 259.599 245.24 258.205C246.474 257.711 247.857 258.846 248.306 257.458C247.649 256.986 246.544 257.353 245.325 257.082C246.431 256.67 248.874 257.396 250.281 256.747L250.423 256.685C253.41 256.908 256.072 256.131 258.762 254.946L260.49 254.041Z" fill="#DAD9DA"/>
<path d="M233.492 246.713C235.153 249.472 236.472 250.583 238.945 252.637C239.458 253.606 239.82 254.352 240.509 255.22C237.362 253.777 235.595 252.036 233.472 249.339L233.492 246.713Z" fill="#575656"/>
<path d="M260.17 251.285C261.401 250.231 262.63 249.284 263.579 247.973C263.268 248.977 263.075 249.349 263.412 250.323C262.614 251.948 258.961 252.606 258.406 254.308L258.762 254.946C256.072 256.131 253.41 256.908 250.424 256.685C251.982 256.313 252.367 256.333 253.616 255.311C256.62 254.102 257.746 253.391 260.17 251.285Z" fill="#575656"/>
<path d="M226.94 87.8753C228.874 87.5678 229.79 87.38 231.729 87.908C241.031 89.357 244.622 99.5447 240.452 107.439C237.875 112.317 235.562 117.641 232.787 122.403C232.211 123.977 230.65 126.836 229.847 128.41L223.603 140.569L202.213 182.837L173.907 238.482L163.416 258.979C161.434 262.856 159.535 266.775 157.413 270.527C154.133 276.328 147.207 278.218 140.993 276.746C140.863 276.716 140.763 276.652 140.68 276.604C140.555 276.602 140.431 276.595 140.306 276.588C130.173 276.045 121.126 273.332 121.816 261.159C122.032 259.791 122.409 258.398 122.991 257.142C123.184 256.27 127.851 247.9 128.609 246.455L149.649 206.426L193.539 121.864C196.444 116.273 199.317 110.666 202.157 105.041C203.531 102.335 206.702 95.6104 208.477 93.6315C211.614 90.4322 216.618 89.0315 220.982 88.9605C222.357 88.5793 225.437 88.1164 226.94 87.8753Z" fill="#494949"/>
<path d="M208.478 93.6314C211.614 90.4321 216.618 89.0314 220.982 88.9604L222.464 89.2079L222.632 89.47C222.216 90.0137 221.976 90.3075 221.494 90.8079L221.642 91.5929L221.125 92.2577C220.202 92.9112 219.503 94.098 219.217 95.1951C219.298 95.7229 219.372 95.9589 219.538 96.4677C216.12 102.531 212.829 109.455 209.633 115.709L191.369 151.452C190.455 153.24 184.926 164.66 183.998 165.599C172.721 187.999 160.773 210.326 149.254 232.653C146.527 238.028 143.765 243.384 140.968 248.722C139.637 251.219 138.27 253.739 136.914 256.22C135.597 258.631 135.232 259.443 135.237 262.231C134.807 262.668 134.736 262.947 134.499 263.506C133.993 263.29 133.971 263.282 133.426 263.258L133.335 263.144C133.096 263.307 132.907 263.284 132.616 263.301C132.11 262.638 132.257 262.583 132.149 261.618C132.019 261.946 131.987 261.92 131.679 262.11C129.535 261.906 124.732 261.539 122.928 260.859C121.756 259.33 123.583 258.625 122.991 257.142C123.185 256.27 127.851 247.9 128.609 246.455L149.649 206.426L193.539 121.864C196.444 116.273 199.317 110.666 202.157 105.041C203.531 102.335 206.702 95.6103 208.478 93.6314Z" fill="#424242"/>
<path d="M152.974 223.562C153.472 222.818 155.161 219.327 155.707 218.291C158.68 212.735 161.484 207.091 164.114 201.365C164.942 199.545 165.555 197.617 166.339 195.772C166.692 194.725 168.209 193.879 168.534 192.893C171.645 183.451 174.678 172.29 182.599 165.597C183.464 165.405 183.357 165.28 183.998 165.598C172.72 187.998 160.772 210.326 149.253 232.653C146.526 238.027 143.765 243.383 140.968 248.721C139.636 251.218 138.27 253.738 136.914 256.219C135.596 258.63 135.232 259.442 135.237 262.23C134.806 262.668 134.736 262.946 134.499 263.505C133.993 263.289 133.97 263.281 133.425 263.257L133.334 263.143C133.647 259.225 140.597 247.438 142.649 243.316C145.849 236.886 149.695 230.036 152.974 223.562Z" fill="#292829"/>
<path d="M132.149 261.618C132.315 260.528 132.676 259.616 132.381 258.723L131.753 258.475L131.779 258.328L133.185 258.459C134.253 257.998 136.964 251.834 137.663 250.51L146.721 233.184C148.351 230.048 150.161 226.34 151.919 223.318C152.307 223.382 152.594 223.46 152.974 223.562C149.695 230.036 145.849 236.887 142.649 243.316C140.597 247.439 133.647 259.225 133.334 263.143C133.096 263.306 132.907 263.284 132.616 263.3C132.109 262.637 132.256 262.582 132.149 261.618Z" fill="#8E8D8F"/>
<path d="M208.477 93.6314C211.614 90.4321 216.618 89.0314 220.982 88.9604L222.464 89.2079L222.631 89.47C222.216 90.0137 221.976 90.3075 221.494 90.8079C220.239 91.8936 211.158 93.691 209.061 94.0199L208.477 93.6314Z" fill="#575656"/>
<path d="M226.931 91.7967C228.252 90.5291 229.425 90.0805 231.292 90.1034C233.606 90.1367 235.822 91.0455 237.493 92.6468C239.127 93.8642 240.211 95.681 240.505 97.6976C241.015 101.042 240.008 103.286 238.771 106.237L207.561 167.824L197.066 188.463C195.888 190.763 193.385 196.047 192.114 198.072L191.877 198.044C191.798 197.453 204.602 172.746 206.099 169.842C207.109 167.883 209.843 163.37 210.29 161.45C210.824 159.153 198.87 152.462 197.644 150.418C197.383 149.982 197.559 149.709 197.677 149.244L197.459 149.005C196.922 149.689 194.976 153.789 194.346 154.99C191.086 161.182 187.874 167.399 184.711 173.641C184.21 174.625 182.541 178.339 182.075 178.91L181.923 178.815C182.342 177.298 185.419 171.514 186.34 169.728L196.092 150.882L215.349 113.481C217.554 109.163 224.225 94.6579 226.931 91.7967Z" fill="#8A8989"/>
<path d="M226.931 91.7967C228.252 90.5291 229.425 90.0805 231.292 90.1034C233.606 90.1367 235.822 91.0455 237.493 92.6468C237.805 93.1522 237.963 93.3622 238.111 93.9484C237.733 93.958 236.167 92.3941 234.816 91.8656C232.153 90.8252 228.198 92.5375 226.931 91.7967Z" fill="#BAB9B9"/>
<path d="M238.771 106.237L238.95 106.614C234.223 116.496 187.318 207.948 187.311 208.382C188.583 208.398 189.468 206.561 189.931 205.792C194.02 198.996 231.457 122.815 232.646 122.285L232.787 122.403C232.211 123.977 230.65 126.836 229.847 128.41L223.603 140.568L202.213 182.836L173.907 238.481L163.416 258.978C161.434 262.856 159.535 266.775 157.413 270.527C154.133 276.327 147.207 278.218 140.993 276.745C140.863 276.715 140.763 276.652 140.68 276.604C140.555 276.601 140.431 276.594 140.306 276.588C130.173 276.044 121.126 273.331 121.816 261.158C122.032 259.791 122.409 258.397 122.991 257.142C123.583 258.625 121.756 259.329 122.928 260.859C124.731 261.539 129.535 261.905 131.679 262.11C131.987 261.92 132.019 261.946 132.149 261.618C132.257 262.582 132.11 262.637 132.616 263.3C132.907 263.284 133.096 263.307 133.335 263.143L133.426 263.257C133.97 263.281 133.993 263.289 134.499 263.505C135.34 264.233 135.446 264.418 135.996 265.398C136.175 265.64 136.276 265.902 136.407 266.178C136.199 267.019 136.298 267.635 136.045 268.436L136.237 268.731C137.571 266.87 137.592 268.707 138.844 268.665C139.576 267.634 138.012 264.357 138.501 263.038C138.751 264.142 138.653 265.242 139.024 266.395C139.816 268.848 141.235 270.701 143.538 271.926C145.722 273.088 148.862 273.086 151.198 272.409C152.889 271.918 155.156 269.918 156.12 268.457C157.901 265.753 159.372 262.531 160.843 259.619L168.722 243.97C176.623 228.724 184.421 213.425 192.113 198.072C193.385 196.048 195.888 190.763 197.066 188.463L207.561 167.824L238.771 106.237Z" fill="#161616"/>
<path d="M122.991 257.142C123.583 258.625 121.756 259.329 122.928 260.859C124.731 261.539 129.535 261.906 131.679 262.11C131.987 261.92 132.019 261.946 132.149 261.618C132.257 262.583 132.11 262.638 132.616 263.301C132.907 263.284 133.096 263.307 133.335 263.144L133.426 263.258C133.429 264.245 133.568 266.348 133.121 267.033L132.742 266.923L131.96 267.083C132.859 267.577 132.692 267.333 133.181 268.147C133.158 271.201 133.62 270.516 135.252 272.692C136.338 274.139 140.065 275.86 140.68 276.604C140.555 276.602 140.431 276.595 140.306 276.588C130.173 276.045 121.126 273.331 121.816 261.158C122.032 259.791 122.409 258.398 122.991 257.142Z" fill="#303030"/>
<path d="M122.991 257.142C123.583 258.625 121.756 259.329 122.928 260.859C124.731 261.539 129.535 261.906 131.679 262.11C131.987 261.92 132.019 261.946 132.149 261.618C132.257 262.583 132.11 262.638 132.616 263.301C132.907 263.284 133.096 263.307 133.335 263.144L133.426 263.258C133.429 264.245 133.568 266.348 133.121 267.033L132.742 266.923C132.455 262.317 129.963 262.874 125.959 262.418C124.893 262.297 122.924 261.88 122.14 261.873L121.816 261.158C122.032 259.791 122.409 258.398 122.991 257.142Z" fill="#575656"/>
<path d="M136.18 269.186C139.952 272.442 143.302 274.594 148.525 274.622C149.506 274.629 150.546 274.26 151.274 274.599L151.146 275.124C146.663 276.573 141.964 276.464 138.289 273.082C137.458 272.318 136.187 270.353 136.18 269.186Z" fill="#575656"/>
<path d="M221.125 92.2576L221.513 92.4096C222.197 92.4009 224.093 91.1715 224.963 90.7368C224.656 91.4331 223.942 92.8897 223.289 93.2846C221.395 96.5371 219.439 100.724 217.736 104.136C214.914 109.806 212.054 115.456 209.157 121.087C198.511 142.142 187.751 163.14 176.878 184.079L151.356 233.411L142.245 250.96C140.98 253.374 138.511 257.605 137.556 259.897C137.06 260.72 136.602 261.667 135.796 262.158L135.237 262.231C135.232 259.443 135.596 258.631 136.914 256.22C138.27 253.739 139.636 251.219 140.968 248.722C143.765 243.384 146.527 238.028 149.253 232.653C160.772 210.326 172.721 187.998 183.998 165.599C184.926 164.66 190.455 153.24 191.369 151.452L209.632 115.709C212.829 109.455 216.12 102.531 219.538 96.4677C219.372 95.9588 219.298 95.7228 219.217 95.195C219.503 94.0979 220.202 92.9111 221.125 92.2576Z" fill="#BAB9B9"/>
<path d="M221.125 92.2576L221.513 92.4096C222.196 92.4009 224.093 91.1715 224.963 90.7368C224.656 91.4331 223.941 92.8897 223.288 93.2846C221.696 92.9168 220.389 95.3217 219.538 96.4677C219.372 95.9588 219.298 95.7228 219.216 95.195C219.503 94.0979 220.202 92.9111 221.125 92.2576Z" fill="#575656"/>
<path d="M226.939 87.8753C228.874 87.5678 229.789 87.38 231.729 87.908C229.204 89.7006 227.698 89.5502 224.963 90.737C224.093 91.1716 222.197 92.4011 221.513 92.4098L221.125 92.2577L221.642 91.593L221.494 90.808C221.976 90.3076 222.216 90.0138 222.631 89.47L222.464 89.208L220.982 88.9605C222.356 88.5793 225.437 88.1164 226.939 87.8753Z" fill="#848486"/>
<path d="M220.982 88.9602C222.356 88.579 225.437 88.1161 226.939 87.875C225.028 89.3129 223.597 89.9576 221.642 91.5927L221.494 90.8077C221.976 90.3073 222.216 90.0135 222.631 89.4697L222.464 89.2077L220.982 88.9602Z" fill="#575656"/>
<path d="M137.556 259.897L137.507 260.116C137.135 261.832 137.449 263.626 136.571 265.133L135.996 265.398C135.446 264.419 135.34 264.233 134.499 263.506C134.736 262.947 134.807 262.668 135.237 262.231L135.796 262.159C136.602 261.668 137.06 260.72 137.556 259.897Z" fill="#303030"/>
<path d="M207.871 187.247C216.014 179.756 223.747 177.578 234.49 176.701C235.889 176.981 241.792 177.21 241.802 177.22C241.112 177.794 241.068 178.059 240.376 178.007L238.981 178.426C237.256 178.913 235.569 179.373 233.877 179.973L233.61 179.362C228.267 181.216 223.394 184.214 219.331 188.147C219.46 187.392 220.137 186.91 220.718 186.36L220.551 186.274C216.813 187.804 210.151 186.695 207.871 187.247Z" fill="#6D6C6D"/>
<path d="M233.609 179.362C234.963 178.82 239.116 177.418 240.376 178.007L238.981 178.426C237.255 178.913 235.569 179.373 233.876 179.973L233.609 179.362Z" fill="#303030"/>
<defs>
<filter id="filter0_i_1743_7814" x="0" y="0" width="362" height="362" filterUnits="userSpaceOnUse" color-interpolation-filters="sRGB">
<feFlood flood-opacity="0" result="BackgroundImageFix"/>
<feBlend mode="normal" in="SourceGraphic" in2="BackgroundImageFix" result="shape"/>
<feColorMatrix in="SourceAlpha" type="matrix" values="0 0 0 0 0 0 0 0 0 0 0 0 0 0 0 0 0 0 127 0" result="hardAlpha"/>
<feOffset/>
<feGaussianBlur stdDeviation="18.191"/>
<feComposite in2="hardAlpha" operator="arithmetic" k2="-1" k3="1"/>
<feColorMatrix type="matrix" values="0 0 0 0 1 0 0 0 0 1 0 0 0 0 1 0 0 0 0.1 0"/>
<feBlend mode="normal" in2="shape" result="effect1_innerShadow_1743_7814"/>
</filter>
<filter id="filter1_i_1743_7814" x="48.1151" y="48.1151" width="247.488" height="247.488" filterUnits="userSpaceOnUse" color-interpolation-filters="sRGB">
<feFlood flood-opacity="0" result="BackgroundImageFix"/>
<feBlend mode="normal" in="SourceGraphic" in2="BackgroundImageFix" result="shape"/>
<feColorMatrix in="SourceAlpha" type="matrix" values="0 0 0 0 0 0 0 0 0 0 0 0 0 0 0 0 0 0 127 0" result="hardAlpha"/>
<feMorphology radius="16.3719" operator="dilate" in="SourceAlpha" result="effect1_innerShadow_1743_7814"/>
<feOffset dx="-51.8442" dy="-38.201"/>
<feGaussianBlur stdDeviation="17.3269"/>
<feComposite in2="hardAlpha" operator="arithmetic" k2="-1" k3="1"/>
<feColorMatrix type="matrix" values="0 0 0 0 0.283654 0 0 0 0 0.283654 0 0 0 0 0.283654 0 0 0 0.1 0"/>
<feBlend mode="normal" in2="shape" result="effect1_innerShadow_1743_7814"/>
</filter>
</defs>
</svg>
