<svg width="362" height="362" viewBox="0 0 362 362" fill="none" xmlns="http://www.w3.org/2000/svg">
<path d="M116.924 84.5982C122.81 82.6832 133.19 82.9818 139.314 84.2321C153.398 86.3735 165.815 97.1175 170.761 110.308C171.041 111.054 171.308 111.727 171.501 112.503C172.273 114.379 173.447 117.98 173.642 119.968C175.44 124.595 176.208 139.915 174.869 144.583C174.21 149.793 173.104 154.599 171.044 159.47C169.779 163.311 167.045 167.524 164.593 170.646C155.171 182.636 140.829 186.237 126.206 185.434C125.589 185.4 124.925 185.443 124.31 185.339C112.423 185.652 102.676 184.395 92.7625 177.025C83.7559 170.33 77.6151 158.067 76.0697 147.04C74.6161 141.313 74.7516 127.039 76.2884 121.37C76.6237 117.331 80.3064 107.081 82.9238 104.006C83.3528 103.096 84.6084 101.317 85.2253 100.495C91.4563 92.192 101.444 86.9725 111.647 85.5456C113.393 85.1968 115.16 84.8185 116.924 84.5982ZM112.669 119.914C110.732 128.214 110.843 133.278 111.395 141.656C112.044 145.664 112.656 148.367 114.232 152.213C116.538 156.558 120.4 162.726 125.915 163.255C130.064 161.438 131.661 160.015 134.288 156.463C135.904 153.854 136.618 151.881 137.676 149.034C139.306 141.991 139.857 135.75 138.762 128.564C138.443 127.222 138.248 125.419 137.905 123.895C136.863 119.277 134.99 114.615 131.691 111.131C131.033 110.436 129.064 108.992 128.197 108.295C126.522 107.509 124.821 106.779 123.096 106.108C116.648 108.575 115.082 114.327 112.669 119.914Z" fill="#676666"/>
<path d="M116.924 84.5982C122.81 82.6832 133.19 82.9818 139.314 84.2321C136.935 84.9744 136.822 84.8297 134.744 85.2974L136.527 85.8451L136.618 86.0215C135.994 86.1701 133.429 85.9788 132.442 86.0115C131.689 86.0274 130.889 86.0094 130.132 86.0046C129.148 86.0521 127.305 86.0884 126.403 86.2596L122.989 86.4016C121.077 86.7362 118.655 87.146 116.895 88.0007C94.2355 99.0508 88.4656 122.199 92.2698 145.466C96.3532 170.441 116.405 185.303 141.457 180.845C152.864 178.816 164.252 170.985 168.795 160.03C168.893 159.668 169.996 157.098 170.242 156.441C171.701 152.537 172.903 149.133 173.608 145.006C174.224 144.895 174.312 144.759 174.761 144.307L174.869 144.583C174.21 149.793 173.104 154.599 171.044 159.47C169.779 163.311 167.045 167.524 164.593 170.646C155.171 182.636 140.829 186.237 126.206 185.434C125.589 185.4 124.925 185.443 124.31 185.339C112.423 185.652 102.676 184.395 92.7625 177.025C83.7559 170.33 77.6151 158.067 76.0697 147.04C74.6161 141.313 74.7516 127.039 76.2884 121.37C76.6237 117.331 80.3064 107.081 82.9238 104.006C83.3528 103.096 84.6084 101.317 85.2253 100.495C91.4563 92.192 101.444 86.9725 111.647 85.5456C113.393 85.1968 115.16 84.8185 116.924 84.5982Z" fill="#292929"/>
<path d="M76.0694 147.04C76.5876 145.691 75.882 145.075 75.8877 143.438C77.0948 142.419 83.0442 142.524 84.8541 142.558C85.4959 143.603 85.8037 144.059 86.6012 144.986L87.0236 144.936L87.0572 145.051C87.6845 147.292 87.8078 150.835 88.4225 152.695C90.2861 158.332 92.7234 166.34 96.7413 170.715C102.389 176.866 110.08 181.515 118.059 183.768C119.346 184.131 123.609 184.578 124.295 185.186L124.31 185.339C112.422 185.651 102.676 184.395 92.7622 177.025C83.7557 170.329 77.6149 158.067 76.0694 147.04Z" fill="#454445"/>
<path d="M82.924 104.006C83.353 103.095 84.6086 101.317 85.2255 100.495C91.4565 92.1919 101.444 86.9724 111.648 85.5454L111.57 86.0652L108.578 88.0567L109.032 88.4299C105.638 90.2944 98.2899 94.946 97.8596 99.1205C96.1023 101.361 94.8758 103.176 93.5125 105.707C93.1226 106.431 92.2296 108.351 91.8696 108.9C91.8425 108.536 91.9865 107.855 92.042 107.449L91.5528 107.431L90.8912 107.881L90.4952 107.762C89.791 109.032 88.4615 112.375 88.1647 113.788C87.7337 115.041 87.2345 116.29 87.0971 117.603L86.6613 117.214C85.8136 117.369 85.5558 118.244 84.5549 118.605C82.9535 119.182 78.1521 119.605 77.0614 120.427C76.8774 120.723 76.6998 121.023 76.5285 121.327L76.2886 121.37C76.6239 117.331 80.3066 107.081 82.924 104.006Z" fill="#525151"/>
<path d="M82.9238 104.006C83.3529 103.095 84.6085 101.317 85.2253 100.495C91.4563 92.1919 101.444 86.9724 111.647 85.5454L111.57 86.0652L108.578 88.0567C106.202 89.3377 105.05 89.9899 102.932 91.4557C101.009 92.7861 95.3354 98.8484 94.3209 99.2029L94.4054 99.0577C92.1968 100.381 89.6189 101.96 87.2506 102.92C85.0713 103.803 84.8808 101.821 83.3583 103.909L82.9238 104.006Z" fill="#676666"/>
<path d="M76.2884 121.37L76.5283 121.327C76.6996 121.024 76.8772 120.723 77.0612 120.427C78.1519 119.605 82.9533 119.183 84.5547 118.605C85.5556 118.244 85.8134 117.369 86.6611 117.214L87.0969 117.603C85.2895 123.759 84.6943 134.536 85.8048 140.902C86.266 141.494 86.0269 141.327 86.6953 141.576L87.0239 144.936L86.6014 144.986C85.8039 144.06 85.4961 143.604 84.8543 142.558C83.0444 142.524 77.095 142.42 75.888 143.439C75.8822 145.076 76.5878 145.692 76.0697 147.04C74.6161 141.313 74.7516 127.039 76.2884 121.37Z" fill="#7C7C7C"/>
<path d="M116.924 84.5982C122.81 82.6832 133.19 82.9818 139.314 84.2321C136.935 84.9744 136.822 84.8297 134.744 85.2974L136.527 85.8451L136.618 86.0215C135.994 86.1701 133.429 85.9788 132.442 86.0115C131.689 86.0274 130.889 86.0094 130.132 86.0046C129.179 85.2919 125.255 85.5106 123.847 85.523C119.54 85.9275 114.307 87.6461 110.438 89.5488C109.033 90.6523 105.854 94.0719 104.702 94.5544C103.656 93.684 102.919 94.6419 101.847 95.3456C101.215 96.2272 98.7985 98.1753 97.8594 99.1206C98.2897 94.9462 105.638 90.2946 109.031 88.43L108.578 88.0568L111.57 86.0653L111.647 85.5456C113.393 85.1968 115.16 84.8185 116.924 84.5982Z" fill="#8C8C8D"/>
<path d="M101.847 95.3452L101.908 94.7873C103.325 92.4089 107.911 90.414 110.438 89.5483C109.033 90.6518 105.854 94.0714 104.702 94.554C103.656 93.6835 102.919 94.6414 101.847 95.3452Z" fill="#575656"/>
<path d="M111.647 85.545C113.393 85.1962 115.16 84.8179 116.925 84.5977C114.572 85.682 111.189 87.5525 109.031 88.4295L108.578 88.0563L111.57 86.0648L111.647 85.545Z" fill="#575656"/>
<path d="M123.847 85.5222C125.3 85.3035 131.375 85.1177 132.566 85.687L132.561 85.924L132.442 86.0107C131.689 86.0267 130.889 86.0087 130.132 86.0039C129.179 85.2912 125.255 85.5099 123.847 85.5222Z" fill="#575656"/>
<path d="M101.847 95.3456C102.919 94.6419 103.656 93.684 104.702 94.5544C98.3837 100.323 93.7148 108.899 91.7238 117.127C91.4453 118.277 90.7646 120.641 90.6235 121.772L90.4438 121.939C90.145 122.309 89.6711 123.07 89.3901 123.496L89.3726 122.251C89.0794 122.358 88.8674 122.424 88.5718 122.509L88.4521 121.321C88.9909 118.934 89.0283 117.539 89.8533 114.895C90.3694 113.241 91.5482 110.265 91.8692 108.9C92.2292 108.351 93.1222 106.431 93.5121 105.707C94.8754 103.176 96.1019 101.361 97.8591 99.1206C98.7983 98.1753 101.215 96.2272 101.847 95.3456Z" fill="#C4C4C4"/>
<path d="M88.1645 113.788L88.8461 114.709C86.4473 122.505 85.8831 133.467 86.6953 141.576C86.0269 141.326 86.266 141.494 85.8047 140.902C84.6942 134.536 85.2895 123.759 87.0969 117.603C87.2343 116.29 87.7335 115.041 88.1645 113.788Z" fill="#A7A7A8"/>
<path d="M88.4523 121.32L88.5719 122.509C88.8675 122.424 89.0796 122.358 89.3727 122.251L89.3903 123.495C89.6713 123.07 90.1452 122.308 90.444 121.938L90.6236 121.772C90.5529 122.914 89.5763 136.741 89.7621 136.487C89.7037 135.875 89.7331 133.976 89.5286 133.663L88.4941 133.657C88.2977 134.133 88.2964 134.258 88.2249 134.774C87.4228 133.886 87.5317 127.59 87.8398 126.173C87.956 124.601 88.2299 122.894 88.4523 121.32Z" fill="#575656"/>
<path d="M88.4528 121.32L88.5724 122.509C88.868 122.424 89.0801 122.358 89.3732 122.251L89.3908 123.495C89.6718 123.07 90.1457 122.308 90.4445 121.938C90.1979 123.267 89.1209 127.028 88.4804 128.185L88.1551 128.291C87.7725 127.655 87.849 126.93 87.8403 126.173C87.9565 124.601 88.2304 122.894 88.4528 121.32Z" fill="#7C7C7C"/>
<path d="M173.608 145.006C174.224 144.895 174.312 144.759 174.761 144.308L174.87 144.584C174.211 149.793 173.104 154.599 171.044 159.47C170.993 159.277 170.932 159.045 170.861 158.776C171.707 157.063 172.514 153.499 173.196 151.915L172.952 151.454L172.453 151.476C171.944 153.062 169.942 159.269 168.795 160.03C168.893 159.668 169.997 157.098 170.242 156.441C171.701 152.537 172.904 149.133 173.608 145.006Z" fill="#575656"/>
<path d="M88.1646 113.788C88.4613 112.375 89.7908 109.033 90.495 107.762L90.8911 107.882L91.5526 107.432C90.6002 109.518 89.4105 112.473 88.8462 114.71L88.1646 113.788Z" fill="#7C7C7C"/>
<path d="M101.621 171.359C102.46 171.642 106.048 174.781 107.149 175.444C109.667 176.959 112.09 178.203 114.814 179.316C121.019 181.887 127.715 183.054 134.424 182.735C137.531 182.59 139.641 182.078 142.795 182.581C141.301 183.572 132.29 183.895 130.307 183.809C122.981 183.739 115.401 182.615 109.099 178.658C107.472 177.636 102.67 174.331 101.834 172.707C102.669 172.919 102.892 173.917 103.554 174.314C105.244 175.329 106.75 176.657 108.329 177.862C109.08 177.792 108.843 177.918 109.294 177.459C109.025 176.627 107.4 175.911 106.593 175.361C104.798 174.136 103.129 172.933 101.621 171.359Z" fill="#575656"/>
<path d="M139.314 84.2319C153.398 86.3734 165.815 97.1174 170.761 110.308C171.041 111.054 171.308 111.727 171.501 112.503L170.928 113.444C170.619 112.491 169.95 110.677 169.165 110.044C167.945 107.16 164.971 102.383 163.027 99.9327C156.784 92.0657 146.771 87.0212 136.781 86.3245C133.455 86.0926 129.552 86.6094 126.403 86.2595C127.305 86.0883 129.148 86.052 130.132 86.0045C130.889 86.0093 131.689 86.0273 132.442 86.0113C133.429 85.9787 135.994 86.17 136.618 86.0214L136.527 85.8449L134.744 85.2973C136.822 84.8296 136.935 84.9743 139.314 84.2319Z" fill="#59595A"/>
<path d="M122.989 86.4018L126.404 86.2598C129.552 86.6097 133.455 86.0929 136.781 86.3248C146.772 87.0215 156.784 92.0659 163.027 99.933C164.972 102.383 167.946 107.16 169.165 110.044C168.993 110.553 168.989 110.687 168.621 111.052C162.695 95.8747 148.297 87.2564 132.373 86.6985C129.508 86.5981 124.894 87.6166 122.989 86.4018Z" fill="#BAB9B9"/>
<path d="M173.642 119.968C175.44 124.595 176.208 139.915 174.869 144.583L174.761 144.307C174.836 140.622 174.925 138.976 174.406 135.315C175.287 128.705 174.268 125.99 173.642 119.968Z" fill="#161616"/>
<path d="M169.165 110.044C169.95 110.677 170.619 112.491 170.928 113.444C171.335 114.167 171.883 115.312 171.467 116.125L171.054 116.113C169.897 115.14 168.547 112.464 168.621 111.051C168.989 110.686 168.993 110.552 169.165 110.044Z" fill="#7C7C7C"/>
<path d="M174.406 135.315C174.925 138.975 174.836 140.621 174.761 144.307C174.312 144.758 174.224 144.895 173.608 145.005C173.604 143.293 174.266 137.743 174.406 135.315Z" fill="#7C7C7C"/>
<path d="M112.669 119.914L112.691 119.811C113.04 118.034 112.204 117.742 112.419 116.784C114.96 105.472 125.149 98.342 136.654 100.727C142.573 101.954 147.095 105.113 150.38 110.113C152.414 113.201 154.89 119.307 155.181 122.915C156.055 126.308 156.329 132.555 156.114 136.207C156.337 146.821 152.839 161.828 141.283 165.349L141.365 165.752C139.351 168.645 129.34 167.946 126.192 166.879C119.535 164.623 116.004 160.762 112.827 154.7C113.575 154.471 113.271 154.469 113.987 154.663C114.28 155.125 114.552 155.525 114.866 155.971L114.232 152.213C116.538 156.558 120.4 162.726 125.915 163.255C130.064 161.438 131.661 160.015 134.288 156.463C135.904 153.854 136.618 151.881 137.676 149.034C139.306 141.991 139.857 135.75 138.762 128.564C138.443 127.222 138.248 125.419 137.905 123.895C136.863 119.277 134.99 114.615 131.691 111.131C131.033 110.436 129.064 108.992 128.197 108.295C126.522 107.509 124.821 106.779 123.096 106.108C116.649 108.575 115.082 114.327 112.669 119.914Z" fill="#303030"/>
<path d="M156.114 136.207C156.337 146.82 152.839 161.828 141.283 165.349L141.365 165.752C139.351 168.645 129.34 167.946 126.192 166.879C119.535 164.623 116.004 160.762 112.827 154.7C113.575 154.471 113.271 154.469 113.987 154.663C114.28 155.124 114.552 155.525 114.866 155.971L114.232 152.213C116.538 156.558 120.4 162.725 125.915 163.255C130.064 161.438 131.661 160.015 134.288 156.463C135.904 153.854 136.618 151.881 137.676 149.034L137.688 149.215C137.736 149.977 137.713 150.186 137.58 150.931L137.774 150.889C138.768 150.682 146.909 150.049 148.112 150.043L148.18 149.558C148.662 150.226 148.576 150.268 149.244 150.444C148.785 152.418 148.367 153.513 146.999 155.117L147.25 155.742C147.744 155.67 147.863 155.536 148.288 155.245C149.742 152.642 150.383 150.242 151.427 147.487C152.012 146.751 151.867 146.674 152.588 146.531C153.23 147.337 152.603 149.396 152.632 150.499C153.908 147.897 154.866 140.581 155.112 137.528C155.418 136.779 155.477 136.707 156.114 136.207Z" fill="#242425"/>
<path d="M137.676 149.034L137.688 149.215C137.736 149.977 137.713 150.185 137.58 150.93L137.773 150.889C138.768 150.681 146.909 150.049 148.111 150.042L148.179 149.557C148.661 150.225 148.576 150.268 149.243 150.444C148.785 152.418 148.367 153.513 146.998 155.117C146.468 155.461 143.631 159.276 142.791 159.861C140.582 158.554 136.215 158.552 134.364 157.359L134.287 156.462C135.904 153.854 136.618 151.881 137.676 149.034Z" fill="#575656"/>
<path d="M114.232 152.212C116.538 156.557 120.4 162.725 125.915 163.255C127.881 164.149 130.185 164.003 132.322 164.133C132.972 164.291 134.004 164.472 134.507 164.844L134.824 164.877L135.036 165.362C135.692 165.563 136.18 165.528 136.856 165.526C136.422 165.636 135.501 165.79 135.235 166.041C136.007 166.246 136.917 166.19 137.727 166.181C139.005 166.001 140.046 165.69 141.283 165.349L141.365 165.751C139.351 168.645 129.34 167.946 126.192 166.879C119.535 164.623 116.004 160.762 112.827 154.7C113.575 154.471 113.271 154.469 113.987 154.663C114.28 155.124 114.552 155.524 114.866 155.971L114.232 152.212Z" fill="#C7C5C3"/>
<path d="M114.232 152.212C116.537 156.557 120.4 162.725 125.915 163.255C127.88 164.149 130.185 164.003 132.322 164.133C132.972 164.291 134.004 164.472 134.507 164.844C131.762 165.154 131.421 165.895 129.448 166.278C123.788 165.197 117.01 161.664 114.866 155.971L114.232 152.212Z" fill="#303030"/>
<path d="M134.508 164.844L134.824 164.877L135.036 165.363C135.693 165.563 136.181 165.528 136.856 165.526C136.422 165.636 135.502 165.791 135.235 166.041C136.007 166.246 136.918 166.19 137.728 166.181C134.944 166.926 132.261 166.59 129.448 166.278C131.422 165.895 131.762 165.154 134.508 164.844Z" fill="#575656"/>
<path d="M134.287 156.462L134.364 157.36C136.216 158.552 140.582 158.554 142.792 159.862C140.316 162.942 136.124 163.97 132.322 164.133C130.185 164.003 127.88 164.149 125.915 163.255C130.064 161.438 131.661 160.015 134.287 156.462Z" fill="#6B6A6B"/>
<path d="M142.792 159.862C143.632 159.276 146.468 155.461 146.999 155.117L147.251 155.742C147.744 155.67 147.863 155.536 148.288 155.245L146.83 157.953C146.418 158.514 145.76 159.474 145.329 159.97C144.128 160.728 142.867 161.489 141.733 162.337L142.226 163.616C140.647 164.23 138.443 165.156 136.856 165.526C136.18 165.528 135.693 165.563 135.036 165.362L134.824 164.877L134.508 164.844C134.004 164.472 132.972 164.291 132.322 164.133C136.124 163.97 140.317 162.942 142.792 159.862Z" fill="#161516"/>
<path d="M141.733 162.337L142.226 163.616C140.647 164.23 138.443 165.156 136.856 165.526C136.18 165.528 135.693 165.563 135.036 165.362L134.824 164.877C136.917 164.795 139.925 163.308 141.733 162.337Z" fill="#7C7C7C"/>
<path d="M151.427 147.488C152.012 146.751 151.867 146.674 152.588 146.532C153.231 147.337 152.603 149.396 152.632 150.499C151.938 153.307 150.445 156.494 148.714 158.812C147.85 158.631 147.403 158.617 146.83 157.953L148.288 155.245C149.742 152.642 150.383 150.242 151.427 147.488Z" fill="#BBBABB"/>
<path d="M141.733 162.337C142.867 161.489 144.128 160.728 145.328 159.97C145.616 160.757 145.656 161.03 146.33 161.53C145.327 162.463 143.649 163.643 142.225 163.616L141.733 162.337Z" fill="#7C7C7C"/>
<path d="M146.83 157.953C147.403 158.616 147.849 158.63 148.714 158.812C147.848 159.905 147.326 160.533 146.331 161.529C145.656 161.03 145.616 160.757 145.329 159.97C145.76 159.474 146.418 158.514 146.83 157.953Z" fill="#BAB9B9"/>
<path d="M138.762 128.564C138.957 127.973 138.946 127.428 138.979 126.805C140.066 125.576 147.225 124.809 150.017 122.909C151.627 133.751 152.221 139.31 149.244 150.444C148.576 150.268 148.662 150.226 148.18 149.558L148.112 150.043C146.909 150.049 138.768 150.682 137.774 150.889L137.58 150.931C137.713 150.186 137.736 149.978 137.688 149.216L137.676 149.034C139.306 141.991 139.858 135.75 138.762 128.564Z" fill="#7C7C7C"/>
<path d="M123.096 106.108C126.611 104.042 132.463 104.173 136.26 105.135C137.066 105.05 138.902 105.82 139.609 106.232C145.227 109.507 148.876 116.99 150.017 122.909C147.225 124.809 140.066 125.576 138.979 126.804C138.946 127.428 138.957 127.973 138.762 128.564C138.443 127.222 138.248 125.418 137.905 123.895C136.863 119.277 134.99 114.615 131.691 111.131C131.033 110.436 129.064 108.991 128.197 108.295C126.522 107.508 124.821 106.779 123.096 106.108Z" fill="#3B3B3B"/>
<path d="M123.096 106.108C126.611 104.042 132.463 104.173 136.26 105.135L136.334 105.403C134.428 105.036 133.288 104.439 131.433 105.789L131.426 106.055C132.261 106.218 132.983 106.375 133.807 106.586C132.956 107.251 128.351 106.743 127.532 107.144C127.597 108.022 128.126 107.527 128.197 108.295C126.522 107.508 124.821 106.779 123.096 106.108Z" fill="#575656"/>
<path d="M155.181 122.915C156.054 126.308 156.329 132.556 156.114 136.207C155.477 136.708 155.417 136.779 155.112 137.528C154.866 140.581 153.908 147.897 152.632 150.499C152.602 149.396 153.23 147.337 152.588 146.532C151.867 146.674 152.012 146.751 151.427 147.487C152.606 142.29 153.079 136.844 152.948 131.503C152.901 129.595 152.361 127.593 152.407 125.672C152.975 128.135 153.284 130.966 153.621 133.494C154.113 133.469 153.972 133.461 154.442 133.07C155.138 131.39 154.511 128.253 154.534 126.136C154.402 125.994 154.429 125.915 154.37 125.669L154.716 125.128L154.815 125.174C155.373 124.395 155.246 123.893 155.181 122.915Z" fill="#6F6F6F"/>
<path d="M155.18 122.915C156.054 126.308 156.329 132.556 156.114 136.207C155.477 136.708 155.417 136.779 155.112 137.528C155.287 135.008 155.354 128.288 154.534 126.136C154.402 125.994 154.429 125.915 154.37 125.669L154.715 125.128L154.815 125.174C155.373 124.395 155.246 123.893 155.18 122.915Z" fill="#111312"/>
<path d="M112.827 154.699C111.011 151.979 108.564 142.335 109.104 139.51C109.619 140.098 109.291 145.114 110.542 146.598L110.936 146.624C112.012 145.303 110.515 141.701 110.782 140.049L111.395 141.656C112.044 145.664 112.656 148.367 114.232 152.212L114.866 155.97C114.552 155.524 114.28 155.124 113.987 154.663C113.271 154.468 113.575 154.471 112.827 154.699Z" fill="#7C7C7C"/>
<path d="M234.613 176.562C237.948 176.283 241.144 176.535 244.358 176.461C255.626 176.201 265.557 177.884 274.385 185.348C275.634 186.404 279.71 190.25 280.171 191.711C281.732 193.437 283.34 196.461 284.355 198.576C289.899 210.125 291.597 229.087 287.835 241.338C283.415 260.051 269.348 274.696 249.426 275.517C247.234 275.607 245.013 275.545 242.819 275.495C240.357 275.355 237.559 274.876 235.142 274.39C223.635 272.815 215.771 272.511 206.918 263.475C206.906 263.467 206.894 263.458 206.882 263.449C197.713 254.6 194.555 241.123 193.82 229.094C193.493 221.498 194.934 208.031 198.438 201.321C199.822 196.984 204.418 190.057 207.993 187.108C210.273 186.557 216.935 187.666 220.674 186.135L220.841 186.221C220.259 186.771 219.583 187.254 219.453 188.009C223.517 184.076 228.39 181.077 233.732 179.223L233.999 179.835C235.692 179.234 237.378 178.774 239.104 178.288L240.499 177.868C241.191 177.921 241.234 177.655 241.924 177.082C241.914 177.071 236.012 176.843 234.613 176.562ZM239.672 199.194C229.521 207.22 229.054 217.638 229.366 229.769C229.958 235.978 230.341 241.049 233.615 246.574C235.276 249.333 236.595 250.444 239.068 252.498L240.039 252.768C240.795 252.406 241.559 252.182 242.286 251.836C254.252 246.149 254.646 232.256 254.53 220.874C253.884 212.624 252.588 206.558 246.88 200.404C245.792 199.449 244.28 198.498 243.049 197.675C241.607 198.187 241.017 198.464 239.672 199.194Z" fill="#6A6A6A"/>
<path d="M233.732 179.223L233.999 179.834C230.436 181.275 228.319 182.467 225.086 184.57C225.207 185.073 225.191 185.177 225.548 185.517C224.097 187.044 223.571 189.229 222.059 190.171L221.159 191.212C216.1 197.245 213.781 202.278 211.497 209.778C210.492 214.314 210.437 217.3 210.01 221.875C209.988 224.052 210.076 233.784 210.783 235.356L211.015 235.563L210.779 234.673C211.485 235.091 211.5 235.269 211.649 236.057L211.834 236.014L211.936 235.844L212.157 236.239C212.181 236.265 212.205 236.291 212.227 236.318C212.46 236.594 212.528 236.777 212.609 237.126C213.127 239.368 225.424 249.498 227.821 251.657C230.035 253.651 232.238 255.755 234.329 257.875C235.819 259.386 237.069 261.161 238.416 262.799C240.672 265.541 243.352 268.413 246.133 270.628C246.989 271.31 248.537 271.483 249.603 271.735C248.601 271.771 248.3 271.617 247.566 272.076L247.758 272.114C249.224 271.984 250.768 272.04 252.403 271.878C257.783 271.31 262.997 269.682 267.745 267.088C278.752 261.135 283.44 250.87 286.828 239.544C287.112 240.174 287.478 240.747 287.835 241.338C283.415 260.051 269.348 274.696 249.426 275.517C247.234 275.606 245.013 275.545 242.819 275.495C240.357 275.355 237.559 274.876 235.142 274.39C223.635 272.815 215.771 272.511 206.918 263.475C206.906 263.467 206.894 263.458 206.882 263.449C197.713 254.6 194.555 241.123 193.82 229.094C193.493 221.498 194.934 208.031 198.438 201.321C199.822 196.984 204.418 190.057 207.993 187.108C210.273 186.556 216.935 187.665 220.674 186.135L220.841 186.221C220.259 186.771 219.583 187.254 219.453 188.009C223.517 184.076 228.39 181.077 233.732 179.223Z" fill="#1F1F1F"/>
<path d="M193.819 229.094C194.499 230.455 194.265 232.398 194.86 233.344C195.919 233.325 196.967 233.086 197.762 233.091C200.432 233.105 203.888 233.397 206.516 233.99L206.586 233.956L206.621 234.073C208.536 240.811 208.458 249.302 212.145 255.281C213.375 257.294 214.773 259.2 216.324 260.978C216.754 261.476 219.238 264.259 219.451 264.628C223.118 268.257 226.102 270.084 230.787 272.314C231.537 272.671 234.625 274.067 235.142 274.39C223.635 272.815 215.771 272.512 206.918 263.476C206.906 263.467 206.894 263.459 206.882 263.45C197.713 254.601 194.555 241.124 193.819 229.094Z" fill="#303030"/>
<path d="M206.918 263.476L207.305 263.327C207.724 263.691 212.416 267.655 212.531 267.638C214.051 267.408 221.903 268.646 222.769 268.36L222.823 268.083C221.963 267.438 219.499 265.783 219.355 264.791L219.451 264.628C223.118 268.256 226.102 270.084 230.787 272.313C231.537 272.67 234.625 274.067 235.142 274.39C223.635 272.815 215.771 272.511 206.918 263.476Z" fill="#5F5E5F"/>
<path d="M200.385 197.967C201.448 198.405 205.097 199.701 205.376 200.35C205.223 201.07 204.571 203.251 204.609 203.616C204.574 204.587 204.161 205.701 203.864 206.645C205.028 211.687 206.09 213.783 206.121 219.019C205.882 224.357 206.145 228.591 206.586 233.955L206.516 233.989C203.888 233.397 200.432 233.104 197.763 233.09C196.967 233.086 195.919 233.324 194.86 233.344C194.265 232.397 194.499 230.454 193.82 229.093C193.493 221.498 194.934 208.031 198.438 201.321C199.282 200.545 199.854 199.044 200.385 197.967Z" fill="#696969"/>
<path d="M212.157 236.239C212.181 236.266 212.205 236.291 212.227 236.318C212.46 236.594 212.528 236.777 212.609 237.126C213.127 239.368 225.424 249.498 227.821 251.657C230.035 253.651 232.238 255.755 234.329 257.875C235.819 259.386 237.069 261.161 238.416 262.799C240.672 265.541 243.352 268.413 246.133 270.628C246.989 271.31 248.537 271.483 249.603 271.735C248.601 271.771 248.3 271.617 247.566 272.076C240.569 272.477 231.563 268.535 226.203 263.938C219.773 257.821 216.239 252.573 213.655 243.894C212.994 241.672 212.277 238.548 212.157 236.239Z" fill="#575656"/>
<path d="M286.828 239.545C287.112 240.174 287.478 240.747 287.835 241.338C283.415 260.051 269.348 274.696 249.426 275.518C247.233 275.607 245.013 275.545 242.819 275.495L242.572 275.171C243.171 275.007 249.165 275.196 250.789 275.039C250.145 274.979 249.326 274.787 248.731 274.813C235.527 275.383 222.324 268.771 215.505 257.322C214.779 256.103 212.086 250.653 212.159 249.31C215.82 256.068 219.87 261.741 226.414 266.041C226.107 265.375 225.547 264.962 225.063 264.384C225.513 263.914 225.463 264.046 226.203 263.938C231.563 268.535 240.569 272.478 247.566 272.076L247.757 272.115C249.223 271.984 250.767 272.04 252.403 271.879C257.783 271.31 262.997 269.682 267.745 267.088C278.752 261.135 283.44 250.87 286.828 239.545Z" fill="#3C3B3B"/>
<path d="M226.203 263.938C231.563 268.535 240.569 272.478 247.566 272.076L247.758 272.115C248.438 273.598 249.674 272.229 250.894 272.859C249.713 273.034 247.053 272.946 245.809 272.899C238.161 272.604 232.898 269.793 226.415 266.041C226.108 265.375 225.548 264.961 225.063 264.384C225.513 263.913 225.463 264.046 226.203 263.938Z" fill="#161616"/>
<path d="M207.993 187.108C210.273 186.557 216.935 187.666 220.674 186.136L220.841 186.222C220.259 186.772 219.583 187.254 219.453 188.009C215.828 192.126 214.163 190.595 210.49 193.982C209.161 195.207 208.315 198.245 206.949 200.132C206.73 200.752 206.582 201.248 206.222 201.81C206.188 204.931 206.156 205.861 206.828 208.846L206.866 208.568C207.236 211.322 206.757 216.394 206.122 219.02C206.09 213.784 205.029 211.688 203.864 206.646C204.161 205.701 204.574 204.587 204.609 203.617C204.572 203.252 205.223 201.071 205.376 200.351C205.097 199.702 201.448 198.406 200.385 197.967C199.854 199.045 199.282 200.546 198.438 201.322C199.823 196.985 204.418 190.057 207.993 187.108Z" fill="#303030"/>
<path d="M207.865 219.063L208.073 219.104C208.288 217.839 208.493 216.617 208.76 215.361L209.208 215.048C209.471 215.148 209.913 215.257 209.936 215.566C210.075 217.436 209.809 220.043 210.01 221.875C209.988 224.051 210.075 233.783 210.782 235.355L211.015 235.562L210.779 234.673C211.485 235.09 211.5 235.269 211.649 236.057L211.834 236.014L211.935 235.843L212.157 236.239C212.277 238.548 212.994 241.672 213.655 243.894C216.238 252.573 219.773 257.82 226.203 263.937C225.463 264.045 225.513 263.913 225.063 264.383C225.547 264.961 226.107 265.374 226.414 266.04C219.871 261.74 215.82 256.067 212.159 249.309L212.139 249.074C212.002 248.988 211.843 248.895 211.763 248.748C208.271 242.314 206.591 225.747 207.865 219.063Z" fill="#2C2C2C"/>
<path d="M218.264 191.735C219.256 191.012 220.918 189.647 222.059 190.172L221.159 191.212C216.1 197.246 213.781 202.278 211.497 209.779C211.159 209.775 211.156 209.723 210.837 209.558C209.878 208.111 211.037 206.726 210.845 204.919C213.017 199.126 214.632 196.527 218.264 191.735Z" fill="#B8B8B8"/>
<path d="M210.845 204.919C211.037 206.726 209.878 208.111 210.837 209.558C211.156 209.723 211.159 209.776 211.497 209.779C210.493 214.315 210.438 217.3 210.01 221.876C209.81 220.044 210.075 217.437 209.936 215.567C209.913 215.258 209.471 215.149 209.208 215.049L208.761 215.362C208.493 216.618 208.288 217.84 208.073 219.105L207.865 219.064C208.028 215.074 209.499 208.639 210.845 204.919Z" fill="#898888"/>
<path d="M218.263 191.734C219.968 188.613 222.336 186.722 225.086 184.57C225.207 185.073 225.191 185.177 225.548 185.517C224.096 187.044 223.571 189.229 222.059 190.171C220.917 189.647 219.256 191.012 218.263 191.734Z" fill="#7C7C7C"/>
<path d="M234.612 176.562C237.948 176.283 241.143 176.535 244.358 176.461C255.626 176.201 265.557 177.884 274.385 185.348C275.634 186.404 279.71 190.25 280.171 191.711C278.506 191.247 274.208 183.875 270.605 183.961L270.534 184.242C271.008 185.026 271.993 185.027 272.468 185.454C273.611 186.48 278.112 190.807 278.344 191.977L277.951 191.845C276.961 191.925 275.069 189.769 274.244 189.007L274.692 188.186C265.637 178.928 254.373 178.459 242.329 179.607C242.734 179.331 242.591 179.507 242.788 179.072L241.978 178.791C241.004 177.952 240.313 178.168 239.103 178.288L240.498 177.868C241.19 177.921 241.234 177.655 241.924 177.082C241.914 177.071 236.011 176.843 234.612 176.562Z" fill="#575758"/>
<path d="M274.244 189.007L274.692 188.186C275.769 189.314 277.06 190.594 277.952 191.845C276.961 191.925 275.07 189.769 274.244 189.007Z" fill="#BAB9B9"/>
<path d="M221.159 191.212C221.508 191.59 221.694 191.938 222.114 192.01C213.059 204.194 209.303 219.516 211.696 234.507C211.764 234.954 211.844 235.4 211.936 235.844L211.834 236.014L211.649 236.057C211.5 235.269 211.485 235.091 210.779 234.673L211.015 235.563L210.783 235.356C210.076 233.784 209.988 224.052 210.01 221.875C210.438 217.3 210.493 214.314 211.497 209.778C213.781 202.278 216.1 197.245 221.159 191.212Z" fill="#212122"/>
<path d="M239.104 178.288C240.314 178.169 241.004 177.953 241.979 178.792L242.788 179.073C242.591 179.507 242.735 179.331 242.329 179.608C239.885 179.938 237.932 180.655 235.623 181.514L236.055 182.278L235.493 182.495L235.404 182.907C234.342 183.636 230.718 185.391 229.501 185.851L228.902 185.687C227.424 186.306 223.228 190.625 222.114 192.011C221.694 191.939 221.508 191.591 221.159 191.213L222.059 190.172C223.571 189.23 224.097 187.045 225.549 185.518C225.192 185.177 225.207 185.074 225.086 184.571C228.319 182.468 230.437 181.276 234 179.835C235.692 179.235 237.379 178.775 239.104 178.288Z" fill="#4C4A4B"/>
<path d="M239.103 178.288C240.313 178.169 241.004 177.953 241.978 178.792C236.478 180.155 230.132 182.067 225.548 185.518C225.191 185.177 225.207 185.074 225.086 184.571C228.319 182.468 230.436 181.276 233.999 179.835C235.691 179.235 237.378 178.775 239.103 178.288Z" fill="#979797"/>
<path d="M228.901 185.687C231.143 183.817 232.965 182.674 235.623 181.513L236.054 182.278L235.493 182.494L235.404 182.906C234.342 183.635 230.718 185.391 229.501 185.85L228.901 185.687Z" fill="#BAB9B9"/>
<path d="M242.329 179.607C254.373 178.459 265.637 178.928 274.692 188.185L274.244 189.007C271.757 186.807 270.025 185.231 266.961 183.815C257.047 179.234 245.556 179.326 235.404 182.906L235.493 182.494L236.054 182.277L235.622 181.513C237.932 180.654 239.884 179.937 242.329 179.607Z" fill="#D3D1D1"/>
<path d="M239.672 199.194C241.157 195.748 247.308 195.432 250.55 195.691C256.755 196.187 263.236 200.759 265.671 206.54L265.881 206.465C266.523 203.806 262.385 198.537 260.319 196.993L261.203 196.315C275.7 206.322 275.162 235.125 266.818 249.013C265.38 251.407 262.606 252.25 260.613 253.902L258.885 254.807L258.529 254.169C259.084 252.467 262.737 251.809 263.535 250.184C263.198 249.21 263.391 248.838 263.702 247.834C262.753 249.145 261.524 250.092 260.293 251.146C257.869 253.252 256.743 253.963 253.739 255.172C252.49 256.194 252.105 256.174 250.547 256.546L250.404 256.608C246.039 256.617 244.646 256.58 240.632 255.081C239.942 254.213 239.581 253.467 239.068 252.498L240.039 252.768C240.795 252.406 241.559 252.181 242.286 251.836C254.252 246.149 254.646 232.256 254.53 220.873C253.884 212.624 252.588 206.558 246.88 200.404C245.791 199.448 244.279 198.498 243.049 197.675C241.607 198.187 241.017 198.464 239.672 199.194Z" fill="#575656"/>
<path d="M239.672 199.194C241.157 195.748 247.308 195.432 250.55 195.691C256.755 196.187 263.236 200.759 265.67 206.54L265.881 206.465C266.523 203.806 262.384 198.537 260.319 196.993L261.203 196.315C275.699 206.322 275.162 235.125 266.818 249.013C265.38 251.407 262.606 252.25 260.613 253.902L258.885 254.807L258.529 254.169C259.083 252.467 262.737 251.809 263.535 250.184C263.198 249.21 263.391 248.838 263.701 247.834C262.753 249.145 261.524 250.092 260.292 251.146C259.696 250.415 261.863 249.297 261.878 247.852C262.302 246.423 264.608 243.606 265.28 242.096C265.854 240.806 266.1 239.544 266.364 238.164C267.214 234.732 267.684 231.216 267.765 227.681C268.171 225.545 267.758 221.324 267.466 219.163C266.939 218.56 266.927 218.284 266.813 217.517C266.707 217.417 266.602 217.316 266.496 217.216C263.442 217.298 257.709 216.716 254.913 216.793L254.75 216.798C254.467 218.316 255.225 219.109 254.529 220.873C253.884 212.624 252.588 206.558 246.879 200.404C245.791 199.448 244.279 198.498 243.049 197.675C241.607 198.187 241.017 198.464 239.672 199.194Z" fill="#292929"/>
<path d="M246.88 200.405C246.783 200.093 246.749 199.946 246.691 199.624C248.425 199.521 251.28 199.213 253.017 198.828C253.348 198.508 253.625 198.238 253.851 198.02C254.722 197.847 254.854 198.065 255.827 198.393L256.143 198.233C258.185 199.095 259.694 200.177 260.921 202.048C263.834 206.493 267.328 213.805 267.466 219.164C266.939 218.561 266.927 218.284 266.813 217.518C266.707 217.417 266.602 217.317 266.496 217.217C263.442 217.299 257.709 216.716 254.913 216.794L254.75 216.798C254.467 218.316 255.225 219.109 254.529 220.874C253.884 212.625 252.588 206.558 246.88 200.405Z" fill="#2B2B2B"/>
<path d="M239.672 199.194C241.157 195.748 247.308 195.432 250.55 195.691C256.755 196.187 263.236 200.759 265.67 206.54L265.717 206.721C266.261 208.748 267.695 211.02 268.2 213.061C268.75 215.283 269.068 217.539 269.238 219.819C269.303 220.689 269.258 222.862 269.372 223.559C269.444 226.179 269.541 228.438 269.132 231.05C268.793 233.222 268.041 235.647 267.725 237.738C266.746 241.691 265.711 244.249 263.701 247.834C262.753 249.145 261.524 250.092 260.292 251.146C259.696 250.415 261.863 249.297 261.878 247.852C262.302 246.423 264.608 243.606 265.28 242.096C265.854 240.806 266.1 239.544 266.364 238.164C267.214 234.732 267.684 231.216 267.765 227.681C268.171 225.545 267.758 221.324 267.466 219.163C267.328 213.805 263.834 206.493 260.921 202.047C259.694 200.176 258.185 199.095 256.143 198.232L255.827 198.392C254.854 198.065 254.722 197.847 253.851 198.02C253.625 198.238 253.348 198.507 253.017 198.827C251.279 199.212 248.425 199.521 246.691 199.624C246.749 199.945 246.783 200.092 246.879 200.404C245.791 199.448 244.279 198.498 243.049 197.675C241.607 198.187 241.017 198.464 239.672 199.194Z" fill="#161616"/>
<path d="M243.049 197.675C245.723 196.073 253.398 196.76 256.143 198.233L255.827 198.393C254.854 198.065 254.722 197.847 253.851 198.02C253.625 198.238 253.348 198.508 253.017 198.828C251.28 199.213 248.425 199.521 246.691 199.624C246.749 199.946 246.783 200.093 246.88 200.404C245.791 199.449 244.279 198.498 243.049 197.675Z" fill="#575656"/>
<path d="M267.726 237.738C270.517 239.319 268.021 239.721 268.375 242.652C267.414 245.527 265.751 248.116 263.535 250.185C263.198 249.211 263.391 248.838 263.702 247.834C265.712 244.25 266.746 241.692 267.726 237.738Z" fill="#A4A2A3"/>
<path d="M269.372 223.559C269.627 225.073 269.786 231.081 270.038 231.715C271.532 229.795 270.581 222.487 271.05 221.6C271.717 226.825 270.558 237.875 268.375 242.651C268.021 239.72 270.517 239.319 267.726 237.738C268.041 235.647 268.793 233.222 269.132 231.05C269.541 228.438 269.444 226.179 269.372 223.559Z" fill="#767676"/>
<path d="M239.068 252.499L240.039 252.768C242.435 254.897 246.927 254.684 249.997 254.514C250.206 254.502 250.416 254.485 250.624 254.463C251.661 254.721 252.714 255.118 253.739 255.173C252.49 256.195 252.105 256.174 250.547 256.547L250.404 256.608C246.039 256.617 244.646 256.581 240.632 255.081C239.942 254.213 239.581 253.467 239.068 252.499Z" fill="#303030"/>
<path d="M250.625 254.463C257.128 253.84 257.682 252.205 261.878 247.852C261.863 249.297 259.697 250.415 260.293 251.147C257.869 253.252 256.743 253.963 253.739 255.172C252.714 255.118 251.661 254.721 250.625 254.463Z" fill="#161616"/>
<path d="M266.364 238.165C265.822 237.972 266.009 238.118 265.698 237.599C266.15 236.381 265.812 235.672 266.11 234.579C266.673 232.515 267.4 231.611 267.367 229.339C267.357 228.629 267.224 225.766 267.506 225.339L267.826 225.659C267.632 226.432 267.707 226.892 267.765 227.681C267.684 231.217 267.214 234.732 266.364 238.165Z" fill="#7C7C7C"/>
<path d="M243.992 194.33C250.236 192.691 255.596 193.077 261.203 196.315L260.319 196.993C262.385 198.537 266.523 203.806 265.881 206.465L265.671 206.54C263.236 200.759 256.755 196.187 250.55 195.692C247.308 195.433 241.157 195.748 239.672 199.194C229.521 207.22 229.054 217.638 229.366 229.769C228.792 228.027 228.266 219.86 228.369 217.78C228.795 209.188 234.607 196.281 243.992 194.33Z" fill="#3A3939"/>
<path d="M243.991 194.33C250.235 192.691 255.596 193.077 261.202 196.315L260.319 196.993C256.998 194.648 251.84 194.35 247.905 194.665C246.483 194.779 245.165 195.149 243.991 194.33Z" fill="#161616"/>
<path d="M233.616 246.574C235.276 249.333 236.595 250.444 239.068 252.498C239.581 253.467 239.943 254.213 240.632 255.081C244.647 256.58 246.039 256.617 250.404 256.608L250.547 256.547C253.533 256.77 256.195 255.993 258.885 254.808L260.613 253.902L261.248 254.268C261.235 254.68 261.295 254.79 260.922 255.07C257.453 257.674 249.506 259.46 245.364 258.066C241.446 257.956 233.362 252.294 232.538 248.594L232.816 248.56L233.595 249.2L233.616 246.574Z" fill="#BAB9B9"/>
<path d="M260.613 253.902L261.247 254.268C261.235 254.68 261.295 254.79 260.921 255.07C257.452 257.674 249.505 259.46 245.363 258.066C246.597 257.572 247.98 258.707 248.429 257.32C247.772 256.847 246.667 257.214 245.448 256.943C246.554 256.531 248.997 257.257 250.404 256.608L250.546 256.546C253.533 256.769 256.195 255.993 258.885 254.807L260.613 253.902Z" fill="#DAD9DA"/>
<path d="M233.616 246.574C235.276 249.333 236.595 250.444 239.068 252.498C239.581 253.467 239.943 254.213 240.632 255.081C237.485 253.638 235.718 251.898 233.595 249.2L233.616 246.574Z" fill="#575656"/>
<path d="M260.293 251.147C261.524 250.093 262.753 249.145 263.702 247.834C263.391 248.838 263.198 249.21 263.536 250.184C262.737 251.809 259.084 252.468 258.529 254.17L258.885 254.808C256.195 255.993 253.533 256.77 250.547 256.547C252.105 256.174 252.49 256.194 253.739 255.172C256.743 253.963 257.869 253.252 260.293 251.147Z" fill="#575656"/>
<path d="M227.063 87.7366C228.997 87.4292 229.913 87.2413 231.852 87.7693C241.154 89.2184 244.745 99.4061 240.575 107.3C237.998 112.178 235.685 117.502 232.91 122.264C232.334 123.838 230.773 126.698 229.97 128.272L223.726 140.43L202.336 182.698L174.03 238.343L163.539 258.84C161.557 262.717 159.658 266.637 157.536 270.389C154.256 276.189 147.33 278.079 141.116 276.607C140.986 276.577 140.886 276.513 140.803 276.465C140.679 276.463 140.554 276.456 140.429 276.449C130.296 275.906 121.249 273.193 121.939 261.02C122.155 259.653 122.532 258.259 123.114 257.004C123.307 256.132 127.974 247.761 128.732 246.316L149.772 206.287L193.662 121.726C196.567 116.135 199.44 110.527 202.28 104.903C203.654 102.196 206.825 95.4718 208.6 93.4928C211.737 90.2936 216.741 88.8929 221.105 88.8219C222.48 88.4406 225.56 87.9777 227.063 87.7366Z" fill="#494949"/>
<path d="M208.601 93.4927C211.738 90.2935 216.741 88.8928 221.105 88.8218L222.587 89.0692L222.755 89.3313C222.34 89.875 222.099 90.1688 221.618 90.6692L221.765 91.4542L221.248 92.119C220.325 92.7725 219.626 93.9593 219.34 95.0564C219.421 95.5842 219.495 95.8202 219.661 96.3291C216.243 102.393 212.952 109.316 209.756 115.57L191.492 151.313C190.578 153.102 185.049 164.521 184.121 165.46C172.844 187.86 160.896 210.188 149.377 232.515C146.65 237.889 143.888 243.245 141.091 248.583C139.76 251.08 138.393 253.6 137.037 256.081C135.72 258.492 135.355 259.305 135.361 262.092C134.93 262.53 134.859 262.808 134.622 263.367C134.116 263.151 134.094 263.143 133.549 263.119L133.458 263.005C133.219 263.168 133.03 263.146 132.739 263.162C132.233 262.499 132.38 262.444 132.272 261.48C132.143 261.807 132.11 261.781 131.802 261.971C129.658 261.767 124.855 261.401 123.051 260.721C121.879 259.191 123.706 258.486 123.114 257.004C123.308 256.132 127.974 247.761 128.732 246.316L149.772 206.287L193.662 121.726C196.567 116.134 199.44 110.527 202.28 104.903C203.654 102.196 206.825 95.4717 208.601 93.4927Z" fill="#424242"/>
<path d="M153.097 223.423C153.595 222.68 155.285 219.188 155.83 218.152C158.803 212.596 161.607 206.952 164.237 201.226C165.065 199.406 165.678 197.479 166.462 195.633C166.815 194.586 168.332 193.741 168.657 192.755C171.768 183.313 174.801 172.152 182.723 165.458C183.587 165.267 183.48 165.142 184.121 165.46C172.843 187.859 160.895 210.187 149.376 232.514C146.65 237.888 143.888 243.244 141.091 248.582C139.759 251.08 138.393 253.599 137.037 256.08C135.719 258.492 135.355 259.304 135.36 262.092C134.929 262.529 134.859 262.807 134.622 263.366C134.116 263.15 134.093 263.142 133.548 263.118L133.458 263.004C133.77 259.086 140.72 247.3 142.772 243.177C145.972 236.748 149.818 229.897 153.097 223.423Z" fill="#292829"/>
<path d="M132.272 261.479C132.438 260.389 132.799 259.477 132.504 258.584L131.876 258.336L131.902 258.189L133.308 258.321C134.376 257.859 137.087 251.695 137.787 250.371L146.844 233.046C148.474 229.91 150.284 226.201 152.043 223.18C152.43 223.243 152.717 223.322 153.097 223.423C149.818 229.897 145.972 236.748 142.772 243.177C140.72 247.3 133.77 259.086 133.457 263.005C133.219 263.168 133.03 263.145 132.739 263.161C132.232 262.498 132.379 262.444 132.272 261.479Z" fill="#8E8D8F"/>
<path d="M208.6 93.4927C211.737 90.2935 216.741 88.8928 221.105 88.8218L222.587 89.0692L222.754 89.3313C222.339 89.875 222.099 90.1688 221.617 90.6692C220.362 91.7549 211.281 93.5523 209.184 93.8813L208.6 93.4927Z" fill="#575656"/>
<path d="M227.054 91.658C228.375 90.3904 229.548 89.9419 231.415 89.9647C233.729 89.998 235.945 90.9068 237.616 92.5081C239.25 93.7255 240.334 95.5424 240.628 97.5589C241.138 100.903 240.131 103.147 238.894 106.098L207.684 167.685L197.189 188.325C196.011 190.625 193.508 195.909 192.237 197.933L192 197.906C191.921 197.314 204.725 172.607 206.222 169.704C207.232 167.744 209.967 163.232 210.413 161.311C210.947 159.015 198.993 152.324 197.767 150.28C197.506 149.844 197.682 149.57 197.8 149.105L197.582 148.867C197.045 149.55 195.099 153.65 194.469 154.851C191.209 161.043 187.997 167.26 184.834 173.502C184.333 174.487 182.664 178.2 182.198 178.772L182.046 178.677C182.465 177.159 185.542 171.375 186.463 169.589L196.215 150.743L215.472 113.342C217.677 109.025 224.348 94.5192 227.054 91.658Z" fill="#8A8989"/>
<path d="M227.054 91.658C228.375 90.3904 229.548 89.9419 231.415 89.9647C233.729 89.998 235.945 90.9068 237.616 92.5081C237.928 93.0135 238.086 93.2235 238.234 93.8098C237.856 93.8193 236.29 92.2554 234.939 91.727C232.276 90.6865 228.321 92.3988 227.054 91.658Z" fill="#BAB9B9"/>
<path d="M238.894 106.098L239.073 106.475C234.346 116.358 187.441 207.809 187.434 208.243C188.706 208.259 189.592 206.422 190.054 205.654C194.143 198.857 231.58 122.676 232.769 122.146L232.91 122.264C232.334 123.838 230.773 126.697 229.97 128.271L223.726 140.43L202.336 182.697L174.03 238.343L163.539 258.839C161.557 262.717 159.658 266.636 157.536 270.388C154.256 276.189 147.33 278.079 141.116 276.606C140.986 276.577 140.886 276.513 140.803 276.465C140.679 276.463 140.554 276.456 140.429 276.449C130.296 275.906 121.249 273.192 121.939 261.019C122.155 259.652 122.532 258.259 123.114 257.003C123.706 258.486 121.879 259.19 123.051 260.72C124.854 261.4 129.658 261.767 131.802 261.971C132.11 261.781 132.142 261.807 132.272 261.479C132.38 262.444 132.233 262.499 132.739 263.162C133.03 263.145 133.219 263.168 133.458 263.005L133.549 263.119C134.093 263.143 134.116 263.151 134.622 263.367C135.463 264.094 135.57 264.28 136.119 265.259C136.298 265.501 136.399 265.764 136.53 266.039C136.322 266.881 136.421 267.496 136.168 268.297L136.36 268.592C137.694 266.731 137.716 268.568 138.967 268.526C139.699 267.495 138.135 264.218 138.624 262.899C138.874 264.004 138.776 265.103 139.147 266.256C139.939 268.709 141.358 270.563 143.661 271.788C145.845 272.95 148.985 272.947 151.321 272.27C153.012 271.78 155.279 269.78 156.243 268.318C158.024 265.614 159.495 262.393 160.966 259.481L168.845 243.831C176.746 228.586 184.544 213.286 192.237 197.933C193.508 195.909 196.011 190.625 197.189 188.325L207.684 167.685L238.894 106.098Z" fill="#161616"/>
<path d="M123.114 257.003C123.706 258.486 121.879 259.191 123.051 260.721C124.854 261.4 129.658 261.767 131.802 261.971C132.11 261.781 132.142 261.807 132.272 261.48C132.38 262.444 132.233 262.499 132.739 263.162C133.03 263.146 133.219 263.168 133.458 263.005L133.549 263.119C133.552 264.106 133.691 266.209 133.244 266.894L132.865 266.784L132.083 266.944C132.982 267.439 132.815 267.194 133.304 268.008C133.281 271.063 133.743 270.377 135.375 272.553C136.461 274.001 140.188 275.721 140.803 276.465C140.679 276.463 140.554 276.456 140.429 276.449C130.296 275.906 121.249 273.193 121.939 261.02C122.155 259.653 122.532 258.259 123.114 257.003Z" fill="#303030"/>
<path d="M123.114 257.003C123.706 258.486 121.879 259.191 123.051 260.721C124.855 261.4 129.658 261.767 131.802 261.971C132.11 261.781 132.142 261.807 132.272 261.48C132.38 262.444 132.233 262.499 132.739 263.162C133.03 263.146 133.219 263.168 133.458 263.005L133.549 263.119C133.552 264.106 133.691 266.209 133.244 266.894L132.865 266.784C132.578 262.178 130.086 262.735 126.082 262.28C125.016 262.159 123.047 261.741 122.263 261.735L121.939 261.02C122.155 259.653 122.532 258.259 123.114 257.003Z" fill="#575656"/>
<path d="M136.303 269.047C140.075 272.303 143.425 274.456 148.648 274.483C149.629 274.49 150.669 274.122 151.397 274.46L151.269 274.985C146.786 276.435 142.087 276.325 138.412 272.944C137.581 272.18 136.311 270.214 136.303 269.047Z" fill="#575656"/>
<path d="M221.248 92.1189L221.636 92.2709C222.32 92.2623 224.216 91.0328 225.087 90.5981C224.779 91.2944 224.065 92.751 223.412 93.1459C221.518 96.3984 219.562 100.585 217.859 103.998C215.037 109.667 212.178 115.317 209.28 120.948C198.634 142.003 187.874 163.001 177.001 183.94L151.479 233.272L142.368 250.821C141.103 253.236 138.634 257.466 137.679 259.759C137.183 260.581 136.725 261.529 135.919 262.02L135.36 262.092C135.355 259.304 135.719 258.492 137.037 256.081C138.393 253.6 139.76 251.08 141.091 248.583C143.888 243.245 146.65 237.889 149.377 232.515C160.896 210.188 172.844 187.86 184.121 165.46C185.049 164.521 190.578 153.102 191.492 151.313L209.756 115.57C212.952 109.316 216.243 102.393 219.661 96.329C219.495 95.8202 219.421 95.5841 219.34 95.0564C219.626 93.9593 220.325 92.7725 221.248 92.1189Z" fill="#BAB9B9"/>
<path d="M221.248 92.1189L221.636 92.2709C222.319 92.2623 224.216 91.0328 225.086 90.5981C224.779 91.2944 224.064 92.751 223.411 93.1459C221.819 92.7782 220.512 95.1831 219.661 96.329C219.495 95.8202 219.421 95.5841 219.339 95.0564C219.626 93.9593 220.325 92.7725 221.248 92.1189Z" fill="#575656"/>
<path d="M227.063 87.7366C228.997 87.4292 229.913 87.2413 231.852 87.7693C229.327 89.5619 227.821 89.4115 225.086 90.5983C224.216 91.0329 222.32 92.2624 221.636 92.2711L221.248 92.1191L221.765 91.4543L221.617 90.6693C222.099 90.1689 222.339 89.8751 222.755 89.3314L222.587 89.0693L221.105 88.8219C222.479 88.4406 225.56 87.9777 227.063 87.7366Z" fill="#848486"/>
<path d="M221.105 88.8215C222.479 88.4403 225.56 87.9774 227.063 87.7363C225.151 89.1742 223.72 89.8189 221.765 91.454L221.617 90.669C222.099 90.1686 222.339 89.8748 222.755 89.3311L222.587 89.069L221.105 88.8215Z" fill="#575656"/>
<path d="M137.679 259.759L137.63 259.977C137.258 261.693 137.572 263.487 136.694 264.995L136.119 265.259C135.569 264.28 135.463 264.094 134.622 263.367C134.859 262.808 134.93 262.53 135.36 262.092L135.919 262.02C136.725 261.529 137.183 260.581 137.679 259.759Z" fill="#303030"/>
<path d="M207.994 187.108C216.137 179.617 223.87 177.439 234.613 176.562C236.012 176.843 241.915 177.071 241.925 177.082C241.235 177.655 241.191 177.921 240.499 177.868L239.104 178.288C237.379 178.774 235.692 179.234 234 179.835L233.733 179.223C228.39 181.077 223.517 184.076 219.454 188.009C219.583 187.254 220.26 186.771 220.841 186.222L220.674 186.135C216.936 187.666 210.274 186.557 207.994 187.108Z" fill="#6D6C6D"/>
<path d="M233.732 179.223C235.086 178.682 239.239 177.279 240.499 177.869L239.104 178.288C237.378 178.774 235.692 179.235 233.999 179.835L233.732 179.223Z" fill="#303030"/>
</svg>
