<svg width="223" height="223" viewBox="0 0 223 223" fill="none" xmlns="http://www.w3.org/2000/svg">
<path d="M176.392 46.3081C177.751 46.5851 177.641 46.9261 178.042 48.2469C178.172 49.1067 178.352 50.1126 178.448 50.9619C178.565 51.3718 178.976 52.7187 179.021 53.0617C179.786 59.8959 182.397 71.391 183.771 78.5334L190.124 112.56C191.378 119.278 192.851 126.19 193.916 132.91C194.348 135.631 196.551 144.889 196.448 147.13C196.139 148.407 195.212 148.305 193.977 148.6C190.272 149.501 184.377 150.404 180.576 150.951C177.298 151.483 174.033 152.087 170.781 152.762C169.96 152.464 169.15 152.743 167.629 152.249C166.715 152.329 166.316 152.411 165.421 152.633C164.778 152.891 163.849 153.158 163.489 153.692L163.785 154.074C160.88 154.59 156.941 155.183 154.13 155.865C150.312 156.535 146.1 157.155 142.346 157.912C137.161 159.334 129.486 160.157 124.073 161.151C116.5 162.543 108.951 163.848 101.365 165.142L68.3451 170.892C65.0264 171.48 51.6366 174.486 49.6066 173.414C49.426 173.154 49.1741 172.836 49.0782 172.544C47.7964 167.954 46.7067 159.549 45.664 154.398C43.0054 139.167 39.7447 123.856 37.1464 108.671C36.6053 104.502 30.1084 74.2855 30.7371 73.0657C31.6522 72.1633 33.1063 71.9468 34.3469 71.6937C38.3895 71.2721 45.8373 69.4718 50.3041 68.7296C60.5399 67.0286 71.0977 65.073 81.3002 63.095C83.2262 62.8654 84.7323 62.5986 86.6383 62.2184C97.7676 60.5196 109.29 57.8224 120.49 56.1881C123.458 55.7549 125.851 54.9724 129.02 54.6536C137.195 52.9306 145.961 51.5952 154.25 50.1126C156.736 49.8861 164.133 48.3859 166.862 47.8961C168.068 47.3968 174.9 46.5006 176.392 46.3081Z" fill="#6ECD73"/>
<path d="M133.497 108.097C135.473 108.878 140.233 111.515 142.245 112.629C147.241 115.396 153.114 118.387 157.917 121.434C161.207 123.069 165.39 125.779 168.598 127.756C173.351 130.481 181.444 135.839 185.745 139.363C187.523 140.238 196.373 147.126 196.448 147.13C196.139 148.407 195.212 148.304 193.977 148.599C190.272 149.5 184.377 150.403 180.576 150.95C177.298 151.482 174.032 152.086 170.781 152.762C169.96 152.463 169.15 152.742 167.629 152.248C166.715 152.328 166.316 152.41 165.421 152.632C164.778 152.89 163.849 153.157 163.489 153.691L163.785 154.073C160.88 154.589 156.94 155.182 154.13 155.864C150.311 156.534 146.1 157.154 142.345 157.911C137.161 159.333 129.486 160.156 124.073 161.15C116.499 162.542 108.951 163.848 101.365 165.141L68.345 170.892C65.0263 171.48 51.6365 174.486 49.6064 173.414C49.4259 173.153 49.1739 172.835 49.0781 172.544C49.3675 172.314 49.6544 172.082 49.939 171.846C49.8321 171.692 49.7365 171.45 49.6554 171.272L50.096 170.504C54.2167 165.788 56.1858 161.378 59.7 156.942C61.2488 154.863 63.3162 152.165 64.6788 150.005C65.5658 148.943 66.466 147.732 67.2986 146.615C73.0278 138.926 79.1851 131.775 85.5354 124.595C86.2934 123.724 86.967 122.946 87.7921 122.129C89.6609 119.925 91.591 117.775 93.5806 115.679L93.8251 115.479L94.2158 116.016C95.4284 116.664 96.4364 117.345 97.5806 118.101L98.7949 118.731L99.0621 118.181C99.3357 118.312 100.119 118.718 100.364 118.759C100.635 118.507 100.748 118.296 101.144 118.398C103.064 118.893 105.51 120.089 107.315 120.833C107.715 120.952 108.592 121.177 108.904 121.383L108.824 121.864C109.351 122.507 110.958 123.095 111.787 123.441L112.897 123.706C114.182 123.802 115.228 124.193 115.893 123.003L116.02 123.006L115.947 122.397C115.35 121.978 115.254 121.915 114.954 121.22C117.651 120.268 117.404 119.718 119.164 118.84L120.245 118C121.359 117.197 121.78 116.621 122.642 115.576L123.236 116.202C124.571 116.101 125.758 115.204 126.622 114.23L126.95 114.148C127.702 114.351 127.543 114.375 128.149 115.032L128.981 113.904L130.106 112.193C131.052 110.923 132.298 108.938 133.497 108.097Z" fill="#82D186"/>
<path d="M160.349 143.727C164.516 142.332 171.449 143.573 176.031 143.434C176.177 143.43 176.431 143.048 177.37 143.065C176.633 143.736 176.45 143.364 176.184 144.171C177.436 145.812 181.719 144.941 183.542 145.327C185.843 145.815 192.867 146.647 193.977 148.6C190.272 149.501 184.377 150.404 180.576 150.951C177.298 151.483 174.032 152.087 170.781 152.762C169.96 152.464 169.15 152.743 167.629 152.249C166.715 152.329 166.316 152.411 165.421 152.633C164.778 152.89 163.849 153.157 163.489 153.692L163.785 154.074C160.88 154.59 156.94 155.183 154.13 155.865C150.311 156.534 146.1 157.155 142.345 157.912C137.161 159.334 129.486 160.156 124.073 161.151C116.499 162.543 108.951 163.848 101.365 165.142L68.345 170.892C65.0263 171.48 51.6365 174.486 49.6064 173.414C49.4259 173.153 49.1739 172.836 49.0781 172.544C49.3675 172.315 49.6544 172.082 49.939 171.847C51.1533 171.142 52.4118 169.142 53.3354 169.181C55.1553 169.257 55.6923 168.289 56.8598 167.081L56.264 167.159C57.007 166.081 59.2754 164.991 60.5822 164.816C61.0215 164.757 61.2708 165.179 61.5539 165.481C65.172 163.476 72.7362 162.45 76.9213 161.674C78.01 161.472 79.9723 161.169 80.9318 160.835L80.5534 160.722C81.0447 160.19 84.8888 159.809 85.3692 159.326C83.549 159.215 81.8574 159.933 81.0619 159.736C82.4521 159.194 89.4087 157.734 91.2046 157.351C98.9726 155.696 106.512 154.1 114.251 152.294C115.857 150.767 132.115 149.272 133.394 147.936L132.866 147.679C133.492 147.328 157.759 144.051 160.349 143.727Z" fill="#84D583"/>
<path d="M133.949 153.417C136.493 152.969 142.295 152.066 144.722 152.071C147.721 152.078 151.591 152.373 154.723 152.459C157.682 152.346 162.275 152.532 165.421 152.633C164.778 152.89 163.849 153.157 163.489 153.692L163.785 154.074C160.88 154.589 156.94 155.183 154.13 155.865C150.311 156.534 146.1 157.155 142.345 157.912C137.161 159.333 129.486 160.156 124.073 161.151C116.499 162.543 108.951 163.848 101.365 165.141L68.345 170.892C65.0263 171.48 51.6365 174.486 49.6064 173.414C49.4259 173.153 49.1739 172.836 49.0781 172.544C49.3675 172.315 49.6544 172.082 49.939 171.847C51.1533 171.142 52.4118 169.142 53.3354 169.181C55.1553 169.257 55.6923 168.289 56.8598 167.08C57.9091 166.51 59.3191 165.553 60.455 165.783C60.9237 166.224 61.4899 166.744 62.1922 166.581C79.0553 162.663 96.1973 159.835 113.197 156.541C119.95 155.232 127.258 154.904 133.949 153.417Z" fill="#53A65A"/>
<path d="M133.948 153.417C136.493 152.969 142.294 152.066 144.722 152.071C147.72 152.078 151.59 152.373 154.723 152.459C153.3 152.719 152.31 152.663 150.929 152.84C146.269 153.437 140.655 154.409 135.999 154.074C137.062 153.473 138.213 154.48 140.692 153.232C138.842 153.377 135.404 154.151 133.948 153.417Z" fill="#6ECD73"/>
<path d="M142.345 157.911L142.356 157.436C143.045 156.908 144.517 157.421 145.279 156.771C144.526 156.502 141.254 157.439 140.132 157.202C141.105 156.658 151.417 155.085 153.314 155.218C153.832 155.254 153.832 155.448 154.129 155.864C150.311 156.534 146.099 157.154 142.345 157.911Z" fill="#2D9433"/>
<path d="M170.391 143.744C171.489 143.699 174.487 143.435 175.298 144.125C173.799 144.908 164.044 145.976 161.627 146.374C147.157 148.753 132.632 150.838 118.138 153.061C113.014 153.847 107.759 155.484 102.658 156.473C95.428 157.982 88.1611 159.347 80.9312 160.835L80.5527 160.722C81.044 160.19 84.8882 159.809 85.3686 159.326C83.5484 159.215 81.8568 159.933 81.0612 159.735C82.4515 159.194 89.4081 157.734 91.204 157.351C98.972 155.696 106.511 154.099 114.251 152.294C115.857 150.767 132.115 149.272 133.393 147.936L132.865 147.679C133.492 147.327 157.759 144.051 160.348 143.727C164.505 144.233 167.513 143.468 170.391 143.744Z" fill="#BCE5BF"/>
<path d="M160.348 143.727C164.506 144.233 167.513 143.468 170.392 143.744C168.886 144.032 167.132 144.186 165.582 144.325C161.445 144.696 157.092 145.956 152.993 146.279C150.875 146.892 147.581 147.138 145.289 147.43C140.947 147.972 136.611 148.571 132.283 149.226C127.883 149.905 123.544 150.902 119.147 151.572C117.979 151.75 115.309 152.272 114.251 152.294C115.857 150.767 132.115 149.272 133.394 147.936L132.866 147.679C133.492 147.327 157.759 144.051 160.348 143.727Z" fill="#8AD38C"/>
<path d="M167.629 152.249C171.011 151.646 177.363 150.454 180.576 150.95C177.298 151.483 174.032 152.087 170.781 152.762C169.96 152.464 169.15 152.743 167.629 152.249Z" fill="#36853D"/>
<path d="M87.7913 122.129L88.1465 122.699C87.7132 124.087 87.5642 124.651 87.3534 126.103C86.7484 127.308 85.2421 129.087 84.3364 130.173L85.523 131.233C85.665 131.514 85.8976 132.015 86.0555 132.262C84.8024 134.403 82.3901 135.977 81.5463 137.446C79.0819 140.01 77.4464 141.83 74.3547 143.853C73.7051 144.278 72.9351 145.417 72.1012 146.054C69.6523 147.746 67.1386 150.994 65.0148 153.163C63.9451 154.256 62.3615 155.597 61.4148 156.699L61.167 156.738C60.4854 157.099 60.5821 157.158 59.6992 156.942C61.248 154.863 63.3153 152.165 64.678 150.006C65.5649 148.943 66.4652 147.733 67.2978 146.615C73.027 138.927 79.1843 131.775 85.5346 124.595C86.2926 123.724 86.9662 122.946 87.7913 122.129Z" fill="#2F7F33"/>
<path d="M84.3369 130.173L85.5235 131.233C85.6655 131.514 85.8981 132.015 86.056 132.262C84.8029 134.403 82.3907 135.977 81.5468 137.446C79.0825 140.01 77.447 141.83 74.3553 143.853C73.7056 144.278 72.9356 145.417 72.1017 146.054L71.3691 145.201C71.5891 144.898 71.8905 144.565 72.1372 144.276C74.3328 141.596 77.1983 139.075 79.6125 136.08C79.7425 135.686 80.2449 135.265 80.5592 134.953C81.7587 133.567 83.2999 131.639 84.3369 130.173Z" fill="#44B24C"/>
<path d="M79.613 136.08L79.9991 136.572C79.6986 138.001 73.8307 144.446 72.1377 144.276C74.3333 141.596 77.1988 139.075 79.613 136.08Z" fill="#8AD38C"/>
<path d="M84.3373 130.173L85.5239 131.233C84.6489 132.284 83.6916 133.244 82.7404 134.226C81.8244 134.432 81.4333 134.591 80.5596 134.953C81.7591 133.567 83.3003 131.639 84.3373 130.173Z" fill="#53A65A"/>
<path d="M61.168 156.738C61.9602 154.974 63.3956 154.131 64.4949 152.687C66.9978 149.399 68.0685 147.717 71.3696 145.201L72.1022 146.054C69.6533 147.746 67.1395 150.994 65.0158 153.163C63.9461 154.256 62.3625 155.597 61.4158 156.699L61.168 156.738Z" fill="#2D9433"/>
<path d="M93.8244 115.479L94.2151 116.017C95.4277 116.664 96.4358 117.345 97.5799 118.101L98.7942 118.732L99.0615 118.181C99.335 118.312 100.119 118.718 100.364 118.759C100.634 118.508 100.747 118.296 101.143 118.398C103.063 118.894 105.509 120.09 107.315 120.833C107.715 120.952 108.591 121.178 108.904 121.383L108.823 121.865C109.35 122.507 110.957 123.095 111.786 123.442L112.896 123.707C114.181 123.802 115.227 124.194 115.893 123.003L116.019 123.006C116.618 124.019 117.258 123.845 117.9 124.747C119.123 124.331 119.42 124.293 120.738 124.29L120.079 125.104C120.21 127.597 119.942 128.179 118.135 129.907C115.091 129.995 112.67 129.889 110.447 127.471C106.793 125.743 101.452 119.615 97.6786 118.812C96.7842 119.168 95.7698 121.518 94.7369 122.343C93.7707 123.114 90.4263 123.61 90.0626 124.178C89.5722 124.944 89.5182 127.272 89.1795 128.187C88.8215 127.21 88.9309 125.738 88.9413 124.658C88.3433 125.327 88.068 125.549 87.3535 126.102C87.5643 124.651 87.7133 124.086 88.1467 122.699L87.7915 122.129C89.6602 119.926 91.5903 117.775 93.5799 115.68L93.8244 115.479Z" fill="#6ECD73"/>
<path d="M93.8244 115.479L94.2151 116.017C95.4277 116.664 96.4358 117.345 97.5799 118.101C96.0564 119.16 96.5699 119.806 95.0616 120.946C93.0746 122.447 90.0291 122.31 88.9413 124.658C88.3433 125.327 88.068 125.549 87.3535 126.102C87.5643 124.651 87.7133 124.086 88.1467 122.699L87.7915 122.129C89.6602 119.926 91.5903 117.775 93.5799 115.68L93.8244 115.479Z" fill="#6DC977"/>
<path d="M93.825 115.479L94.2157 116.017C92.3184 118.263 89.9016 120.436 88.1472 122.699L87.792 122.129C89.6607 119.926 91.5908 117.775 93.5804 115.68L93.825 115.479Z" fill="#35A33D"/>
<path d="M100.364 118.759C100.635 118.507 100.748 118.296 101.143 118.398C103.064 118.893 105.51 120.09 107.315 120.833C107.715 120.952 108.592 121.177 108.904 121.383L108.823 121.864C109.35 122.507 110.957 123.095 111.786 123.441L112.897 123.706C114.81 124.257 114.186 123.952 114.798 125.623C114.647 125.575 114.666 125.568 114.522 125.564C112.487 125.506 110.915 124.999 109.043 124.247C106.851 123.031 102.801 120.24 100.364 118.759Z" fill="#6ECD73"/>
<path d="M99.0612 118.181C99.3347 118.312 100.118 118.718 100.363 118.759C102.801 120.241 106.85 123.031 109.042 124.247C109.493 124.611 109.858 124.921 110.289 125.311C110.038 125.381 107.653 123.976 106.716 123.782C104.216 122.365 101.326 120.307 98.7939 118.732L99.0612 118.181Z" fill="#36853D"/>
<path d="M106.717 123.782C107.654 123.976 110.038 125.382 110.29 125.311C109.858 124.921 109.494 124.611 109.043 124.247C110.915 124.999 112.487 125.506 114.522 125.564C114.666 125.569 114.647 125.575 114.798 125.623L115.22 125.956C115.755 126.166 116.065 126.291 116.579 126.567L116.33 126.838C113.499 127.193 111.67 126.596 109.167 125.475C109.066 125.379 107.06 124.03 106.717 123.782Z" fill="#53A65A"/>
<path d="M115.893 123.003L116.019 123.006C116.618 124.019 117.258 123.845 117.9 124.747L117.035 125.887L116.488 125.477C115.755 125.427 115.953 125.459 115.219 125.956L114.797 125.623C114.186 123.953 114.81 124.257 112.896 123.707C114.182 123.802 115.228 124.194 115.893 123.003Z" fill="#6DC977"/>
<path d="M117.9 124.747C119.123 124.331 119.42 124.293 120.738 124.29L120.079 125.104C119.286 125.525 118.243 126.185 117.383 126.235C117.277 126.137 117.102 125.998 117.035 125.887L117.9 124.747Z" fill="#2D9433"/>
<path d="M135.213 110.197C138.774 110.54 156.685 122.493 157.86 121.596L157.917 121.435C161.208 123.07 165.39 125.78 168.598 127.757C166.437 128.267 165.986 127.214 163.994 127.441C163.329 127.144 161.021 125.757 160.274 125.336C158.078 124.091 155.85 122.901 153.594 121.768C148.887 118.897 136.939 114.558 135.213 110.197Z" fill="#32AD3C"/>
<path d="M72.1018 146.054C72.9357 145.417 73.7057 144.278 74.3554 143.853C77.4471 141.83 79.0826 140.01 81.5469 137.446C79.9693 140.916 77.2496 141.543 74.7682 143.831C70.8638 147.431 67.1893 151.36 63.721 155.379C62.5146 156.777 61.4686 156.423 61.2826 158.344L61.5318 158.788C62.1853 158.706 61.9939 158.757 62.4473 158.216C64.7115 155.513 67.9729 153.246 70.6883 150.935C72.5518 149.349 73.4392 149.827 74.3906 147.439L74.6592 147.39C75.4131 149.332 71.1534 150.53 70.1203 151.66C66.575 155.538 56.6031 162.963 55.0458 167.698L55.2242 167.913C55.7884 167.734 55.8642 167.607 56.2638 167.159L56.8597 167.081C55.6922 168.289 55.1551 169.257 53.3352 169.181C52.4116 169.143 51.1531 171.142 49.9388 171.847C49.8319 171.692 49.7363 171.451 49.6553 171.273L50.0958 170.504C54.2165 165.789 56.1856 161.378 59.6999 156.942C60.5827 157.158 60.486 157.099 61.1677 156.738L61.4155 156.699C62.3621 155.597 63.9458 154.256 65.0155 153.163C67.1392 150.994 69.653 147.746 72.1018 146.054Z" fill="#36853D"/>
<path d="M165.538 129.303C166.274 129.66 166.443 129.744 167.077 130.265L167.032 130.401C162.469 128.18 158.154 125.315 153.441 123.294C150.71 122.123 149.078 120.542 145.885 120.414C142.452 120.277 141.798 117.654 140.147 115.471C143.457 117.252 149.89 121.219 152.8 122.394L153.593 121.768C155.85 122.901 158.077 124.09 160.273 125.335C161.02 125.756 163.328 127.144 163.993 127.441C164.593 127.804 165.379 128.312 165.979 128.632L165.972 129.057L165.538 129.303Z" fill="#44B24C"/>
<path d="M153.593 121.768C155.85 122.901 158.077 124.09 160.274 125.335C161.021 125.756 163.328 127.144 163.993 127.441C164.593 127.804 165.379 128.313 165.979 128.633L165.972 129.057L165.538 129.303C161.18 126.682 157.24 124.73 152.8 122.394L153.593 121.768Z" fill="#BCE5BF"/>
<path d="M133.497 108.097C135.473 108.878 140.232 111.515 142.245 112.629C147.24 115.396 153.113 118.387 157.916 121.434L157.859 121.595C156.684 122.492 138.773 110.539 135.212 110.197C134.323 110.413 134.295 110.29 133.663 109.526C132.522 110.247 131.318 111.217 130.563 112.347C130.704 112.623 143.597 122.108 144.926 123.012L144.328 122.801L144.524 122.883C140.05 121.05 132.861 113.741 130.279 113.012C129.921 113.262 129.336 113.701 128.98 113.904L130.105 112.193C131.051 110.923 132.297 108.938 133.497 108.097Z" fill="#2D9433"/>
<path d="M119.164 118.841C120.122 118.652 120.283 118.533 120.955 117.827L121.475 117.816C121.194 119.533 122.466 119.386 122.552 120.988C122.587 121.649 121.31 122.534 121.394 123.514C121.199 123.758 120.958 124.084 120.739 124.29C119.421 124.293 119.123 124.331 117.901 124.747C117.258 123.845 116.619 124.019 116.02 123.007L115.948 122.398C115.35 121.978 115.254 121.916 114.954 121.221C117.652 120.269 117.404 119.718 119.164 118.841Z" fill="#44B24C"/>
<path d="M163.993 127.441C165.985 127.214 166.436 128.267 168.598 127.757C173.351 130.481 181.443 135.839 185.745 139.363C184.475 139.293 180.844 136.346 179.248 135.563C174.86 133.409 170.008 131.394 165.979 128.633C165.379 128.313 164.593 127.804 163.993 127.441Z" fill="#22762E"/>
<path d="M126.949 114.148C127.702 114.351 127.543 114.375 128.149 115.032C126.468 117.179 123.132 121.679 121.394 123.513C121.31 122.533 122.587 121.648 122.552 120.988C122.465 119.385 121.193 119.533 121.475 117.816L120.955 117.826C120.283 118.532 120.122 118.651 119.164 118.84L120.245 118C121.359 117.197 121.78 116.621 122.642 115.576L123.236 116.202C124.571 116.101 125.758 115.204 126.621 114.231L126.949 114.148Z" fill="#35A33D"/>
<path d="M87.3539 126.103C88.0685 125.549 88.3437 125.327 88.9417 124.658C88.9313 125.738 88.822 127.21 89.18 128.187C88.5885 128.996 86.6697 131.655 86.056 132.262C85.8981 132.015 85.6655 131.514 85.5236 131.233L84.3369 130.173C85.2426 129.087 86.749 127.308 87.3539 126.103Z" fill="#53A65A"/>
<path d="M98.7265 137.096L99.4419 137.124C99.6396 137.632 99.9247 138.011 100.226 138.464C100.602 140.64 96.1881 142.758 94.4819 143.213L94.3462 143.029L95.5049 142.324C95.1171 141.851 93.8294 141.097 93.2035 140.942C92.9339 140.875 92.7218 141.148 92.4296 141.375C91.3655 141.89 90.1603 142.878 88.5186 143.668C89.6856 142.14 96.8053 138.041 98.7265 137.096Z" fill="#BCE5BF"/>
<path d="M96.8174 134.475L98.0293 134.459L98.2721 134.759C97.9685 135.371 97.2216 135.773 96.6273 136.174C96.4084 136.233 96.1893 136.122 95.9308 136.05L95.8024 135.809L95.7756 135.898L95.6924 135.48C96.0569 134.732 95.9722 134.944 96.8174 134.475Z" fill="#BCE5BF"/>
<path d="M177.274 54.4712C177.758 53.6182 178.181 53.4524 179.02 53.0615C179.785 59.8957 182.397 71.3909 183.771 78.5332L190.124 112.56C191.377 119.278 192.85 126.19 193.916 132.91C194.347 135.631 196.551 144.889 196.448 147.13C196.373 147.126 187.523 140.238 185.745 139.363C181.443 135.839 173.351 130.481 168.598 127.757C165.39 125.78 161.207 123.07 157.917 121.435C153.114 118.387 147.24 115.396 142.245 112.63C140.232 111.515 135.473 108.879 133.497 108.097L133.569 107.448C134.231 107 137.441 102.6 138.041 101.752C139.105 100.654 144.185 93.6031 145.373 92.0316C152.316 82.7541 159.207 73.4379 166.047 64.0837C166.4 63.708 168.956 60.1037 169.609 59.2726C172.383 58.5888 175.167 59.9562 176.603 59.0146C177.625 57.7922 177.3 56.2573 177.251 54.592L177.274 54.4712Z" fill="#8AD38C"/>
<path d="M176.518 66.1721C177.031 66.0695 177.313 66.0346 177.835 65.998C179.418 67.0177 177.663 69.823 176.995 71.1876C175.802 71.6177 174.784 71.8407 173.537 72.0391C172.689 72.0258 171.861 71.766 171.252 71.163C170.69 68.9787 174.798 66.7984 176.518 66.1721Z" fill="#BCE5BF"/>
<path d="M49.9152 86.8686C49.5474 86.4967 49.2379 86.2334 48.9879 85.773C49.4437 85.5677 53.1036 88.4902 53.9658 88.581C55.2371 89.4284 57.3926 90.9447 58.7346 91.4199C60.9302 93.2653 63.5156 94.9365 65.971 96.4097C74.0316 101.245 81.2022 107.491 89.7028 111.569C90.3518 111.881 91.072 112.254 91.6538 112.674C91.3984 112.616 90.9498 112.509 90.693 112.511C89.2527 112.523 88.764 111.809 87.2812 111.383C88.6566 112.685 93.0297 114.928 93.5805 115.68C91.5909 117.775 89.6608 119.926 87.7921 122.129C86.9669 122.947 86.2934 123.724 85.5353 124.595C79.185 131.775 73.0277 138.927 67.2985 146.615C66.466 147.733 65.5657 148.943 64.6787 150.006C63.3161 152.165 61.2488 154.863 59.6999 156.942C56.1857 161.378 54.2166 165.789 50.0959 170.504C49.6449 169.87 49.492 167.197 49.3788 166.21C50.1049 165 48.7388 160.83 48.629 159.296C48.5238 157.828 49.2429 156.85 49.2882 155.291C49.5979 153.089 48.9465 150.256 49.2152 148.136C49.7508 143.911 51.2111 139.465 52.0735 135.335C52.9263 131.25 53.0657 127.037 53.5213 122.908C54.0143 118.439 55.1491 113.96 54.7876 109.481C53.8026 105.199 51.1717 101.253 48.9679 97.4938C48.5001 96.6959 47.4759 95.5297 47.2651 94.857C47.4437 94.3483 47.4413 94.3174 47.3448 93.7655L46.696 93.35L46.7958 93.3779L46.0209 92.9214L46.2041 93.0937L45.9883 92.7498L46.1581 92.5734L46.8393 93.0717C47.32 92.8056 48.4032 92.2056 48.857 91.9719C49.0434 91.8759 48.9748 91.1764 49.7192 90.8138C50.4507 91.4123 51.7081 92.4985 52.6086 92.7376L52.8882 92.2966C50.7449 90.4425 51.726 88.2297 49.9152 86.8686Z" fill="#90CE90"/>
<path d="M64.6779 150.005C64.6078 149.864 64.5379 149.723 64.468 149.581C64.8813 148.907 67.0523 146.848 66.9824 146.123C66.7546 143.762 69.6737 139.612 68.8013 137.82C67.4145 137.969 68.6087 137.537 67.4469 137.065C65.9295 137.846 65.0623 138.603 63.7075 139.604L63.5494 139.483C63.8334 139.029 66.0037 137.38 66.5673 136.932L66.4323 136.735L65.9295 136.65C65.6425 136.17 65.9094 134.218 66.0292 133.602C65.4621 133.706 63.471 136.185 62.9414 136.792L62.9451 136.59C64.7646 133.558 65.6729 133.73 68.0545 131.386C69.1331 130.323 69.9892 128.158 71.0114 126.868C72.6336 124.821 75.3308 124.031 77.1272 122.17C77.4196 121.867 78.5998 120.13 78.9212 120.086C79.3761 120.022 79.4963 120.352 80.2494 119.943L80.007 119.658C82.0563 119.345 83.4106 122.622 84.0397 124.059C84.8631 124.485 84.6316 123.727 85.4317 123.917L85.5345 124.595C79.1843 131.775 73.0269 138.927 67.2977 146.615C66.4652 147.732 65.5649 148.943 64.6779 150.005Z" fill="#BCE5BF"/>
<path d="M49.9156 86.8686C49.5477 86.4967 49.2383 86.2334 48.9883 85.773C49.4441 85.5677 53.104 88.4902 53.9661 88.581C55.2375 89.4284 57.393 90.9447 58.735 91.4199C60.9305 93.2653 63.516 94.9365 65.9713 96.4097C74.032 101.245 81.2026 107.491 89.7032 111.569C90.3522 111.881 91.0723 112.254 91.6542 112.674C91.3988 112.616 90.9502 112.509 90.6934 112.511C89.2531 112.523 88.7644 111.809 87.2816 111.383C86.6254 111.194 81.3043 107.582 79.2542 106.266C71.2463 101.127 62.2622 95.2494 54.1476 90.1882C54.001 90.0969 53.7381 90.4079 53.5515 90.573C53.4923 90.7433 53.4189 90.9545 53.3313 91.2067C53.6968 92.9478 59.8554 97.6789 60.0762 98.4148C59.2149 98.2602 54.7083 93.2699 52.8886 92.2966C50.7453 90.4425 51.7263 88.2297 49.9156 86.8686Z" fill="#2D9433"/>
<path d="M166.861 47.8961C168.068 47.3968 174.899 46.5006 176.391 46.3081C176.378 47.0098 176.405 47.2371 176.104 47.8979C175.614 48.2949 175.097 48.6803 174.695 49.1636C174.044 49.0738 174.397 48.6997 173.507 48.6964C172.468 51.1425 158.588 54.4437 155.703 55.1177C149.591 56.5254 143.463 57.8599 137.319 59.1208C129.351 60.8645 121.361 62.5068 113.351 64.0466C95.1713 67.416 76.5859 70.359 58.2454 72.8445C53.2883 73.5163 48.5676 74.1726 43.561 74.4409C41.1639 74.4379 39.4982 74.4187 37.0916 74.1722C36.1883 74.2182 35.8041 74.0779 35.1806 74.5167L35.2255 74.9351C34.4796 75.1402 34.7734 75.1572 34.0946 74.9305C33.0841 73.7802 33.4319 72.7044 34.3461 71.6937C38.3886 71.2721 45.8365 69.4718 50.3032 68.7296C60.539 67.0286 71.0969 65.073 81.2994 63.095C83.2253 62.8654 84.7315 62.5986 86.6374 62.2184C97.7667 60.5196 109.29 57.8224 120.489 56.1881C123.457 55.7549 125.85 54.9724 129.019 54.6536C137.194 52.9306 145.96 51.5952 154.249 50.1126C156.735 49.8861 164.132 48.3859 166.861 47.8961Z" fill="#6ECD73"/>
<path d="M166.862 47.8961C168.068 47.3968 174.9 46.5006 176.391 46.3081C176.379 47.0098 176.405 47.2371 176.104 47.8979C175.614 48.2949 175.098 48.6803 174.695 49.1636C174.044 49.0738 174.398 48.6997 173.508 48.6964C167.094 49.7197 159.255 51.7413 152.751 53.1547C144.109 54.9737 135.441 56.6654 126.749 58.229C119.125 59.6437 111.325 61.02 103.715 62.4865C100.252 63.1535 90.9706 64.2698 88.1236 65.2158C86.6911 65.147 82.0978 66.1741 81.4541 65.2892C82.8465 63.6224 84.8607 64.2982 86.4174 64.1431L86.6206 64.122L90.2674 63.3863C88.9259 63.0542 87.6517 63.142 86.638 62.2184C97.7673 60.5196 109.29 57.8224 120.49 56.1881C123.458 55.7549 125.85 54.9724 129.02 54.6536C137.195 52.9306 145.961 51.5952 154.249 50.1126C156.736 49.8861 164.132 48.3859 166.862 47.8961Z" fill="#C9E6CF"/>
<path d="M129.02 54.6533C137.194 52.9303 145.96 51.5949 154.249 50.1123C153.557 50.5701 151.988 51.4133 151.49 51.8464C148.473 52.6498 143.658 53.4595 140.502 54.1433C137.945 54.6971 130.959 56.3023 128.764 56.3796C122.094 58.0251 113.418 59.4245 106.572 60.6933C102.906 61.3862 99.2304 62.0243 95.5457 62.6073C94.2591 62.8155 91.4642 63.3292 90.2671 63.386C88.9256 63.0539 87.6514 63.1417 86.6377 62.2181C97.767 60.5193 109.29 57.8221 120.49 56.1878C123.458 55.7546 125.85 54.9721 129.02 54.6533Z" fill="#6ECD73"/>
<path d="M154.249 50.112C156.736 49.8855 164.132 48.3853 166.862 47.8955C164.778 49.3729 154.491 51.2534 151.49 51.8461C151.988 51.413 153.557 50.5698 154.249 50.112Z" fill="#6ECD73"/>
<path d="M81.2994 63.0948C83.2253 62.8653 84.7315 62.5985 86.6374 62.2183C87.6512 63.1418 88.9254 63.0541 90.2668 63.3862L86.62 64.1218L86.4168 64.1429C84.8602 64.298 82.846 63.6223 81.4535 65.2891C82.0973 66.1739 86.6906 65.1469 88.1231 65.2157C83.0577 66.6258 74.6518 67.535 69.3281 68.6151C67.5838 68.9692 59.007 70.392 57.338 70.4573L48.2917 71.966C45.9301 72.5287 39.55 72.8417 37.9657 73.7184L39.4228 73.666C38.9276 74.1189 37.494 73.9698 37.0916 74.1721C36.1883 74.218 35.8041 74.0778 35.1806 74.5166L35.2255 74.9349C34.4796 75.1401 34.7734 75.1571 34.0946 74.9304C33.0841 73.7801 33.4319 72.7043 34.3461 71.6936C38.3886 71.272 45.8365 69.4716 50.3032 68.7295C60.539 67.0284 71.0969 65.0728 81.2994 63.0948Z" fill="#6DC977"/>
<path d="M48.2919 71.9659C48.0226 71.8564 48.1099 71.9546 47.9951 71.6983C48.5992 71.6238 49.8492 71.5846 50.2016 71.2468L49.4542 70.992L49.4777 70.8239C50.9967 70.3023 55.6085 69.9624 57.3383 70.4572L48.2919 71.9659Z" fill="#8AD38C"/>
<path d="M173.508 48.6963C174.398 48.6996 174.045 49.0737 174.696 49.1634C173.337 50.8475 161.118 56.2846 158.373 57.6043C155.775 58.095 151.945 59.6867 150.251 59.9301C147.538 60.6634 145.117 61.3115 142.371 61.8977C140.877 62.2168 137.258 62.7492 136.02 63.1863C131.059 63.8289 125.027 65.4026 119.949 66.2038C118.808 66.3836 111.552 67.6842 110.832 67.9311C108.783 69.2539 66.854 75.3929 62.2947 75.7098C60.652 75.8239 57.0729 76.3289 55.259 76.3056C54.4799 76.2956 52.8753 77.5365 51.7437 77.3585C49.7829 75.8285 48.1601 76.7967 45.8421 76.4953C42.4063 76.0486 38.5791 75.7777 35.2265 74.9349L35.1816 74.5166C35.8051 74.0778 36.1893 74.218 37.0926 74.1721C39.4992 74.4186 41.165 74.4378 43.562 74.4408C48.5686 74.1725 53.2893 73.5161 58.2465 72.8443C76.5869 70.3589 95.1724 67.4159 113.353 64.0465C121.362 62.5066 129.352 60.8644 137.32 59.1207C143.464 57.8598 149.592 56.5252 155.704 55.1176C158.589 54.4435 172.469 51.1423 173.508 48.6963Z" fill="#BCE5BF"/>
<path d="M43.562 74.4403C42.824 74.6252 41.614 75.0351 40.8858 74.8994C40.2015 74.772 38.4803 74.5492 37.9994 74.9597L37.6821 74.9138C39.2769 75.012 40.7845 75.3282 42.3963 75.3088C42.8899 75.3029 44.214 75.853 45.1498 75.897C52.9378 76.2622 60.4414 75.4926 68.1464 74.5414C77.4049 73.3859 86.6345 72.0115 95.8278 70.4194C99.3575 69.817 107.703 68.0814 110.832 67.9307C108.783 69.2534 66.854 75.3925 62.2946 75.7093C60.652 75.8234 57.0729 76.3284 55.259 76.3051C54.4799 76.2951 52.8753 77.536 51.7437 77.3581C49.7829 75.828 48.1601 76.7962 45.8421 76.4948C42.4063 76.0482 38.5791 75.7773 35.2265 74.9345L35.1816 74.5161C35.8051 74.0773 36.1893 74.2176 37.0926 74.1716C39.4992 74.4181 41.165 74.4373 43.562 74.4403Z" fill="#8AD38C"/>
<path d="M37.1464 108.67C36.6053 104.502 30.1084 74.2851 30.7371 73.0653C31.6522 72.1629 33.1063 71.9464 34.3469 71.6934C33.4327 72.704 33.085 73.7798 34.0954 74.9301C34.7742 75.1568 34.4804 75.1398 35.2263 74.9347L35.274 75.3228L34.5636 75.4299L34.6405 75.6137C35.7971 78.4317 36.3411 81.5772 37.624 84.3739C37.9775 85.1441 38.6436 86.3149 38.7691 87.1026L38.9167 87.238C38.9851 89.5127 38.1329 89.7492 38.2098 91.5438C38.9505 92.9313 38.8242 95.7443 39.9028 97.1546C41.9494 107.712 43.7075 120.974 44.9926 131.777C44.8759 138.135 46.9419 145.912 46.615 152.394C46.5825 153.036 45.992 153.823 45.664 154.398C43.0054 139.167 39.7447 123.856 37.1464 108.67Z" fill="#2D9433"/>
<path d="M37.1464 108.67C36.6053 104.502 30.1084 74.2851 30.7371 73.0653C31.6522 72.1629 33.1063 71.9464 34.3469 71.6934C33.4327 72.704 33.085 73.7798 34.0954 74.9301C34.7742 75.1568 34.4804 75.1398 35.2263 74.9347L35.274 75.3228L34.5636 75.4299L34.6405 75.6137C35.7971 78.4317 36.3411 81.5772 37.624 84.3739C37.9775 85.1441 38.6436 86.3149 38.7691 87.1026L38.9167 87.238C38.9851 89.5127 38.1329 89.7492 38.2098 91.5438C37.7292 89.8045 38.2272 87.9447 38.0014 86.2014C37.8555 85.0773 36.3892 84.8521 35.9293 83.9751C35.5131 82.6297 35.5876 80.5833 35.3119 79.219C35.0643 77.9933 33.8718 76.1091 33.6712 74.9258C33.3665 74.7256 32.96 74.4251 32.6246 74.3197L32.1209 74.6477C32.3648 74.8776 32.544 75.0275 32.6326 75.3655L32.2831 75.7143C31.7794 75.6749 31.7666 75.6684 31.3968 75.3426L31.2485 75.4968L31.5159 75.4506C31.4203 75.7605 31.3428 75.7805 31.4344 75.9672C32.8463 78.8394 32.0721 81.9043 34.5196 84.2129C34.5155 83.0583 34.4421 81.653 34.7233 80.557C34.8224 80.7734 35.7161 85.6069 35.7636 86.152C35.9465 88.2481 38.0306 93.4727 38.2031 94.9631C38.4374 96.988 37.4267 103.886 37.1543 106.079C37.0628 106.815 37.2253 107.786 37.1464 108.67Z" fill="#44B24C"/>
<path d="M34.6768 85.251C34.8192 85.327 35.1977 85.4794 35.2255 85.6177C35.9253 89.0945 37.7798 93.6603 36.648 97.0647L36.3534 97.3857L35.9658 97.2194C34.9446 94.7115 34.8769 88.1478 34.6768 85.251Z" fill="#BCE5BF"/>
<path d="M116.474 116.544C115.129 117.312 111.427 117.806 110.566 117.078C108.045 114.945 89.2622 105.657 88.4375 104.305L89.4889 104.167C96.0086 107.183 99.5622 107.24 106.718 106.462C108.394 106.28 111.016 106.422 112.719 106.165C116.569 105.586 120.511 104.783 124.334 104.05C123.981 105.447 123.521 106.857 123.731 108.291C122.756 109.57 118.865 116.166 118.437 116.495C117.831 116.567 117.59 116.335 117.054 116.013C116.567 116.255 116.752 116.082 116.474 116.544Z" fill="#BCE5BF"/>
<path d="M165.541 63.6802L166.047 64.0835C159.208 73.4377 152.316 82.7539 145.373 92.0314C144.185 93.6029 139.105 100.654 138.042 101.752L137.247 101.34C135.697 103.369 135.582 102.467 134.11 103.534C136.39 99.6685 142.22 92.6077 145.075 89.0554C145.748 88.1642 148.641 85.1078 149.508 84.6457C150.755 83.2696 151.809 81.8884 152.887 80.378C156.919 74.7254 161.473 69.29 165.541 63.6802Z" fill="#36853D"/>
<path d="M145.075 89.0557C145.748 88.1646 148.641 85.1081 149.508 84.646C149.266 85.474 148.571 85.8494 148.094 86.646C144.902 91.9712 141.079 96.5068 137.247 101.341C135.697 103.369 135.582 102.467 134.11 103.535C136.39 99.6689 142.22 92.608 145.075 89.0557Z" fill="#35A33D"/>
<path d="M176.391 46.3081C177.751 46.5851 177.641 46.9261 178.042 48.2469C178.172 49.1067 178.352 50.1126 178.448 50.9619C178.564 51.3718 178.976 52.7187 179.021 53.0617C178.181 53.4526 177.758 53.6183 177.275 54.4713L177.251 54.5922C177.3 56.2575 177.625 57.7924 176.603 59.0147C175.168 59.9564 172.383 58.589 169.609 59.2728C169.983 58.3869 170.258 58.7234 170.345 57.2699C169.967 56.28 170.216 56.5045 169.411 56.0282C170.359 54.967 171.894 54.4014 172.416 53.4016C173.256 51.7947 175.562 49.4011 176.104 47.8979C176.406 47.2371 176.379 47.0098 176.391 46.3081Z" fill="#5CBF69"/>
<path d="M178.043 48.2466C178.172 49.1064 178.352 50.1122 178.448 50.9616C178.565 51.3714 178.977 52.7183 179.021 53.0613C178.181 53.4522 177.759 53.618 177.275 54.471L177.252 54.5918L176.981 55.4906L176.787 55.4185C176.704 54.5111 177.187 53.8823 177.139 53.4607C176.996 52.2186 176.124 50.0478 176.572 48.8759C177.234 48.235 177.017 48.4225 178.043 48.2466Z" fill="#53A65A"/>
<path d="M178.447 50.9614C178.564 51.3713 178.976 52.7182 179.02 53.0612C178.18 53.4521 177.758 53.6178 177.274 54.4708C177.199 52.8071 176.758 51.6707 178.447 50.9614Z" fill="#6DC977"/>
<path d="M44.1635 90.7575C42.131 89.007 40.5177 84.4893 43.3814 83.3003C45.3913 83.4196 47.7127 85.8894 49.7494 86.7966L49.9151 86.8685C51.7259 88.2296 50.7448 90.4424 52.8881 92.2965L52.6085 92.7375C51.708 92.4984 50.4506 91.4121 49.7191 90.8137C48.9747 91.1763 49.0433 91.8758 48.8569 91.9718C48.4031 92.2055 47.3199 92.8054 46.8393 93.0716L46.1581 92.5733L45.9882 92.7497L46.204 93.0936L46.0209 92.9213L46.7957 93.3778L46.696 93.3499L47.3447 93.7654C47.4412 94.3172 47.4436 94.3482 47.265 94.8569C46.0699 93.405 45.1783 92.329 44.1635 90.7575Z" fill="#8AD38C"/>
<path d="M44.1641 90.7574C43.6156 89.3456 43.0121 88.279 43.3669 86.8077C44.8963 84.9536 49.5727 90 49.7197 90.8136C48.9754 91.1762 49.044 91.8757 48.8576 91.9717C48.4037 92.2054 47.3205 92.8054 46.8399 93.0715L46.1587 92.5732L45.9888 92.7496L46.2047 93.0935L46.0215 92.9212L46.7964 93.3777L46.6966 93.3498L47.3454 93.7653C47.4418 94.3172 47.4442 94.3481 47.2657 94.8568C46.0705 93.4049 45.1789 92.3289 44.1641 90.7574Z" fill="#BCE5BF"/>
<path d="M165.54 63.6802L165.399 63.2984C161.831 66.1558 161.773 67.1476 159.172 70.7428C158.704 71.3909 155.872 73.605 155.477 74.24C154.276 76.1688 154.239 76.8285 152.625 78.5828L152.452 78.5003C152.737 77.3818 154.181 75.669 154.981 74.3077C157.304 70.3562 157.44 67.8941 160.873 64.6035C161.989 63.5338 164.947 61.3123 165.606 60.5645C167.29 58.6522 166.817 58.0775 169.41 56.0278C170.215 56.5041 169.966 56.2796 170.344 57.2696C170.258 58.723 169.982 58.3865 169.608 59.2724C168.955 60.1035 166.399 63.7078 166.046 64.0835L165.54 63.6802Z" fill="#44B24C"/>
<path d="M137.247 101.34L138.041 101.752C137.441 102.6 134.231 107 133.569 107.448L133.497 108.097C132.298 108.938 131.051 110.924 130.106 112.194L128.981 113.905L128.149 115.033C127.543 114.376 127.702 114.352 126.949 114.149L126.621 114.231C125.757 115.204 124.571 116.101 123.236 116.202L122.642 115.576C123.085 114.883 124.254 113.593 124.852 112.768C127.023 110.502 132.879 105.314 134.11 103.534C135.581 102.467 135.696 103.369 137.247 101.34Z" fill="#22762E"/>
<path d="M126.949 114.149C127.084 112.925 128.639 111.799 129.556 111.148C129.712 111.48 129.893 111.913 130.106 112.194L128.981 113.905L128.149 115.033C127.542 114.376 127.702 114.352 126.949 114.149Z" fill="#36853D"/>
<path d="M129.557 111.148C131.169 109.774 131.237 107.376 133.569 107.448L133.497 108.097C132.298 108.938 131.051 110.924 130.106 112.193C129.893 111.912 129.712 111.479 129.557 111.148Z" fill="#1A4E1A"/>
<path d="M123.236 116.202C124.222 114.683 124.697 113.805 126.622 114.231C125.758 115.204 124.572 116.101 123.236 116.202Z" fill="#53A65A"/>
<path d="M44.9921 131.777L45.3065 131.969C46.6136 141.355 46.8451 151.133 48.5479 160.527C48.7426 161.6 49.0239 165.429 49.3785 166.21C49.4917 167.197 49.6446 169.869 50.0956 170.504L49.655 171.272C49.7361 171.451 49.8317 171.692 49.9386 171.847C49.654 172.082 49.3671 172.315 49.0777 172.544C47.7959 167.954 46.7062 159.549 45.6635 154.398C45.9914 153.823 46.582 153.036 46.6145 152.394C46.9414 145.912 44.8754 138.135 44.9921 131.777Z" fill="#35A33D"/>
<path d="M87.2812 111.383C88.7641 111.809 89.2528 112.523 90.6931 112.511C90.9499 112.509 91.3985 112.615 91.6539 112.674C94.4972 113.123 101.594 116.602 104.425 117.875C105.439 118.332 106.991 119.477 108.037 119.943L107.315 120.833C105.51 120.09 103.064 118.894 101.144 118.398C100.748 118.296 100.635 118.508 100.364 118.759C100.119 118.718 99.3357 118.312 99.0621 118.181L98.7949 118.732L97.5806 118.102C96.4364 117.345 95.4284 116.664 94.2158 116.017L93.8251 115.48L93.5806 115.68C93.0298 114.928 88.6567 112.685 87.2812 111.383Z" fill="#36853D"/>
<path d="M93.8242 115.48C94.9582 115.254 97.9036 117.433 99.0612 118.181L98.794 118.732L97.5797 118.102C96.4355 117.346 95.4275 116.664 94.2149 116.017L93.8242 115.48Z" fill="#1A4E1A"/>
<path d="M89.4883 104.167L89.6566 103.834C90.4001 103.885 91.2971 104.217 91.9038 104.607C92.5081 104.996 93.5687 104.888 94.1726 105.164C99.978 107.81 105.906 105.128 111.785 105.172C112.21 105.175 112.956 105.405 113.363 105.226L112.88 105.053L113.058 104.75C115.465 104.133 119.967 103.92 122.482 103.811C123.178 103.781 124.051 102.825 124.655 102.886L125.161 103.353C126.182 102.019 127.106 99.7701 128.04 98.7603L128.241 98.8008C127.297 100.663 123.939 105.258 124.309 106.884L123.73 108.291C123.52 106.857 123.98 105.447 124.334 104.05C120.51 104.783 116.568 105.585 112.719 106.165C111.015 106.422 108.393 106.28 106.717 106.462C99.5616 107.24 96.008 107.182 89.4883 104.167Z" fill="#8AD38C"/>
<path d="M144.765 88.4097L145.075 89.0554C142.22 92.6077 136.389 99.6686 134.11 103.534C132.879 105.314 127.022 110.501 124.852 112.768C124.492 112.538 124.507 112.514 124.299 112.159C125.236 109.658 130.147 105.798 132.014 103.938C133.253 102.703 135.576 99.5394 136.826 97.9865C139.448 94.7739 142.094 91.5815 144.765 88.4097Z" fill="#6ECD73"/>
<path d="M38.9169 87.2383L38.9596 87.3707C39.4199 88.7636 41.4833 92.7569 42.4866 93.6922L42.4903 93.4856C42.4993 93.0997 42.5483 92.6946 42.5885 92.3094L42.744 92.1652C43.4842 93.1502 43.5437 94.7284 44.2375 95.7911C45.0148 96.9815 46.1128 97.7759 47.2755 98.5503C46.1727 99.4377 43.6861 97.5755 43.5997 96.7271C43.4128 97.2047 43.2865 97.4342 42.9492 97.821L43.0021 98C43.3253 99.1211 45.0405 108.004 44.8564 108.776L44.6482 108.859C43.8636 107.722 43.8449 104.595 43.6491 103.168C43.432 101.587 43.2791 100.054 42.8007 98.4891C42.165 96.4098 40.9971 94.7245 39.9615 92.8364C39.6824 92.369 39.3113 91.256 38.9554 90.6331C38.9554 93.2057 39.8921 95.5267 39.903 97.1548C38.8243 95.7445 38.9506 92.9315 38.21 91.5441C38.1331 89.7494 38.9853 89.5129 38.9169 87.2383Z" fill="#6DC977"/>
<path d="M123.997 110.827C126.13 107.794 127.007 106.344 129.462 103.255C128.966 104.3 128.187 105.271 127.986 106.382L128.503 106.368C129.131 105.902 131.476 104.192 131.907 103.646C134.066 100.902 136.1 98.4212 138.27 95.6354C141.69 91.2458 145.821 87.124 148.911 82.5392C148.931 82.4946 148.951 82.4499 148.972 82.4053L149.051 82.7354C148.577 84.2337 145.922 87.2111 144.765 88.4097C142.094 91.5816 139.448 94.7739 136.826 97.9865C135.576 99.5395 133.253 102.704 132.013 103.938C130.147 105.798 125.236 109.659 124.299 112.159C124.507 112.514 124.492 112.538 124.852 112.768C124.254 113.593 123.085 114.883 122.641 115.576C121.779 116.621 121.358 117.197 120.244 118C120.819 117.144 122.053 116.209 121.617 115.257L120.888 115.312C120.994 114.845 121.519 114.533 121.953 114.148C123.445 113.154 123.453 112.468 123.997 110.827Z" fill="#44B24C"/>
<path d="M150.251 59.9298C151.944 59.6864 155.775 58.0946 158.373 57.604C154.543 60.1881 153.304 60.4531 148.898 61.5494C147.426 62.2012 142.113 63.5527 140.579 63.5497L140.605 63.3704L140.804 63.3615C141.479 63.3269 141.673 63.3323 142.23 62.9085L142.12 62.6675C141.032 62.4898 137.926 63.2334 136.02 63.186C137.258 62.7489 140.876 62.2164 142.371 61.8974C145.117 61.3112 147.538 60.6631 150.251 59.9298Z" fill="#8AD38C"/>
<path d="M124.308 106.884C124.984 107.006 124.993 106.889 125.392 107.328C125.326 108.596 124.301 109.376 123.997 110.827C123.453 112.468 123.444 113.154 121.952 114.148C121.719 113.652 121.546 113.27 121.351 112.753C120.348 113.604 120.201 115.025 119.986 116.307L120.128 116.482L120.613 116.511C120.238 116.933 119.325 116.724 119.204 116.84C118.813 117.213 118.158 117.843 117.704 118.222C117.431 117.304 118.368 117.516 117.595 116.819L117.436 116.802C116.995 116.751 116.831 116.772 116.473 116.544C116.751 116.083 116.566 116.255 117.053 116.013C117.589 116.335 117.83 116.567 118.435 116.495C118.864 116.166 122.755 109.571 123.729 108.291L124.308 106.884Z" fill="#8AD38C"/>
<path d="M112.075 121.197C112.719 121.19 114.4 121.131 114.955 121.221C115.255 121.916 115.351 121.978 115.948 122.398L116.02 123.007L115.894 123.003C115.229 124.194 114.183 123.803 112.898 123.707L111.787 123.442C110.958 123.095 109.351 122.507 108.824 121.865L108.905 121.383C109.705 121.602 110.874 121.96 111.659 122.103C111.93 121.812 111.962 121.577 112.075 121.197Z" fill="#8AD38C"/>
<path d="M112.074 121.197C112.717 121.19 114.398 121.131 114.953 121.221C115.254 121.916 115.349 121.978 115.947 122.398L116.019 123.007L115.893 123.003C115.372 122.607 113.282 122.469 112.31 122.283L111.658 122.103C111.929 121.812 111.96 121.577 112.074 121.197Z" fill="#6ECD73"/>
<path d="M53.9648 88.5812C54.3747 88.2774 54.5724 87.9989 55.0417 88.1139C56.3865 88.4432 58.0686 89.5588 58.8569 90.6117C58.8404 90.8972 58.8534 91.1658 58.7336 91.4201C57.3917 90.9449 55.2362 89.4286 53.9648 88.5812Z" fill="#6DC977"/>
<path d="M108.036 119.943C109.62 120.552 110.423 120.812 112.074 121.197C111.96 121.576 111.929 121.812 111.658 122.103C110.873 121.96 109.703 121.601 108.904 121.383C108.591 121.177 107.715 120.952 107.314 120.833L108.036 119.943Z" fill="#44B24C"/>
<path d="M56.0403 80.2394C55.4967 80.3644 54.6324 80.6385 54.3229 81.1113C54.6441 81.4805 55.2565 81.5414 55.8146 81.7002C53.3982 82.1471 47.7588 79.2705 45.1688 79.3853C44.8075 79.4012 45.0035 79.4212 44.6211 79.1773C45.039 78.9007 46.0948 79.1422 46.7117 79.2102C46.6523 78.6622 46.6436 78.6409 46.8624 78.1494C48.0399 77.6357 52.3207 77.9125 53.8532 78.0057C56.9251 78.1927 64.055 77.0721 66.7673 77.7546L66.6994 77.9077C63.6255 78.0165 65.3239 78.7838 63.2261 79.3051C61.9064 80.2167 57.5342 80.7564 56.0403 80.2394Z" fill="#8AD38C"/>
<path d="M155.807 61.1846L156.081 61.2858C154.903 61.9751 153.969 62.4413 152.647 62.8658C151.311 63.2948 152.317 63.6001 151.316 64.7815L151.383 64.9281C153.369 64.915 156.595 62.3331 158.029 62.5801L157.888 62.9085C156.473 63.0622 155.129 63.9943 153.761 64.5093C149.855 65.9799 145.81 68.1261 141.822 69.2311C141.502 69.2712 141.656 69.289 141.348 69.1546C143.297 68.4467 145.23 67.694 147.145 66.8976C146.519 66.7406 145.725 67.0812 145.582 66.9654C142.874 64.7809 141.273 67.4227 140.071 67.2642C142.107 65.6853 148.895 63.9057 151.549 62.9904C153.19 62.425 154.205 61.957 155.807 61.1846Z" fill="#8AD38C"/>
<path d="M165.42 152.633C166.315 152.41 166.714 152.328 167.629 152.249C169.15 152.743 169.96 152.464 170.78 152.762C168.445 153.178 166.113 153.616 163.785 154.073L163.488 153.692C163.848 153.157 164.777 152.89 165.42 152.633Z" fill="#2D9433"/>
</svg>
