<svg width="358" height="72" viewBox="0 0 358 72" fill="none" xmlns="http://www.w3.org/2000/svg">
<foreignObject x="-16" y="-16" width="390" height="104"><div xmlns="http://www.w3.org/1999/xhtml" style="backdrop-filter:blur(8px);clip-path:url(#bgblur_0_2595_13842_clip_path);height:100%;width:100%"></div></foreignObject><g data-figma-bg-blur-radius="16">
<rect x="0.5" y="0.5" width="357" height="71" rx="11.5" fill="#0C0B0D"/>
<rect x="0.5" y="0.5" width="357" height="71" rx="11.5" stroke="#333333"/>
<rect x="16" y="16" width="40" height="40" rx="7.85965" fill="url(#paint0_linear_2595_13842)"/>
<path d="M50.9375 31.3215C51.3997 32.7988 51.6484 34.3706 51.6484 36.0002C51.6483 44.6428 44.6425 51.6485 36 51.6487C30.7557 51.6487 26.114 49.0692 23.2744 45.1096H41.4531C41.4544 45.1096 41.4557 45.1086 41.457 45.1086C41.931 45.1083 42.4041 45.0454 42.8633 44.9182C43.5932 44.7161 44.2715 44.3593 44.8516 43.8723C45.4316 43.3853 45.9002 42.7789 46.2256 42.095C46.5509 41.4112 46.7252 40.6655 46.7373 39.9084C46.7493 39.1513 46.5984 38.4001 46.2949 37.7063C45.9914 37.0124 45.5428 36.3911 44.9785 35.886C44.4142 35.3808 43.7475 35.0028 43.0244 34.7776C42.8543 34.7246 42.6817 34.6812 42.5078 34.6458C42.2444 34.5761 41.9679 34.5383 41.6826 34.5383H31.8555C31.647 34.511 31.4447 34.4437 31.2617 34.3372C31.0138 34.1928 30.81 33.9836 30.6709 33.7327C30.5319 33.4817 30.4626 33.1981 30.4717 32.9114C30.4808 32.6246 30.5679 32.3454 30.7227 32.1038C30.8773 31.8622 31.094 31.6666 31.3506 31.5383C31.5682 31.4296 31.8653 31.3351 32.125 31.3215H50.9375ZM36 20.3508C41.5703 20.3509 46.4603 23.2617 49.2334 27.6448H32.9502C32.6916 27.6448 32.3197 27.6286 31.8955 27.6448H31.8008C31.7218 27.6448 31.6447 27.6525 31.5693 27.6653C30.9366 27.7153 30.2287 27.8528 29.6182 28.219C28.7673 28.6443 28.133 29.3163 27.6201 30.1174C27.1072 30.9185 26.8202 31.8434 26.79 32.7942C26.7599 33.745 26.9872 34.6867 27.4482 35.5188C27.9093 36.3507 28.5871 37.0423 29.4092 37.5208C30.2314 37.9992 31.1679 38.2468 32.1191 38.2366C32.2528 38.2351 32.386 38.2266 32.5186 38.2151H41.8115C41.8557 38.2249 41.9 38.2348 41.9434 38.2483C42.1691 38.3186 42.3775 38.4372 42.5537 38.595C42.7297 38.7526 42.8701 38.9459 42.9648 39.1624C43.0596 39.379 43.1063 39.6144 43.1025 39.8508C43.0987 40.0871 43.0449 40.32 42.9434 40.5334C42.8418 40.747 42.6948 40.9361 42.5137 41.0881C42.3327 41.24 42.1212 41.3512 41.8936 41.4143C41.866 41.4219 41.8374 41.4267 41.8096 41.4329H21.3193C20.6928 39.7406 20.3506 37.9104 20.3506 36.0002C20.3506 27.3575 27.3572 20.3508 36 20.3508Z" fill="black"/>
<path d="M64.7045 22.375V20.8636H73.7102V22.375H70.0795V32.5H68.3295V22.375H64.7045ZM74.3377 32.5V23.7727H75.9797V25.1591H76.0706C76.2297 24.6894 76.51 24.3201 76.9115 24.0511C77.3168 23.7784 77.7752 23.642 78.2865 23.642C78.3926 23.642 78.5176 23.6458 78.6615 23.6534C78.8093 23.661 78.9248 23.6705 79.0081 23.6818V25.3068C78.9399 25.2879 78.8187 25.267 78.6445 25.2443C78.4702 25.2178 78.296 25.2045 78.1218 25.2045C77.7202 25.2045 77.3623 25.2898 77.0479 25.4602C76.7373 25.6269 76.4911 25.8598 76.3093 26.1591C76.1274 26.4545 76.0365 26.7917 76.0365 27.1705V32.5H74.3377ZM82.6199 32.6932C82.0669 32.6932 81.5669 32.5909 81.1199 32.3864C80.673 32.178 80.3188 31.8769 80.0574 31.483C79.7999 31.089 79.6711 30.6061 79.6711 30.0341C79.6711 29.5417 79.7658 29.1364 79.9552 28.8182C80.1446 28.5 80.4002 28.2481 80.7222 28.0625C81.0442 27.8769 81.404 27.7367 81.8018 27.642C82.1995 27.5473 82.6048 27.4754 83.0177 27.4261C83.5404 27.3655 83.9646 27.3163 84.2904 27.2784C84.6162 27.2367 84.8529 27.1705 85.0006 27.0795C85.1484 26.9886 85.2222 26.8409 85.2222 26.6364V26.5966C85.2222 26.1004 85.0821 25.7159 84.8018 25.4432C84.5252 25.1705 84.1124 25.0341 83.5631 25.0341C82.9912 25.0341 82.5404 25.161 82.2109 25.4148C81.8851 25.6648 81.6597 25.9432 81.5347 26.25L79.9381 25.8864C80.1275 25.3561 80.404 24.928 80.7677 24.6023C81.1351 24.2727 81.5574 24.0341 82.0347 23.8864C82.512 23.7348 83.0139 23.6591 83.5404 23.6591C83.8889 23.6591 84.2582 23.7008 84.6484 23.7841C85.0423 23.8636 85.4097 24.0114 85.7506 24.2273C86.0953 24.4432 86.3775 24.7519 86.5972 25.1534C86.8169 25.5511 86.9268 26.0682 86.9268 26.7045V32.5H85.2677V31.3068H85.1995C85.0896 31.5265 84.9249 31.7424 84.7052 31.9545C84.4855 32.1667 84.2033 32.3428 83.8586 32.483C83.5139 32.6231 83.101 32.6932 82.6199 32.6932ZM82.9893 31.3295C83.459 31.3295 83.8605 31.2367 84.1938 31.0511C84.5309 30.8655 84.7866 30.6231 84.9609 30.3239C85.1389 30.0208 85.2279 29.697 85.2279 29.3523V28.2273C85.1673 28.2879 85.0499 28.3447 84.8756 28.3977C84.7052 28.447 84.5101 28.4905 84.2904 28.5284C84.0707 28.5625 83.8567 28.5947 83.6484 28.625C83.44 28.6515 83.2658 28.6742 83.1256 28.6932C82.7961 28.7348 82.4949 28.8049 82.2222 28.9034C81.9533 29.0019 81.7374 29.1439 81.5745 29.3295C81.4154 29.5114 81.3359 29.7538 81.3359 30.0568C81.3359 30.4773 81.4912 30.7955 81.8018 31.0114C82.1124 31.2235 82.5082 31.3295 82.9893 31.3295ZM90.5684 27.3182V32.5H88.8695V23.7727H90.5002V25.1932H90.6082C90.8089 24.7311 91.1233 24.3598 91.5514 24.0795C91.9832 23.7992 92.5267 23.6591 93.182 23.6591C93.7767 23.6591 94.2976 23.7841 94.7445 24.0341C95.1915 24.2803 95.5381 24.6477 95.7843 25.1364C96.0305 25.625 96.1536 26.2292 96.1536 26.9489V32.5H94.4548V27.1534C94.4548 26.5208 94.29 26.0265 93.9605 25.6705C93.6309 25.3106 93.1783 25.1307 92.6025 25.1307C92.2086 25.1307 91.8582 25.2159 91.5514 25.3864C91.2483 25.5568 91.0078 25.8068 90.8298 26.1364C90.6555 26.4621 90.5684 26.8561 90.5684 27.3182ZM104.652 25.9034L103.112 26.1761C103.048 25.9792 102.945 25.7917 102.805 25.6136C102.669 25.4356 102.483 25.2898 102.248 25.1761C102.014 25.0625 101.72 25.0057 101.368 25.0057C100.887 25.0057 100.485 25.1136 100.163 25.3295C99.8412 25.5417 99.6802 25.8163 99.6802 26.1534C99.6802 26.4451 99.7882 26.6799 100.004 26.858C100.22 27.036 100.568 27.1818 101.05 27.2955L102.436 27.6136C103.239 27.7992 103.837 28.0852 104.231 28.4716C104.625 28.858 104.822 29.3598 104.822 29.9773C104.822 30.5 104.671 30.9659 104.368 31.375C104.068 31.7803 103.65 32.0985 103.112 32.3295C102.578 32.5606 101.959 32.6761 101.254 32.6761C100.277 32.6761 99.4795 32.4678 98.862 32.0511C98.2446 31.6307 97.8658 31.0341 97.7257 30.2614L99.3677 30.0114C99.47 30.4394 99.6802 30.7633 99.9984 30.983C100.317 31.1989 100.731 31.3068 101.243 31.3068C101.8 31.3068 102.245 31.1913 102.578 30.9602C102.911 30.7254 103.078 30.4394 103.078 30.1023C103.078 29.8295 102.976 29.6004 102.771 29.4148C102.57 29.2292 102.262 29.089 101.845 28.9943L100.368 28.6705C99.5533 28.4848 98.9511 28.1894 98.5609 27.7841C98.1745 27.3788 97.9814 26.8655 97.9814 26.2443C97.9814 25.7292 98.1253 25.2784 98.4132 24.892C98.7011 24.5057 99.0988 24.2045 99.6064 23.9886C100.114 23.7689 100.695 23.6591 101.351 23.6591C102.294 23.6591 103.036 23.8636 103.578 24.2727C104.12 24.678 104.478 25.2216 104.652 25.9034ZM108.91 32.6932C108.357 32.6932 107.857 32.5909 107.41 32.3864C106.963 32.178 106.609 31.8769 106.347 31.483C106.09 31.089 105.961 30.6061 105.961 30.0341C105.961 29.5417 106.056 29.1364 106.245 28.8182C106.435 28.5 106.69 28.2481 107.012 28.0625C107.334 27.8769 107.694 27.7367 108.092 27.642C108.489 27.5473 108.895 27.4754 109.308 27.4261C109.83 27.3655 110.255 27.3163 110.58 27.2784C110.906 27.2367 111.143 27.1705 111.291 27.0795C111.438 26.9886 111.512 26.8409 111.512 26.6364V26.5966C111.512 26.1004 111.372 25.7159 111.092 25.4432C110.815 25.1705 110.402 25.0341 109.853 25.0341C109.281 25.0341 108.83 25.161 108.501 25.4148C108.175 25.6648 107.95 25.9432 107.825 26.25L106.228 25.8864C106.418 25.3561 106.694 24.928 107.058 24.6023C107.425 24.2727 107.847 24.0341 108.325 23.8864C108.802 23.7348 109.304 23.6591 109.83 23.6591C110.179 23.6591 110.548 23.7008 110.938 23.7841C111.332 23.8636 111.7 24.0114 112.041 24.2273C112.385 24.4432 112.668 24.7519 112.887 25.1534C113.107 25.5511 113.217 26.0682 113.217 26.7045V32.5H111.558V31.3068H111.489C111.38 31.5265 111.215 31.7424 110.995 31.9545C110.775 32.1667 110.493 32.3428 110.149 32.483C109.804 32.6231 109.391 32.6932 108.91 32.6932ZM109.279 31.3295C109.749 31.3295 110.15 31.2367 110.484 31.0511C110.821 30.8655 111.077 30.6231 111.251 30.3239C111.429 30.0208 111.518 29.697 111.518 29.3523V28.2273C111.457 28.2879 111.34 28.3447 111.166 28.3977C110.995 28.447 110.8 28.4905 110.58 28.5284C110.361 28.5625 110.147 28.5947 109.938 28.625C109.73 28.6515 109.556 28.6742 109.416 28.6932C109.086 28.7348 108.785 28.8049 108.512 28.9034C108.243 29.0019 108.027 29.1439 107.864 29.3295C107.705 29.5114 107.626 29.7538 107.626 30.0568C107.626 30.4773 107.781 30.7955 108.092 31.0114C108.402 31.2235 108.798 31.3295 109.279 31.3295ZM118.836 32.6761C117.991 32.6761 117.264 32.4848 116.654 32.1023C116.048 31.7159 115.582 31.1837 115.256 30.5057C114.93 29.8277 114.768 29.0511 114.768 28.1761C114.768 27.2898 114.934 26.5076 115.268 25.8295C115.601 25.1477 116.071 24.6155 116.677 24.233C117.283 23.8504 117.997 23.6591 118.819 23.6591C119.482 23.6591 120.072 23.7822 120.591 24.0284C121.11 24.2708 121.529 24.6117 121.847 25.0511C122.169 25.4905 122.36 26.0038 122.421 26.5909H120.768C120.677 26.1818 120.468 25.8295 120.143 25.5341C119.821 25.2386 119.389 25.0909 118.847 25.0909C118.374 25.0909 117.959 25.2159 117.603 25.4659C117.25 25.7121 116.976 26.0644 116.779 26.5227C116.582 26.9773 116.483 27.5152 116.483 28.1364C116.483 28.7727 116.58 29.322 116.773 29.7841C116.966 30.2462 117.239 30.6042 117.591 30.858C117.947 31.1117 118.366 31.2386 118.847 31.2386C119.169 31.2386 119.461 31.1799 119.722 31.0625C119.987 30.9413 120.209 30.7689 120.387 30.5455C120.569 30.322 120.696 30.053 120.768 29.7386H122.421C122.36 30.303 122.177 30.8068 121.87 31.25C121.563 31.6932 121.152 32.0417 120.637 32.2955C120.125 32.5492 119.525 32.6761 118.836 32.6761ZM118.222 32.4545H119.336L119.245 32.9205C119.574 32.9735 119.862 33.1061 120.108 33.3182C120.355 33.5303 120.478 33.8504 120.478 34.2784C120.482 34.7898 120.26 35.2045 119.813 35.5227C119.37 35.8409 118.728 36 117.887 36L117.853 35.0511C118.247 35.0511 118.565 34.9943 118.807 34.8807C119.053 34.767 119.178 34.5833 119.182 34.3295C119.186 34.0758 119.091 33.8977 118.898 33.7955C118.709 33.6932 118.406 33.6212 117.989 33.5795L118.222 32.4545ZM126.457 32.6932C125.904 32.6932 125.404 32.5909 124.957 32.3864C124.51 32.178 124.156 31.8769 123.895 31.483C123.637 31.089 123.509 30.6061 123.509 30.0341C123.509 29.5417 123.603 29.1364 123.793 28.8182C123.982 28.5 124.238 28.2481 124.56 28.0625C124.882 27.8769 125.242 27.7367 125.639 27.642C126.037 27.5473 126.442 27.4754 126.855 27.4261C127.378 27.3655 127.802 27.3163 128.128 27.2784C128.454 27.2367 128.69 27.1705 128.838 27.0795C128.986 26.9886 129.06 26.8409 129.06 26.6364V26.5966C129.06 26.1004 128.92 25.7159 128.639 25.4432C128.363 25.1705 127.95 25.0341 127.401 25.0341C126.829 25.0341 126.378 25.161 126.048 25.4148C125.723 25.6648 125.497 25.9432 125.372 26.25L123.776 25.8864C123.965 25.3561 124.242 24.928 124.605 24.6023C124.973 24.2727 125.395 24.0341 125.872 23.8864C126.349 23.7348 126.851 23.6591 127.378 23.6591C127.726 23.6591 128.096 23.7008 128.486 23.7841C128.88 23.8636 129.247 24.0114 129.588 24.2273C129.933 24.4432 130.215 24.7519 130.435 25.1534C130.654 25.5511 130.764 26.0682 130.764 26.7045V32.5H129.105V31.3068H129.037C128.927 31.5265 128.762 31.7424 128.543 31.9545C128.323 32.1667 128.041 32.3428 127.696 32.483C127.351 32.6231 126.939 32.6932 126.457 32.6932ZM126.827 31.3295C127.296 31.3295 127.698 31.2367 128.031 31.0511C128.368 30.8655 128.624 30.6231 128.798 30.3239C128.976 30.0208 129.065 29.697 129.065 29.3523V28.2273C129.005 28.2879 128.887 28.3447 128.713 28.3977C128.543 28.447 128.348 28.4905 128.128 28.5284C127.908 28.5625 127.694 28.5947 127.486 28.625C127.278 28.6515 127.103 28.6742 126.963 28.6932C126.634 28.7348 126.332 28.8049 126.06 28.9034C125.791 29.0019 125.575 29.1439 125.412 29.3295C125.253 29.5114 125.173 29.7538 125.173 30.0568C125.173 30.4773 125.329 30.7955 125.639 31.0114C125.95 31.2235 126.346 31.3295 126.827 31.3295ZM125.759 22.7159L124.617 22.6818C124.617 22.053 124.785 21.5511 125.122 21.1761C125.463 20.8011 125.884 20.6136 126.384 20.6136C126.615 20.6136 126.817 20.6534 126.992 20.733C127.166 20.8087 127.329 20.8977 127.48 21C127.635 21.0985 127.789 21.1875 127.94 21.267C128.096 21.3428 128.268 21.3807 128.457 21.3807C128.677 21.3807 128.855 21.2973 128.992 21.1307C129.132 20.964 129.202 20.7576 129.202 20.5114L130.321 20.5852C130.321 21.2178 130.151 21.7159 129.81 22.0795C129.469 22.4394 129.05 22.6212 128.554 22.625C128.285 22.625 128.062 22.5871 127.884 22.5114C127.709 22.4318 127.554 22.3428 127.418 22.2443C127.281 22.142 127.141 22.0511 126.997 21.9716C126.853 21.892 126.681 21.8523 126.48 21.8523C126.268 21.8523 126.094 21.9356 125.957 22.1023C125.825 22.2652 125.759 22.4697 125.759 22.7159ZM136.383 32.6761C135.565 32.6761 134.851 32.4886 134.241 32.1136C133.631 31.7386 133.158 31.214 132.821 30.5398C132.484 29.8655 132.315 29.0777 132.315 28.1761C132.315 27.2708 132.484 26.4792 132.821 25.8011C133.158 25.1231 133.631 24.5966 134.241 24.2216C134.851 23.8466 135.565 23.6591 136.383 23.6591C137.201 23.6591 137.915 23.8466 138.525 24.2216C139.135 24.5966 139.609 25.1231 139.946 25.8011C140.283 26.4792 140.451 27.2708 140.451 28.1761C140.451 29.0777 140.283 29.8655 139.946 30.5398C139.609 31.214 139.135 31.7386 138.525 32.1136C137.915 32.4886 137.201 32.6761 136.383 32.6761ZM136.389 31.25C136.919 31.25 137.359 31.1098 137.707 30.8295C138.056 30.5492 138.313 30.1761 138.48 29.7102C138.65 29.2443 138.735 28.7311 138.735 28.1705C138.735 27.6136 138.65 27.1023 138.48 26.6364C138.313 26.1667 138.056 25.7898 137.707 25.5057C137.359 25.2216 136.919 25.0795 136.389 25.0795C135.855 25.0795 135.412 25.2216 135.059 25.5057C134.711 25.7898 134.451 26.1667 134.281 26.6364C134.114 27.1023 134.031 27.6136 134.031 28.1705C134.031 28.7311 134.114 29.2443 134.281 29.7102C134.451 30.1761 134.711 30.5492 135.059 30.8295C135.412 31.1098 135.855 31.25 136.389 31.25ZM145.942 32.5V23.7727H147.584V25.1591H147.675C147.834 24.6894 148.114 24.3201 148.516 24.0511C148.921 23.7784 149.38 23.642 149.891 23.642C149.997 23.642 150.122 23.6458 150.266 23.6534C150.414 23.661 150.529 23.6705 150.613 23.6818V25.3068C150.544 25.2879 150.423 25.267 150.249 25.2443C150.075 25.2178 149.9 25.2045 149.726 25.2045C149.325 25.2045 148.967 25.2898 148.652 25.4602C148.342 25.6269 148.095 25.8598 147.914 26.1591C147.732 26.4545 147.641 26.7917 147.641 27.1705V32.5H145.942ZM155.212 32.6761C154.352 32.6761 153.611 32.4924 152.99 32.125C152.373 31.7538 151.895 31.233 151.558 30.5625C151.225 29.8883 151.058 29.0985 151.058 28.1932C151.058 27.2992 151.225 26.5114 151.558 25.8295C151.895 25.1477 152.365 24.6155 152.967 24.233C153.573 23.8504 154.282 23.6591 155.092 23.6591C155.585 23.6591 156.062 23.7405 156.524 23.9034C156.986 24.0663 157.401 24.322 157.768 24.6705C158.136 25.0189 158.426 25.4716 158.638 26.0284C158.85 26.5814 158.956 27.2538 158.956 28.0455V28.6477H152.018V27.375H157.291C157.291 26.928 157.2 26.5322 157.018 26.1875C156.837 25.839 156.581 25.5644 156.251 25.3636C155.926 25.1629 155.543 25.0625 155.104 25.0625C154.626 25.0625 154.21 25.1799 153.854 25.4148C153.501 25.6458 153.229 25.9489 153.035 26.3239C152.846 26.6951 152.751 27.0985 152.751 27.5341V28.5284C152.751 29.1117 152.854 29.608 153.058 30.017C153.266 30.4261 153.556 30.7386 153.927 30.9545C154.299 31.1667 154.732 31.2727 155.229 31.2727C155.551 31.2727 155.844 31.2273 156.109 31.1364C156.374 31.0417 156.604 30.9015 156.797 30.7159C156.99 30.5303 157.138 30.3011 157.24 30.0284L158.848 30.3182C158.719 30.7917 158.488 31.2064 158.155 31.5625C157.825 31.9148 157.41 32.1894 156.91 32.3864C156.414 32.5795 155.848 32.6761 155.212 32.6761ZM164.197 32.6761C163.352 32.6761 162.625 32.4848 162.015 32.1023C161.409 31.7159 160.943 31.1837 160.617 30.5057C160.292 29.8277 160.129 29.0511 160.129 28.1761C160.129 27.2898 160.295 26.5076 160.629 25.8295C160.962 25.1477 161.432 24.6155 162.038 24.233C162.644 23.8504 163.358 23.6591 164.18 23.6591C164.843 23.6591 165.434 23.7822 165.953 24.0284C166.472 24.2708 166.89 24.6117 167.208 25.0511C167.53 25.4905 167.722 26.0038 167.782 26.5909H166.129C166.038 26.1818 165.83 25.8295 165.504 25.5341C165.182 25.2386 164.75 25.0909 164.208 25.0909C163.735 25.0909 163.32 25.2159 162.964 25.4659C162.612 25.7121 162.337 26.0644 162.14 26.5227C161.943 26.9773 161.845 27.5152 161.845 28.1364C161.845 28.7727 161.941 29.322 162.134 29.7841C162.328 30.2462 162.6 30.6042 162.953 30.858C163.309 31.1117 163.727 31.2386 164.208 31.2386C164.53 31.2386 164.822 31.1799 165.083 31.0625C165.348 30.9413 165.57 30.7689 165.748 30.5455C165.93 30.322 166.057 30.053 166.129 29.7386H167.782C167.722 30.303 167.538 30.8068 167.231 31.25C166.924 31.6932 166.513 32.0417 165.998 32.2955C165.487 32.5492 164.886 32.6761 164.197 32.6761ZM173.04 32.6761C172.18 32.6761 171.44 32.4924 170.819 32.125C170.201 31.7538 169.724 31.233 169.387 30.5625C169.054 29.8883 168.887 29.0985 168.887 28.1932C168.887 27.2992 169.054 26.5114 169.387 25.8295C169.724 25.1477 170.194 24.6155 170.796 24.233C171.402 23.8504 172.11 23.6591 172.921 23.6591C173.413 23.6591 173.891 23.7405 174.353 23.9034C174.815 24.0663 175.23 24.322 175.597 24.6705C175.965 25.0189 176.254 25.4716 176.466 26.0284C176.679 26.5814 176.785 27.2538 176.785 28.0455V28.6477H169.847V27.375H175.12C175.12 26.928 175.029 26.5322 174.847 26.1875C174.665 25.839 174.41 25.5644 174.08 25.3636C173.754 25.1629 173.372 25.0625 172.932 25.0625C172.455 25.0625 172.038 25.1799 171.682 25.4148C171.33 25.6458 171.057 25.9489 170.864 26.3239C170.675 26.6951 170.58 27.0985 170.58 27.5341V28.5284C170.58 29.1117 170.682 29.608 170.887 30.017C171.095 30.4261 171.385 30.7386 171.756 30.9545C172.127 31.1667 172.561 31.2727 173.057 31.2727C173.379 31.2727 173.673 31.2273 173.938 31.1364C174.203 31.0417 174.432 30.9015 174.626 30.7159C174.819 30.5303 174.966 30.3011 175.069 30.0284L176.677 30.3182C176.548 30.7917 176.317 31.2064 175.983 31.5625C175.654 31.9148 175.239 32.1894 174.739 32.3864C174.243 32.5795 173.677 32.6761 173.04 32.6761ZM178.486 32.5V20.8636H180.185V25.1875H180.287C180.386 25.0057 180.528 24.7955 180.713 24.5568C180.899 24.3182 181.156 24.1098 181.486 23.9318C181.815 23.75 182.251 23.6591 182.793 23.6591C183.497 23.6591 184.126 23.8371 184.679 24.1932C185.232 24.5492 185.666 25.0625 185.98 25.733C186.298 26.4034 186.457 27.2102 186.457 28.1534C186.457 29.0966 186.3 29.9053 185.986 30.5795C185.672 31.25 185.24 31.767 184.69 32.1307C184.141 32.4905 183.514 32.6705 182.81 32.6705C182.279 32.6705 181.846 32.5814 181.509 32.4034C181.175 32.2254 180.914 32.017 180.725 31.7784C180.535 31.5398 180.389 31.3277 180.287 31.142H180.145V32.5H178.486ZM180.151 28.1364C180.151 28.75 180.24 29.2879 180.418 29.75C180.596 30.2121 180.853 30.5739 181.19 30.8352C181.528 31.0928 181.94 31.2216 182.429 31.2216C182.937 31.2216 183.361 31.0871 183.702 30.8182C184.043 30.5455 184.3 30.1761 184.475 29.7102C184.653 29.2443 184.742 28.7197 184.742 28.1364C184.742 27.5606 184.654 27.0436 184.48 26.5852C184.31 26.1269 184.052 25.7652 183.707 25.5C183.367 25.2348 182.94 25.1023 182.429 25.1023C181.937 25.1023 181.52 25.2292 181.179 25.483C180.842 25.7367 180.586 26.0909 180.412 26.5455C180.238 27 180.151 27.5303 180.151 28.1364ZM188.045 32.5V23.7727H189.744V32.5H188.045ZM188.903 22.4261C188.608 22.4261 188.354 22.3277 188.142 22.1307C187.933 21.9299 187.829 21.6913 187.829 21.4148C187.829 21.1345 187.933 20.8958 188.142 20.6989C188.354 20.4981 188.608 20.3977 188.903 20.3977C189.199 20.3977 189.45 20.4981 189.659 20.6989C189.871 20.8958 189.977 21.1345 189.977 21.4148C189.977 21.6913 189.871 21.9299 189.659 22.1307C189.45 22.3277 189.199 22.4261 188.903 22.4261ZM194.977 32.6705C194.272 32.6705 193.643 32.4905 193.09 32.1307C192.541 31.767 192.109 31.25 191.795 30.5795C191.484 29.9053 191.329 29.0966 191.329 28.1534C191.329 27.2102 191.486 26.4034 191.8 25.733C192.119 25.0625 192.554 24.5492 193.107 24.1932C193.66 23.8371 194.287 23.6591 194.988 23.6591C195.53 23.6591 195.965 23.75 196.295 23.9318C196.628 24.1098 196.886 24.3182 197.067 24.5568C197.253 24.7955 197.397 25.0057 197.499 25.1875H197.602V20.8636H199.3V32.5H197.641V31.142H197.499C197.397 31.3277 197.249 31.5398 197.056 31.7784C196.867 32.017 196.605 32.2254 196.272 32.4034C195.939 32.5814 195.507 32.6705 194.977 32.6705ZM195.352 31.2216C195.84 31.2216 196.253 31.0928 196.59 30.8352C196.931 30.5739 197.189 30.2121 197.363 29.75C197.541 29.2879 197.63 28.75 197.63 28.1364C197.63 27.5303 197.543 27 197.369 26.5455C197.194 26.0909 196.939 25.7367 196.602 25.483C196.264 25.2292 195.848 25.1023 195.352 25.1023C194.84 25.1023 194.414 25.2348 194.073 25.5C193.732 25.7652 193.475 26.1269 193.3 26.5852C193.13 27.0436 193.045 27.5606 193.045 28.1364C193.045 28.7197 193.132 29.2443 193.306 29.7102C193.48 30.1761 193.738 30.5455 194.079 30.8182C194.424 31.0871 194.848 31.2216 195.352 31.2216ZM203.945 32.6932C203.392 32.6932 202.892 32.5909 202.445 32.3864C201.998 32.178 201.644 31.8769 201.382 31.483C201.125 31.089 200.996 30.6061 200.996 30.0341C200.996 29.5417 201.091 29.1364 201.28 28.8182C201.47 28.5 201.725 28.2481 202.047 28.0625C202.369 27.8769 202.729 27.7367 203.127 27.642C203.524 27.5473 203.93 27.4754 204.343 27.4261C204.865 27.3655 205.29 27.3163 205.615 27.2784C205.941 27.2367 206.178 27.1705 206.326 27.0795C206.473 26.9886 206.547 26.8409 206.547 26.6364V26.5966C206.547 26.1004 206.407 25.7159 206.127 25.4432C205.85 25.1705 205.437 25.0341 204.888 25.0341C204.316 25.0341 203.865 25.161 203.536 25.4148C203.21 25.6648 202.985 25.9432 202.86 26.25L201.263 25.8864C201.453 25.3561 201.729 24.928 202.093 24.6023C202.46 24.2727 202.882 24.0341 203.36 23.8864C203.837 23.7348 204.339 23.6591 204.865 23.6591C205.214 23.6591 205.583 23.7008 205.973 23.7841C206.367 23.8636 206.735 24.0114 207.076 24.2273C207.42 24.4432 207.703 24.7519 207.922 25.1534C208.142 25.5511 208.252 26.0682 208.252 26.7045V32.5H206.593V31.3068H206.524C206.415 31.5265 206.25 31.7424 206.03 31.9545C205.81 32.1667 205.528 32.3428 205.184 32.483C204.839 32.6231 204.426 32.6932 203.945 32.6932ZM204.314 31.3295C204.784 31.3295 205.185 31.2367 205.519 31.0511C205.856 30.8655 206.112 30.6231 206.286 30.3239C206.464 30.0208 206.553 29.697 206.553 29.3523V28.2273C206.492 28.2879 206.375 28.3447 206.201 28.3977C206.03 28.447 205.835 28.4905 205.615 28.5284C205.396 28.5625 205.182 28.5947 204.973 28.625C204.765 28.6515 204.591 28.6742 204.451 28.6932C204.121 28.7348 203.82 28.8049 203.547 28.9034C203.278 29.0019 203.062 29.1439 202.899 29.3295C202.74 29.5114 202.661 29.7538 202.661 30.0568C202.661 30.4773 202.816 30.7955 203.127 31.0114C203.437 31.2235 203.833 31.3295 204.314 31.3295Z" fill="#D1D2D2"/>
<path d="M309.084 30.6662C308.634 30.6662 308.227 30.5816 307.86 30.4123C307.494 30.2399 307.203 29.9922 306.988 29.669C306.772 29.3428 306.665 28.9489 306.665 28.4872C306.665 28.081 306.745 27.7517 306.905 27.4993C307.065 27.2438 307.279 27.0438 307.547 26.8991C307.814 26.7545 308.11 26.6468 308.433 26.576C308.759 26.5021 309.087 26.4437 309.416 26.4006C309.847 26.3452 310.196 26.3036 310.464 26.2759C310.735 26.2451 310.932 26.1944 311.055 26.1236C311.181 26.0528 311.244 25.9297 311.244 25.7543V25.7173C311.244 25.2618 311.12 24.9079 310.87 24.6555C310.624 24.4032 310.25 24.277 309.749 24.277C309.228 24.277 308.821 24.3909 308.525 24.6186C308.23 24.8464 308.022 25.0895 307.902 25.348L306.868 24.9787C307.053 24.5478 307.299 24.2124 307.607 23.9723C307.917 23.7292 308.256 23.5599 308.622 23.4645C308.991 23.366 309.355 23.3168 309.712 23.3168C309.939 23.3168 310.201 23.3445 310.496 23.3999C310.795 23.4522 311.083 23.5614 311.36 23.7276C311.64 23.8938 311.872 24.1446 312.057 24.4801C312.241 24.8156 312.334 25.2649 312.334 25.8281V30.5H311.244V29.5398H311.189C311.115 29.6937 310.992 29.8583 310.82 30.0337C310.647 30.2092 310.418 30.3584 310.132 30.4815C309.846 30.6046 309.496 30.6662 309.084 30.6662ZM309.25 29.6875C309.681 29.6875 310.044 29.6029 310.339 29.4336C310.638 29.2643 310.863 29.0458 311.013 28.7781C311.167 28.5103 311.244 28.2287 311.244 27.9332V26.9361C311.198 26.9915 311.097 27.0423 310.94 27.0884C310.786 27.1315 310.607 27.17 310.404 27.2038C310.204 27.2346 310.009 27.2623 309.818 27.2869C309.63 27.3085 309.478 27.3269 309.361 27.3423C309.078 27.3793 308.813 27.4393 308.567 27.5224C308.324 27.6024 308.127 27.724 307.976 27.8871C307.828 28.0471 307.754 28.2656 307.754 28.5426C307.754 28.9212 307.894 29.2074 308.174 29.4013C308.458 29.5921 308.816 29.6875 309.25 29.6875ZM317.185 33.3068C316.658 33.3068 316.206 33.2391 315.827 33.1037C315.449 32.9714 315.133 32.7959 314.881 32.5774C314.632 32.362 314.433 32.1312 314.285 31.8849L315.153 31.2756C315.252 31.4048 315.376 31.5526 315.527 31.7188C315.678 31.888 315.884 32.0342 316.146 32.1573C316.411 32.2835 316.757 32.3466 317.185 32.3466C317.757 32.3466 318.229 32.2081 318.602 31.9311C318.974 31.6541 319.16 31.2202 319.16 30.6293V29.1889H319.068C318.988 29.3182 318.874 29.4782 318.726 29.669C318.582 29.8568 318.373 30.0245 318.099 30.1722C317.828 30.3169 317.462 30.3892 317 30.3892C316.427 30.3892 315.914 30.2538 315.458 29.983C315.006 29.7121 314.647 29.3182 314.382 28.8011C314.121 28.2841 313.99 27.6562 313.99 26.9176C313.99 26.1913 314.118 25.5588 314.373 25.0202C314.629 24.4786 314.984 24.06 315.44 23.7646C315.895 23.466 316.421 23.3168 317.018 23.3168C317.48 23.3168 317.846 23.3937 318.117 23.5476C318.391 23.6984 318.6 23.8707 318.745 24.0646C318.893 24.2554 319.007 24.4124 319.087 24.5355H319.197V23.4091H320.25V30.7031C320.25 31.3125 320.111 31.808 319.834 32.1896C319.561 32.5743 319.191 32.8559 318.726 33.0344C318.265 33.216 317.751 33.3068 317.185 33.3068ZM317.148 29.4105C317.585 29.4105 317.954 29.3105 318.256 29.1104C318.557 28.9104 318.786 28.6226 318.943 28.2472C319.1 27.8717 319.179 27.4223 319.179 26.8991C319.179 26.3883 319.102 25.9374 318.948 25.5465C318.794 25.1557 318.566 24.8494 318.265 24.6278C317.963 24.4062 317.591 24.2955 317.148 24.2955C316.686 24.2955 316.301 24.4124 315.994 24.6463C315.689 24.8802 315.46 25.1941 315.306 25.5881C315.155 25.982 315.079 26.419 315.079 26.8991C315.079 27.3916 315.156 27.8271 315.31 28.2056C315.467 28.5811 315.698 28.8765 316.003 29.092C316.311 29.3043 316.692 29.4105 317.148 29.4105ZM325.125 30.6477C324.485 30.6477 323.923 30.4954 323.44 30.1907C322.96 29.886 322.584 29.4598 322.313 28.9119C322.046 28.3641 321.912 27.724 321.912 26.9915C321.912 26.2528 322.046 25.6081 322.313 25.0572C322.584 24.5063 322.96 24.0785 323.44 23.7738C323.923 23.4691 324.485 23.3168 325.125 23.3168C325.765 23.3168 326.325 23.4691 326.805 23.7738C327.289 24.0785 327.664 24.5063 327.932 25.0572C328.203 25.6081 328.338 26.2528 328.338 26.9915C328.338 27.724 328.203 28.3641 327.932 28.9119C327.664 29.4598 327.289 29.886 326.805 30.1907C326.325 30.4954 325.765 30.6477 325.125 30.6477ZM325.125 29.669C325.611 29.669 326.011 29.5444 326.325 29.2951C326.639 29.0458 326.871 28.718 327.022 28.3118C327.173 27.9055 327.248 27.4654 327.248 26.9915C327.248 26.5175 327.173 26.0759 327.022 25.6665C326.871 25.2572 326.639 24.9264 326.325 24.674C326.011 24.4216 325.611 24.2955 325.125 24.2955C324.639 24.2955 324.239 24.4216 323.925 24.674C323.611 24.9264 323.378 25.2572 323.228 25.6665C323.077 26.0759 323.001 26.5175 323.001 26.9915C323.001 27.4654 323.077 27.9055 323.228 28.3118C323.378 28.718 323.611 29.0458 323.925 29.2951C324.239 29.5444 324.639 29.669 325.125 29.669ZM330.001 30.5V23.4091H331.054V24.4801H331.127C331.257 24.1293 331.491 23.8446 331.829 23.6261C332.168 23.4076 332.549 23.2983 332.974 23.2983C333.054 23.2983 333.154 23.2998 333.274 23.3029C333.394 23.306 333.485 23.3106 333.547 23.3168V24.4247C333.51 24.4155 333.425 24.4016 333.293 24.3832C333.163 24.3616 333.026 24.3509 332.882 24.3509C332.537 24.3509 332.229 24.4232 331.958 24.5678C331.691 24.7094 331.478 24.9064 331.321 25.1587C331.167 25.408 331.091 25.6927 331.091 26.0128V30.5H330.001ZM336.925 30.6662C336.475 30.6662 336.068 30.5816 335.701 30.4123C335.335 30.2399 335.044 29.9922 334.829 29.669C334.613 29.3428 334.506 28.9489 334.506 28.4872C334.506 28.081 334.586 27.7517 334.746 27.4993C334.906 27.2438 335.12 27.0438 335.387 26.8991C335.655 26.7545 335.951 26.6468 336.274 26.576C336.6 26.5021 336.928 26.4437 337.257 26.4006C337.688 26.3452 338.037 26.3036 338.305 26.2759C338.576 26.2451 338.773 26.1944 338.896 26.1236C339.022 26.0528 339.085 25.9297 339.085 25.7543V25.7173C339.085 25.2618 338.96 24.9079 338.711 24.6555C338.465 24.4032 338.091 24.277 337.589 24.277C337.069 24.277 336.661 24.3909 336.366 24.6186C336.071 24.8464 335.863 25.0895 335.743 25.348L334.709 24.9787C334.893 24.5478 335.14 24.2124 335.447 23.9723C335.758 23.7292 336.097 23.5599 336.463 23.4645C336.832 23.366 337.195 23.3168 337.552 23.3168C337.78 23.3168 338.042 23.3445 338.337 23.3999C338.636 23.4522 338.924 23.5614 339.201 23.7276C339.481 23.8938 339.713 24.1446 339.898 24.4801C340.082 24.8156 340.175 25.2649 340.175 25.8281V30.5H339.085V29.5398H339.03C338.956 29.6937 338.833 29.8583 338.66 30.0337C338.488 30.2092 338.259 30.3584 337.973 30.4815C337.686 30.6046 337.337 30.6662 336.925 30.6662ZM337.091 29.6875C337.522 29.6875 337.885 29.6029 338.18 29.4336C338.479 29.2643 338.704 29.0458 338.854 28.7781C339.008 28.5103 339.085 28.2287 339.085 27.9332V26.9361C339.039 26.9915 338.937 27.0423 338.78 27.0884C338.627 27.1315 338.448 27.17 338.245 27.2038C338.045 27.2346 337.849 27.2623 337.659 27.2869C337.471 27.3085 337.319 27.3269 337.202 27.3423C336.918 27.3793 336.654 27.4393 336.408 27.5224C336.164 27.6024 335.967 27.724 335.817 27.8871C335.669 28.0471 335.595 28.2656 335.595 28.5426C335.595 28.9212 335.735 29.2074 336.015 29.4013C336.298 29.5921 336.657 29.6875 337.091 29.6875Z" fill="#727272"/>
<path d="M65.5327 42.0455L68.3395 50.0043H68.4503L71.2571 42.0455H72.4574L68.9858 51.5H67.804L64.3324 42.0455H65.5327ZM76.0028 51.6477C75.3627 51.6477 74.801 51.4954 74.3178 51.1907C73.8377 50.886 73.4622 50.4598 73.1914 49.9119C72.9237 49.3641 72.7898 48.724 72.7898 47.9915C72.7898 47.2528 72.9237 46.6081 73.1914 46.0572C73.4622 45.5063 73.8377 45.0785 74.3178 44.7738C74.801 44.4691 75.3627 44.3168 76.0028 44.3168C76.643 44.3168 77.2031 44.4691 77.6832 44.7738C78.1664 45.0785 78.5419 45.5063 78.8097 46.0572C79.0805 46.6081 79.2159 47.2528 79.2159 47.9915C79.2159 48.724 79.0805 49.3641 78.8097 49.9119C78.5419 50.4598 78.1664 50.886 77.6832 51.1907C77.2031 51.4954 76.643 51.6477 76.0028 51.6477ZM76.0028 50.669C76.4891 50.669 76.8892 50.5444 77.2031 50.2951C77.517 50.0458 77.7494 49.718 77.9002 49.3118C78.051 48.9055 78.1264 48.4654 78.1264 47.9915C78.1264 47.5175 78.051 47.0759 77.9002 46.6665C77.7494 46.2572 77.517 45.9264 77.2031 45.674C76.8892 45.4216 76.4891 45.2955 76.0028 45.2955C75.5166 45.2955 75.1165 45.4216 74.8026 45.674C74.4886 45.9264 74.2563 46.2572 74.1055 46.6665C73.9547 47.0759 73.8793 47.5175 73.8793 47.9915C73.8793 48.4654 73.9547 48.9055 74.1055 49.3118C74.2563 49.718 74.4886 50.0458 74.8026 50.2951C75.1165 50.5444 75.5166 50.669 76.0028 50.669ZM83.7597 51.6477C83.0949 51.6477 82.5225 51.4908 82.0423 51.1768C81.5622 50.8629 81.1929 50.4305 80.9344 49.8796C80.6759 49.3287 80.5466 48.6993 80.5466 47.9915C80.5466 47.2713 80.6789 46.6358 80.9436 46.0849C81.2114 45.5309 81.5838 45.0985 82.0608 44.7876C82.5409 44.4737 83.1011 44.3168 83.7412 44.3168C84.2398 44.3168 84.6891 44.4091 85.0892 44.5938C85.4893 44.7784 85.8171 45.0369 86.0725 45.3693C86.328 45.7017 86.4865 46.0895 86.548 46.5327H85.4585C85.3754 46.2095 85.1908 45.9233 84.9046 45.674C84.6214 45.4216 84.2398 45.2955 83.7597 45.2955C83.335 45.2955 82.9626 45.4062 82.6425 45.6278C82.3255 45.8464 82.0777 46.1557 81.8992 46.5558C81.7238 46.9528 81.6361 47.419 81.6361 47.9545C81.6361 48.5024 81.7223 48.9794 81.8946 49.3857C82.07 49.7919 82.3163 50.1074 82.6333 50.332C82.9533 50.5567 83.3288 50.669 83.7597 50.669C84.0428 50.669 84.2998 50.6198 84.5306 50.5213C84.7615 50.4228 84.9569 50.2812 85.1169 50.0966C85.277 49.9119 85.3908 49.6903 85.4585 49.4318H86.548C86.4865 49.8504 86.3341 50.2274 86.091 50.5629C85.8509 50.8952 85.5324 51.1599 85.1354 51.3569C84.7414 51.5508 84.2829 51.6477 83.7597 51.6477ZM91.1137 51.6477C90.4305 51.6477 89.8411 51.4969 89.3456 51.1953C88.8532 50.8906 88.4731 50.4659 88.2053 49.9212C87.9407 49.3733 87.8083 48.7363 87.8083 48.0099C87.8083 47.2836 87.9407 46.6435 88.2053 46.0895C88.4731 45.5324 88.8455 45.0985 89.3225 44.7876C89.8026 44.4737 90.3628 44.3168 91.0029 44.3168C91.3722 44.3168 91.7369 44.3783 92.097 44.5014C92.4571 44.6245 92.7849 44.8246 93.0803 45.1016C93.3758 45.3755 93.6112 45.7386 93.7867 46.1911C93.9621 46.6435 94.0498 47.2005 94.0498 47.8622V48.3239H88.5839V47.3821H92.9419C92.9419 46.982 92.8618 46.625 92.7018 46.3111C92.5448 45.9972 92.3202 45.7494 92.0278 45.5678C91.7385 45.3862 91.3969 45.2955 91.0029 45.2955C90.569 45.2955 90.1935 45.4032 89.8765 45.6186C89.5626 45.831 89.321 46.108 89.1517 46.4496C88.9825 46.7912 88.8978 47.1574 88.8978 47.5483V48.1761C88.8978 48.7116 88.9901 49.1656 89.1748 49.538C89.3625 49.9073 89.6226 50.1889 89.955 50.3828C90.2874 50.5736 90.6736 50.669 91.1137 50.669C91.3999 50.669 91.6585 50.629 91.8893 50.549C92.1232 50.4659 92.3248 50.3428 92.4941 50.1797C92.6633 50.0135 92.7941 49.8073 92.8865 49.5611L93.939 49.8565C93.8282 50.2135 93.642 50.5275 93.3804 50.7983C93.1188 51.0661 92.7957 51.2753 92.411 51.4261C92.0262 51.5739 91.5938 51.6477 91.1137 51.6477ZM91.9078 43.5597L90.9475 42.267L89.9873 43.5597H88.9532V43.4858L90.449 41.5653H91.4461L92.9419 43.4858V43.5597H91.9078ZM99.3634 51.5V44.4091H100.416V45.4801H100.49C100.619 45.1293 100.853 44.8446 101.191 44.6261C101.53 44.4076 101.912 44.2983 102.336 44.2983C102.416 44.2983 102.516 44.2998 102.636 44.3029C102.756 44.306 102.847 44.3106 102.909 44.3168V45.4247C102.872 45.4155 102.787 45.4016 102.655 45.3832C102.526 45.3616 102.389 45.3509 102.244 45.3509C101.899 45.3509 101.592 45.4232 101.321 45.5678C101.053 45.7094 100.841 45.9064 100.684 46.1587C100.53 46.408 100.453 46.6927 100.453 47.0128V51.5H99.3634ZM106.957 51.6477C106.274 51.6477 105.685 51.4969 105.189 51.1953C104.697 50.8906 104.317 50.4659 104.049 49.9212C103.784 49.3733 103.652 48.7363 103.652 48.0099C103.652 47.2836 103.784 46.6435 104.049 46.0895C104.317 45.5324 104.689 45.0985 105.166 44.7876C105.646 44.4737 106.207 44.3168 106.847 44.3168C107.216 44.3168 107.581 44.3783 107.941 44.5014C108.301 44.6245 108.629 44.8246 108.924 45.1016C109.22 45.3755 109.455 45.7386 109.63 46.1911C109.806 46.6435 109.894 47.2005 109.894 47.8622V48.3239H104.428V47.3821H108.786C108.786 46.982 108.706 46.625 108.546 46.3111C108.389 45.9972 108.164 45.7494 107.872 45.5678C107.582 45.3862 107.241 45.2955 106.847 45.2955C106.413 45.2955 106.037 45.4032 105.72 45.6186C105.406 45.831 105.165 46.108 104.995 46.4496C104.826 46.7912 104.742 47.1574 104.742 47.5483V48.1761C104.742 48.7116 104.834 49.1656 105.019 49.538C105.206 49.9073 105.466 50.1889 105.799 50.3828C106.131 50.5736 106.517 50.669 106.957 50.669C107.244 50.669 107.502 50.629 107.733 50.549C107.967 50.4659 108.169 50.3428 108.338 50.1797C108.507 50.0135 108.638 49.8073 108.73 49.5611L109.783 49.8565C109.672 50.2135 109.486 50.5275 109.224 50.7983C108.963 51.0661 108.639 51.2753 108.255 51.4261C107.87 51.5739 107.438 51.6477 106.957 51.6477ZM114.432 51.6477C113.767 51.6477 113.194 51.4908 112.714 51.1768C112.234 50.8629 111.865 50.4305 111.606 49.8796C111.348 49.3287 111.218 48.6993 111.218 47.9915C111.218 47.2713 111.351 46.6358 111.616 46.0849C111.883 45.5309 112.256 45.0985 112.733 44.7876C113.213 44.4737 113.773 44.3168 114.413 44.3168C114.912 44.3168 115.361 44.4091 115.761 44.5938C116.161 44.7784 116.489 45.0369 116.744 45.3693C117 45.7017 117.158 46.0895 117.22 46.5327H116.13C116.047 46.2095 115.863 45.9233 115.576 45.674C115.293 45.4216 114.912 45.2955 114.432 45.2955C114.007 45.2955 113.634 45.4062 113.314 45.6278C112.997 45.8464 112.75 46.1557 112.571 46.5558C112.396 46.9528 112.308 47.419 112.308 47.9545C112.308 48.5024 112.394 48.9794 112.566 49.3857C112.742 49.7919 112.988 50.1074 113.305 50.332C113.625 50.5567 114.001 50.669 114.432 50.669C114.715 50.669 114.972 50.6198 115.203 50.5213C115.433 50.4228 115.629 50.2812 115.789 50.0966C115.949 49.9119 116.063 49.6903 116.13 49.4318H117.22C117.158 49.8504 117.006 50.2274 116.763 50.5629C116.523 50.8952 116.204 51.1599 115.807 51.3569C115.413 51.5508 114.955 51.6477 114.432 51.6477ZM121.786 51.6477C121.102 51.6477 120.513 51.4969 120.017 51.1953C119.525 50.8906 119.145 50.4659 118.877 49.9212C118.613 49.3733 118.48 48.7363 118.48 48.0099C118.48 47.2836 118.613 46.6435 118.877 46.0895C119.145 45.5324 119.517 45.0985 119.994 44.7876C120.475 44.4737 121.035 44.3168 121.675 44.3168C122.044 44.3168 122.409 44.3783 122.769 44.5014C123.129 44.6245 123.457 44.8246 123.752 45.1016C124.048 45.3755 124.283 45.7386 124.459 46.1911C124.634 46.6435 124.722 47.2005 124.722 47.8622V48.3239H119.256V47.3821H123.614C123.614 46.982 123.534 46.625 123.374 46.3111C123.217 45.9972 122.992 45.7494 122.7 45.5678C122.41 45.3862 122.069 45.2955 121.675 45.2955C121.241 45.2955 120.865 45.4032 120.548 45.6186C120.234 45.831 119.993 46.108 119.824 46.4496C119.654 46.7912 119.57 47.1574 119.57 47.5483V48.1761C119.57 48.7116 119.662 49.1656 119.847 49.538C120.034 49.9073 120.294 50.1889 120.627 50.3828C120.959 50.5736 121.345 50.669 121.786 50.669C122.072 50.669 122.33 50.629 122.561 50.549C122.795 50.4659 122.997 50.3428 123.166 50.1797C123.335 50.0135 123.466 49.8073 123.558 49.5611L124.611 49.8565C124.5 50.2135 124.314 50.5275 124.052 50.7983C123.791 51.0661 123.468 51.2753 123.083 51.4261C122.698 51.5739 122.266 51.6477 121.786 51.6477ZM126.527 51.5V42.0455H127.616V45.5355H127.709C127.789 45.4124 127.899 45.2554 128.041 45.0646C128.186 44.8707 128.392 44.6984 128.66 44.5476C128.93 44.3937 129.297 44.3168 129.758 44.3168C130.355 44.3168 130.882 44.466 131.337 44.7646C131.793 45.0631 132.148 45.4863 132.403 46.0341C132.659 46.5819 132.787 47.2282 132.787 47.973C132.787 48.724 132.659 49.3749 132.403 49.9258C132.148 50.4736 131.794 50.8983 131.342 51.1999C130.889 51.4985 130.368 51.6477 129.777 51.6477C129.321 51.6477 128.957 51.5723 128.683 51.4215C128.409 51.2676 128.198 51.0937 128.05 50.8999C127.902 50.7029 127.789 50.5398 127.709 50.4105H127.579V51.5H126.527ZM127.598 47.9545C127.598 48.4901 127.676 48.9625 127.833 49.3718C127.99 49.7781 128.219 50.0966 128.521 50.3274C128.823 50.5552 129.192 50.669 129.629 50.669C130.084 50.669 130.465 50.549 130.769 50.3089C131.077 50.0658 131.308 49.7396 131.462 49.3303C131.619 48.9179 131.697 48.4593 131.697 47.9545C131.697 47.456 131.62 47.0066 131.466 46.6065C131.316 46.2034 131.086 45.8848 130.778 45.6509C130.474 45.4139 130.091 45.2955 129.629 45.2955C129.186 45.2955 128.813 45.4078 128.512 45.6325C128.21 45.854 127.982 46.1649 127.829 46.565C127.675 46.962 127.598 47.4252 127.598 47.9545ZM137.426 51.6477C136.743 51.6477 136.154 51.4969 135.658 51.1953C135.166 50.8906 134.786 50.4659 134.518 49.9212C134.253 49.3733 134.121 48.7363 134.121 48.0099C134.121 47.2836 134.253 46.6435 134.518 46.0895C134.786 45.5324 135.158 45.0985 135.635 44.7876C136.115 44.4737 136.675 44.3168 137.315 44.3168C137.685 44.3168 138.049 44.3783 138.41 44.5014C138.77 44.6245 139.097 44.8246 139.393 45.1016C139.688 45.3755 139.924 45.7386 140.099 46.1911C140.275 46.6435 140.362 47.2005 140.362 47.8622V48.3239H134.896V47.3821H139.254C139.254 46.982 139.174 46.625 139.014 46.3111C138.857 45.9972 138.633 45.7494 138.34 45.5678C138.051 45.3862 137.709 45.2955 137.315 45.2955C136.881 45.2955 136.506 45.4032 136.189 45.6186C135.875 45.831 135.633 46.108 135.464 46.4496C135.295 46.7912 135.21 47.1574 135.21 47.5483V48.1761C135.21 48.7116 135.303 49.1656 135.487 49.538C135.675 49.9073 135.935 50.1889 136.267 50.3828C136.6 50.5736 136.986 50.669 137.426 50.669C137.712 50.669 137.971 50.629 138.202 50.549C138.436 50.4659 138.637 50.3428 138.807 50.1797C138.976 50.0135 139.107 49.8073 139.199 49.5611L140.252 49.8565C140.141 50.2135 139.955 50.5275 139.693 50.7983C139.431 51.0661 139.108 51.2753 138.723 51.4261C138.339 51.5739 137.906 51.6477 137.426 51.6477ZM146.488 48.6009V44.4091H147.578V51.5H146.488V50.2997H146.415C146.248 50.6598 145.99 50.966 145.639 51.2184C145.288 51.4677 144.845 51.5923 144.309 51.5923C143.866 51.5923 143.472 51.4954 143.128 51.3015C142.783 51.1045 142.512 50.8091 142.315 50.4151C142.118 50.0181 142.02 49.518 142.02 48.9148V44.4091H143.109V48.8409C143.109 49.358 143.254 49.7704 143.543 50.0781C143.835 50.3859 144.208 50.5398 144.66 50.5398C144.931 50.5398 145.207 50.4705 145.487 50.332C145.77 50.1935 146.007 49.9812 146.198 49.695C146.391 49.4087 146.488 49.044 146.488 48.6009ZM156.295 51.6293C155.599 51.6293 155.007 51.44 154.518 51.0614C154.028 50.6798 153.654 50.1274 153.396 49.4041C153.137 48.6778 153.008 47.8007 153.008 46.7727C153.008 45.7509 153.137 44.8784 153.396 44.1552C153.657 43.4289 154.033 42.8749 154.522 42.4933C155.015 42.1085 155.606 41.9162 156.295 41.9162C156.984 41.9162 157.574 42.1085 158.063 42.4933C158.555 42.8749 158.931 43.4289 159.189 44.1552C159.451 44.8784 159.582 45.7509 159.582 46.7727C159.582 47.8007 159.453 48.6778 159.194 49.4041C158.936 50.1274 158.562 50.6798 158.072 51.0614C157.583 51.44 156.99 51.6293 156.295 51.6293ZM156.295 50.6136C156.984 50.6136 157.52 50.2812 157.901 49.6165C158.283 48.9517 158.474 48.0038 158.474 46.7727C158.474 45.9541 158.386 45.257 158.211 44.6815C158.038 44.1059 157.789 43.6674 157.463 43.3658C157.14 43.0642 156.75 42.9134 156.295 42.9134C155.612 42.9134 155.078 43.2504 154.693 43.9244C154.308 44.5953 154.116 45.5447 154.116 46.7727C154.116 47.5914 154.202 48.2869 154.374 48.8594C154.547 49.4318 154.795 49.8673 155.118 50.1658C155.444 50.4644 155.836 50.6136 156.295 50.6136ZM162.65 50.2074L162.576 50.706C162.523 51.0568 162.443 51.4323 162.336 51.8324C162.231 52.2325 162.122 52.6095 162.008 52.9634C161.894 53.3174 161.8 53.599 161.726 53.8082H160.895C160.935 53.6113 160.988 53.3512 161.052 53.0281C161.117 52.7049 161.181 52.3433 161.246 51.9432C161.314 51.5462 161.369 51.1399 161.412 50.7244L161.468 50.2074H162.65ZM167.403 51.6293C166.708 51.6293 166.115 51.44 165.626 51.0614C165.137 50.6798 164.763 50.1274 164.504 49.4041C164.246 48.6778 164.116 47.8007 164.116 46.7727C164.116 45.7509 164.246 44.8784 164.504 44.1552C164.766 43.4289 165.141 42.8749 165.631 42.4933C166.123 42.1085 166.714 41.9162 167.403 41.9162C168.093 41.9162 168.682 42.1085 169.171 42.4933C169.664 42.8749 170.039 43.4289 170.298 44.1552C170.559 44.8784 170.69 45.7509 170.69 46.7727C170.69 47.8007 170.561 48.6778 170.302 49.4041C170.044 50.1274 169.67 50.6798 169.181 51.0614C168.691 51.44 168.099 51.6293 167.403 51.6293ZM167.403 50.6136C168.093 50.6136 168.628 50.2812 169.01 49.6165C169.391 48.9517 169.582 48.0038 169.582 46.7727C169.582 45.9541 169.495 45.257 169.319 44.6815C169.147 44.1059 168.898 43.6674 168.571 43.3658C168.248 43.0642 167.859 42.9134 167.403 42.9134C166.72 42.9134 166.186 43.2504 165.801 43.9244C165.417 44.5953 165.224 45.5447 165.224 46.7727C165.224 47.5914 165.311 48.2869 165.483 48.8594C165.655 49.4318 165.903 49.8673 166.226 50.1658C166.552 50.4644 166.945 50.6136 167.403 50.6136ZM175.768 42.0455V51.5H174.623V43.2457H174.568L172.26 44.7784V43.6151L174.623 42.0455H175.768ZM178.487 51.5V50.669L181.608 47.2528C181.974 46.8527 182.276 46.505 182.513 46.2095C182.75 45.911 182.925 45.6309 183.039 45.3693C183.156 45.1046 183.215 44.8277 183.215 44.5384C183.215 44.206 183.135 43.9182 182.975 43.6751C182.818 43.4319 182.602 43.2442 182.328 43.1119C182.054 42.9795 181.747 42.9134 181.405 42.9134C181.042 42.9134 180.725 42.9888 180.454 43.1396C180.186 43.2873 179.979 43.495 179.831 43.7628C179.686 44.0305 179.614 44.3445 179.614 44.7045H178.524C178.524 44.1506 178.652 43.6643 178.908 43.2457C179.163 42.8272 179.511 42.5009 179.951 42.267C180.394 42.0331 180.891 41.9162 181.442 41.9162C181.996 41.9162 182.487 42.0331 182.915 42.267C183.342 42.5009 183.678 42.8164 183.921 43.2134C184.164 43.6104 184.286 44.0521 184.286 44.5384C184.286 44.8861 184.223 45.2262 184.097 45.5586C183.973 45.8879 183.758 46.2557 183.45 46.6619C183.146 47.0651 182.722 47.5575 182.181 48.1392L180.057 50.4105V50.4844H184.452V51.5H178.487ZM189.313 51.6293C188.771 51.6293 188.284 51.5215 187.85 51.3061C187.416 51.0907 187.068 50.7952 186.806 50.4197C186.545 50.0443 186.402 49.6165 186.377 49.1364H187.485C187.528 49.5642 187.722 49.9181 188.067 50.1982C188.414 50.4751 188.83 50.6136 189.313 50.6136C189.701 50.6136 190.046 50.5228 190.347 50.3413C190.652 50.1597 190.89 49.9104 191.063 49.5934C191.238 49.2733 191.326 48.9117 191.326 48.5085C191.326 48.0961 191.235 47.7283 191.054 47.4052C190.875 47.079 190.629 46.822 190.315 46.6342C190.001 46.4465 189.642 46.3511 189.239 46.348C188.95 46.3449 188.653 46.3896 188.348 46.4819C188.044 46.5711 187.793 46.6866 187.596 46.8281L186.525 46.6989L187.097 42.0455H192.009V43.0611H188.057L187.725 45.8494H187.78C187.974 45.6955 188.217 45.5678 188.51 45.4663C188.802 45.3647 189.107 45.3139 189.424 45.3139C190.003 45.3139 190.518 45.4524 190.97 45.7294C191.426 46.0033 191.783 46.3788 192.041 46.8558C192.303 47.3329 192.434 47.8776 192.434 48.4901C192.434 49.0933 192.298 49.6319 192.028 50.1058C191.76 50.5767 191.391 50.9491 190.92 51.223C190.449 51.4938 189.913 51.6293 189.313 51.6293ZM198.09 51.5V42.0455H201.396C202.054 42.0455 202.597 42.1593 203.025 42.3871C203.453 42.6117 203.772 42.9149 203.981 43.2965C204.19 43.6751 204.295 44.0952 204.295 44.5568C204.295 44.9631 204.222 45.2985 204.078 45.5632C203.936 45.8279 203.748 46.0372 203.515 46.1911C203.284 46.3449 203.033 46.4588 202.762 46.5327V46.625C203.051 46.6435 203.342 46.745 203.635 46.9297C203.927 47.1143 204.172 47.379 204.369 47.7237C204.566 48.0684 204.664 48.4901 204.664 48.9886C204.664 49.4626 204.556 49.8888 204.341 50.2674C204.125 50.646 203.785 50.946 203.321 51.1676C202.856 51.3892 202.251 51.5 201.506 51.5H198.09ZM199.235 50.4844H201.506C202.254 50.4844 202.785 50.3397 203.099 50.0504C203.416 49.758 203.575 49.4041 203.575 48.9886C203.575 48.6686 203.493 48.3731 203.33 48.1023C203.167 47.8284 202.934 47.6098 202.633 47.4467C202.331 47.2805 201.974 47.1974 201.562 47.1974H199.235V50.4844ZM199.235 46.2003H201.359C201.703 46.2003 202.014 46.1326 202.291 45.9972C202.571 45.8617 202.793 45.6709 202.956 45.4247C203.122 45.1785 203.205 44.8892 203.205 44.5568C203.205 44.1413 203.061 43.7889 202.771 43.4996C202.482 43.2073 202.023 43.0611 201.396 43.0611H199.235V46.2003ZM206.028 43.0611V42.0455H213.119V43.0611H210.146V51.5H209.001V43.0611H206.028ZM222.1 45H220.956C220.888 44.6707 220.769 44.3814 220.6 44.1321C220.434 43.8828 220.231 43.6735 219.991 43.5043C219.754 43.3319 219.491 43.2027 219.201 43.1165C218.912 43.0303 218.61 42.9872 218.297 42.9872C217.724 42.9872 217.205 43.1319 216.741 43.4212C216.279 43.7105 215.911 44.1367 215.637 44.6999C215.367 45.2631 215.231 45.9541 215.231 46.7727C215.231 47.5914 215.367 48.2823 215.637 48.8455C215.911 49.4087 216.279 49.835 216.741 50.1243C217.205 50.4136 217.724 50.5582 218.297 50.5582C218.61 50.5582 218.912 50.5152 219.201 50.429C219.491 50.3428 219.754 50.2151 219.991 50.0458C220.231 49.8735 220.434 49.6626 220.6 49.4134C220.769 49.161 220.888 48.8717 220.956 48.5455H222.1C222.014 49.0286 221.857 49.4611 221.63 49.8427C221.402 50.2243 221.119 50.549 220.78 50.8168C220.442 51.0814 220.062 51.283 219.64 51.4215C219.221 51.56 218.774 51.6293 218.297 51.6293C217.49 51.6293 216.773 51.4323 216.145 51.0384C215.517 50.6444 215.023 50.0843 214.663 49.358C214.303 48.6316 214.123 47.7699 214.123 46.7727C214.123 45.7756 214.303 44.9138 214.663 44.1875C215.023 43.4612 215.517 42.901 216.145 42.5071C216.773 42.1132 217.49 41.9162 218.297 41.9162C218.774 41.9162 219.221 41.9854 219.64 42.1239C220.062 42.2624 220.442 42.4656 220.78 42.7333C221.119 42.998 221.402 43.3211 221.63 43.7028C221.857 44.0813 222.014 44.5137 222.1 45Z" fill="#727272"/>
</g>
<defs>
<clipPath id="bgblur_0_2595_13842_clip_path" transform="translate(16 16)"><rect x="0.5" y="0.5" width="357" height="71" rx="11.5"/>
</clipPath><linearGradient id="paint0_linear_2595_13842" x1="36" y1="16" x2="36" y2="56" gradientUnits="userSpaceOnUse">
<stop offset="0.168269" stop-color="#FF9800"/>
<stop offset="0.778846" stop-color="#CD7C04"/>
</linearGradient>
</defs>
</svg>
