<svg xmlns="http://www.w3.org/2000/svg" width="16" height="16" viewBox="0 0 16 16" fill="none">
  <path d="M15.0567 3.0143C15.0039 2.95111 14.9379 2.90029 14.8633 2.86542C14.7887 2.83055 14.7073 2.81249 14.625 2.8125H3.28219L2.85469 0.461953C2.83114 0.332344 2.76285 0.215111 2.66173 0.130691C2.5606 0.0462704 2.43306 1.90387e-05 2.30133 0H0.5625C0.413316 0 0.270242 0.0592632 0.164752 0.164752C0.0592632 0.270242 0 0.413316 0 0.5625C0 0.711684 0.0592632 0.854758 0.164752 0.960248C0.270242 1.06574 0.413316 1.125 0.5625 1.125H1.82812L3.62531 10.9891C3.67825 11.2817 3.80754 11.555 4.00008 11.7816C3.73433 12.0298 3.54252 12.3467 3.44592 12.6973C3.34931 13.0479 3.35169 13.4184 3.45279 13.7677C3.55388 14.117 3.74975 14.4315 4.01866 14.6762C4.28757 14.921 4.61903 15.0865 4.97627 15.1544C5.33351 15.2224 5.70258 15.19 6.04255 15.061C6.38252 14.9319 6.68011 14.7112 6.90233 14.4234C7.12454 14.1355 7.26269 13.7918 7.30145 13.4302C7.34022 13.0687 7.27809 12.7034 7.12195 12.375H10.3155C10.1897 12.6385 10.1246 12.9268 10.125 13.2188C10.125 13.6081 10.2405 13.9888 10.4568 14.3125C10.6731 14.6363 10.9806 14.8886 11.3403 15.0376C11.7001 15.1866 12.0959 15.2256 12.4778 15.1497C12.8597 15.0737 13.2105 14.8862 13.4859 14.6109C13.7612 14.3355 13.9487 13.9847 14.0247 13.6028C14.1006 13.2209 14.0616 12.8251 13.9126 12.4653C13.7636 12.1056 13.5113 11.7981 13.1875 11.5818C12.8638 11.3655 12.4831 11.25 12.0938 11.25H5.28539C5.15366 11.25 5.02611 11.2037 4.92499 11.1193C4.82387 11.0349 4.75558 10.9177 4.73203 10.788L4.50914 9.5625H12.6654C13.0606 9.56244 13.4432 9.42369 13.7466 9.17043C14.05 8.91717 14.2548 8.56547 14.3255 8.17664L15.1805 3.47555C15.1949 3.39429 15.1914 3.31085 15.17 3.23114C15.1486 3.15142 15.1099 3.07739 15.0567 3.0143ZM6.1875 13.2188C6.1875 13.3856 6.13802 13.5488 6.0453 13.6875C5.95259 13.8263 5.82081 13.9344 5.66664 13.9983C5.51246 14.0621 5.34281 14.0788 5.17914 14.0463C5.01547 14.0137 4.86513 13.9334 4.74713 13.8154C4.62913 13.6974 4.54877 13.547 4.51621 13.3834C4.48366 13.2197 4.50037 13.05 4.56423 12.8959C4.62809 12.7417 4.73623 12.6099 4.87499 12.5172C5.01374 12.4245 5.17687 12.375 5.34375 12.375C5.56753 12.375 5.78214 12.4639 5.94037 12.6221C6.09861 12.7804 6.1875 12.995 6.1875 13.2188ZM12.9375 13.2188C12.9375 13.3856 12.888 13.5488 12.7953 13.6875C12.7026 13.8263 12.5708 13.9344 12.4166 13.9983C12.2625 14.0621 12.0928 14.0788 11.9291 14.0463C11.7655 14.0137 11.6151 13.9334 11.4971 13.8154C11.3791 13.6974 11.2988 13.547 11.2662 13.3834C11.2337 13.2197 11.2504 13.05 11.3142 12.8959C11.3781 12.7417 11.4862 12.6099 11.625 12.5172C11.7637 12.4245 11.9269 12.375 12.0938 12.375C12.3175 12.375 12.5321 12.4639 12.6904 12.6221C12.8486 12.7804 12.9375 12.995 12.9375 13.2188ZM13.2188 7.97555C13.1951 8.10551 13.1265 8.22302 13.025 8.30749C12.9234 8.39195 12.7954 8.43798 12.6633 8.4375H4.30453L3.4868 3.9375H13.9507L13.2188 7.97555Z" fill="#FF9800"/>
</svg>
