<svg xmlns="http://www.w3.org/2000/svg" width="13" height="11" viewBox="0 0 13 11" fill="none">
  <path d="M13 10.5C13 10.6326 12.9473 10.7598 12.8536 10.8536C12.7598 10.9473 12.6326 11 12.5 11H0.5C0.367392 11 0.240215 10.9473 0.146447 10.8536C0.0526784 10.7598 0 10.6326 0 10.5V0.5C0 0.367392 0.0526784 0.240215 0.146447 0.146447C0.240215 0.0526785 0.367392 0 0.5 0C0.632608 0 0.759785 0.0526785 0.853553 0.146447C0.947321 0.240215 1 0.367392 1 0.5V1.29312L4.5 4.79313L6.14625 3.14625C6.19269 3.09976 6.24783 3.06288 6.30853 3.03772C6.36923 3.01256 6.43429 2.99961 6.5 2.99961C6.56571 2.99961 6.63077 3.01256 6.69147 3.03772C6.75217 3.06288 6.80731 3.09976 6.85375 3.14625L10.5 6.79313V5.5C10.5 5.36739 10.5527 5.24021 10.6464 5.14645C10.7402 5.05268 10.8674 5 11 5C11.1326 5 11.2598 5.05268 11.3536 5.14645C11.4473 5.24021 11.5 5.36739 11.5 5.5V8C11.501 8.01665 11.501 8.03335 11.5 8.05C11.5 8.05688 11.5 8.06312 11.4969 8.07C11.4937 8.07687 11.4969 8.08875 11.4925 8.09875C11.4911 8.10658 11.4893 8.1143 11.4869 8.12187C11.4869 8.13 11.4831 8.13812 11.4806 8.14625C11.4781 8.15438 11.4756 8.16063 11.4731 8.16813L11.4644 8.1925L11.455 8.21187C11.4513 8.22 11.4475 8.22875 11.4431 8.23687C11.4387 8.245 11.4362 8.24813 11.4331 8.25438L11.4181 8.27875L11.405 8.29625L11.3888 8.31812C11.3819 8.32687 11.3737 8.335 11.3663 8.34313L11.3562 8.35437L11.3456 8.36375C11.3373 8.37196 11.3286 8.37968 11.3194 8.38688C11.313 8.39243 11.3063 8.39764 11.2994 8.4025L11.2806 8.41625L11.2569 8.43062C11.2508 8.43453 11.2446 8.43808 11.2381 8.44125L11.215 8.45312L11.1938 8.4625L11.1713 8.47062C11.1635 8.47389 11.1556 8.47661 11.1475 8.47875L11.125 8.485C11.1163 8.485 11.1088 8.48938 11.1 8.49063L11.0737 8.495L11.0519 8.49813C11.0354 8.49905 11.0189 8.49905 11.0025 8.49813H8.5C8.36739 8.49813 8.24021 8.44545 8.14645 8.35168C8.05268 8.25791 8 8.13073 8 7.99813C8 7.86552 8.05268 7.73834 8.14645 7.64457C8.24021 7.5508 8.36739 7.49813 8.5 7.49813H9.79313L6.5 4.20687L4.85375 5.85375C4.80731 5.90024 4.75217 5.93712 4.69147 5.96228C4.63077 5.98744 4.56571 6.00039 4.5 6.00039C4.43429 6.00039 4.36923 5.98744 4.30853 5.96228C4.24783 5.93712 4.19269 5.90024 4.14625 5.85375L1 2.70687V10H12.5C12.6326 10 12.7598 10.0527 12.8536 10.1464C12.9473 10.2402 13 10.3674 13 10.5Z" fill="#D1D2D2"/>
</svg>
